<mxfile host="app.diagrams.net" modified="2022-12-15T21:42:38.325Z" agent="5.0 (Macintosh; Intel Mac OS X 10_15_7) AppleWebKit/537.36 (KHTML, like Gecko) Chrome/108.0.0.0 Safari/537.36" etag="9un6lLGZodN60TjYwy2B" version="20.7.3" type="github">
  <diagram id="urTWICyJ32s46pe6_w5w" name="Page-1">
    <mxGraphModel dx="2868" dy="1656" grid="1" gridSize="10" guides="1" tooltips="1" connect="1" arrows="1" fold="1" page="1" pageScale="1" pageWidth="850" pageHeight="1100" math="0" shadow="0">
      <root>
        <mxCell id="0" />
        <mxCell id="1" parent="0" />
        <mxCell id="LYvefTR0ZhCz4yNLu3Uy-5" style="edgeStyle=orthogonalEdgeStyle;rounded=0;orthogonalLoop=1;jettySize=auto;html=1;exitX=0.875;exitY=0.5;exitDx=0;exitDy=0;exitPerimeter=0;entryX=0;entryY=0.5;entryDx=0;entryDy=0;fillColor=#f5f5f5;strokeColor=#666666;" parent="1" source="ZAxf61MUc5lf0A0-14Nk-15" edge="1" target="3VA5LR1hi2kUILfdH2J1-44">
          <mxGeometry relative="1" as="geometry">
            <mxPoint x="300" y="120.25199999999995" as="targetPoint" />
          </mxGeometry>
        </mxCell>
        <mxCell id="ZAxf61MUc5lf0A0-14Nk-15" value="" style="ellipse;shape=cloud;whiteSpace=wrap;html=1;" parent="1" vertex="1">
          <mxGeometry x="141" y="80" width="102" height="80" as="geometry" />
        </mxCell>
        <mxCell id="3VA5LR1hi2kUILfdH2J1-50" style="edgeStyle=orthogonalEdgeStyle;rounded=1;orthogonalLoop=1;jettySize=auto;html=1;entryX=0;entryY=0.5;entryDx=0;entryDy=0;entryPerimeter=0;fillColor=#dae8fc;strokeColor=#6c8ebf;" edge="1" parent="1" source="ZAxf61MUc5lf0A0-14Nk-1" target="ZAxf61MUc5lf0A0-14Nk-14">
          <mxGeometry relative="1" as="geometry">
            <Array as="points">
              <mxPoint x="410" y="320" />
              <mxPoint x="410" y="640" />
            </Array>
          </mxGeometry>
        </mxCell>
        <mxCell id="ZAxf61MUc5lf0A0-14Nk-1" value="" style="sketch=0;aspect=fixed;html=1;points=[];align=center;image;fontSize=12;image=img/lib/mscae/Docker.svg;" parent="1" vertex="1">
          <mxGeometry x="335" y="300" width="50" height="41" as="geometry" />
        </mxCell>
        <mxCell id="LYvefTR0ZhCz4yNLu3Uy-4" style="edgeStyle=orthogonalEdgeStyle;rounded=0;orthogonalLoop=1;jettySize=auto;html=1;entryX=0.076;entryY=0.491;entryDx=0;entryDy=0;entryPerimeter=0;fillColor=#f5f5f5;strokeColor=#666666;" parent="1" target="ZAxf61MUc5lf0A0-14Nk-15" edge="1">
          <mxGeometry relative="1" as="geometry">
            <mxPoint x="110" y="120" as="sourcePoint" />
          </mxGeometry>
        </mxCell>
        <mxCell id="ZAxf61MUc5lf0A0-14Nk-2" value="Client" style="sketch=0;outlineConnect=0;fontColor=#232F3E;gradientColor=none;strokeColor=#232F3E;fillColor=#ffffff;dashed=0;verticalLabelPosition=bottom;verticalAlign=top;align=center;html=1;fontSize=12;fontStyle=0;aspect=fixed;shape=mxgraph.aws4.resourceIcon;resIcon=mxgraph.aws4.client;" parent="1" vertex="1">
          <mxGeometry x="50" y="90" width="60" height="60" as="geometry" />
        </mxCell>
        <mxCell id="ZAxf61MUc5lf0A0-14Nk-3" value="" style="shape=image;html=1;verticalAlign=top;verticalLabelPosition=bottom;labelBackgroundColor=#ffffff;imageAspect=0;aspect=fixed;image=https://cdn4.iconfinder.com/data/icons/socialcones/508/Trello-128.png" parent="1" vertex="1">
          <mxGeometry x="176.5" y="104.5" width="31" height="31" as="geometry" />
        </mxCell>
        <mxCell id="ZAxf61MUc5lf0A0-14Nk-4" value="" style="sketch=0;aspect=fixed;html=1;points=[];align=center;image;fontSize=12;image=img/lib/mscae/SendGrid_Accounts.svg;" parent="1" vertex="1">
          <mxGeometry x="151" y="500" width="50" height="50" as="geometry" />
        </mxCell>
        <mxCell id="ZAxf61MUc5lf0A0-14Nk-6" value="AWS Cloud" style="points=[[0,0],[0.25,0],[0.5,0],[0.75,0],[1,0],[1,0.25],[1,0.5],[1,0.75],[1,1],[0.75,1],[0.5,1],[0.25,1],[0,1],[0,0.75],[0,0.5],[0,0.25]];outlineConnect=0;gradientColor=none;html=1;whiteSpace=wrap;fontSize=12;fontStyle=0;container=1;pointerEvents=0;collapsible=0;recursiveResize=0;shape=mxgraph.aws4.group;grIcon=mxgraph.aws4.group_aws_cloud_alt;strokeColor=#232F3E;fillColor=none;verticalAlign=top;align=left;spacingLeft=30;fontColor=#232F3E;dashed=0;" parent="1" vertex="1">
          <mxGeometry x="440" y="40" width="880" height="800" as="geometry" />
        </mxCell>
        <mxCell id="ZAxf61MUc5lf0A0-14Nk-7" value="VPC" style="points=[[0,0],[0.25,0],[0.5,0],[0.75,0],[1,0],[1,0.25],[1,0.5],[1,0.75],[1,1],[0.75,1],[0.5,1],[0.25,1],[0,1],[0,0.75],[0,0.5],[0,0.25]];outlineConnect=0;gradientColor=none;html=1;whiteSpace=wrap;fontSize=12;fontStyle=0;container=1;pointerEvents=0;collapsible=0;recursiveResize=0;shape=mxgraph.aws4.group;grIcon=mxgraph.aws4.group_vpc;strokeColor=#248814;fillColor=none;verticalAlign=top;align=left;spacingLeft=30;fontColor=#AAB7B8;dashed=0;" parent="ZAxf61MUc5lf0A0-14Nk-6" vertex="1">
          <mxGeometry x="121" y="80" width="720" height="680" as="geometry" />
        </mxCell>
        <mxCell id="LYvefTR0ZhCz4yNLu3Uy-21" style="edgeStyle=orthogonalEdgeStyle;rounded=0;orthogonalLoop=1;jettySize=auto;html=1;entryX=0;entryY=0.5;entryDx=0;entryDy=0;entryPerimeter=0;fillColor=#f5f5f5;strokeColor=#666666;" parent="ZAxf61MUc5lf0A0-14Nk-7" source="ZAxf61MUc5lf0A0-14Nk-10" target="LYvefTR0ZhCz4yNLu3Uy-10" edge="1">
          <mxGeometry relative="1" as="geometry" />
        </mxCell>
        <mxCell id="ZAxf61MUc5lf0A0-14Nk-10" value="" style="outlineConnect=0;dashed=0;verticalLabelPosition=bottom;verticalAlign=top;align=center;html=1;shape=mxgraph.aws3.application_load_balancer;fillColor=#F58534;gradientColor=none;" parent="ZAxf61MUc5lf0A0-14Nk-7" vertex="1">
          <mxGeometry x="290" y="62.88" width="80" height="77" as="geometry" />
        </mxCell>
        <mxCell id="LYvefTR0ZhCz4yNLu3Uy-25" style="edgeStyle=orthogonalEdgeStyle;rounded=0;orthogonalLoop=1;jettySize=auto;html=1;exitX=1;exitY=0.5;exitDx=0;exitDy=0;exitPerimeter=0;entryX=0;entryY=0.5;entryDx=0;entryDy=0;entryPerimeter=0;" parent="ZAxf61MUc5lf0A0-14Nk-7" source="3VA5LR1hi2kUILfdH2J1-25" target="3VA5LR1hi2kUILfdH2J1-4" edge="1">
          <mxGeometry relative="1" as="geometry">
            <mxPoint x="380" y="536.75" as="sourcePoint" />
            <mxPoint x="443" y="527.5" as="targetPoint" />
          </mxGeometry>
        </mxCell>
        <mxCell id="LYvefTR0ZhCz4yNLu3Uy-23" style="edgeStyle=orthogonalEdgeStyle;rounded=0;orthogonalLoop=1;jettySize=auto;html=1;entryX=0;entryY=0.5;entryDx=0;entryDy=0;entryPerimeter=0;exitX=1;exitY=0.5;exitDx=0;exitDy=0;exitPerimeter=0;fillColor=#f5f5f5;strokeColor=#666666;" parent="ZAxf61MUc5lf0A0-14Nk-7" source="3VA5LR1hi2kUILfdH2J1-23" target="3VA5LR1hi2kUILfdH2J1-2" edge="1">
          <mxGeometry relative="1" as="geometry">
            <mxPoint x="380" y="313.75" as="sourcePoint" />
            <mxPoint x="443" y="307.5" as="targetPoint" />
          </mxGeometry>
        </mxCell>
        <mxCell id="LYvefTR0ZhCz4yNLu3Uy-24" style="edgeStyle=orthogonalEdgeStyle;rounded=0;orthogonalLoop=1;jettySize=auto;html=1;exitX=1;exitY=0.5;exitDx=0;exitDy=0;exitPerimeter=0;entryX=0;entryY=0.5;entryDx=0;entryDy=0;entryPerimeter=0;" parent="ZAxf61MUc5lf0A0-14Nk-7" source="3VA5LR1hi2kUILfdH2J1-24" target="3VA5LR1hi2kUILfdH2J1-3" edge="1">
          <mxGeometry relative="1" as="geometry">
            <mxPoint x="380" y="420.75" as="sourcePoint" />
            <mxPoint x="443" y="417.5" as="targetPoint" />
          </mxGeometry>
        </mxCell>
        <mxCell id="3VA5LR1hi2kUILfdH2J1-18" style="edgeStyle=orthogonalEdgeStyle;rounded=1;orthogonalLoop=1;jettySize=auto;html=1;exitX=1;exitY=0.5;exitDx=0;exitDy=0;exitPerimeter=0;entryX=1;entryY=0.25;entryDx=0;entryDy=0;entryPerimeter=0;fillColor=#ffe6cc;strokeColor=#d79b00;" edge="1" parent="ZAxf61MUc5lf0A0-14Nk-7" source="LYvefTR0ZhCz4yNLu3Uy-10" target="3VA5LR1hi2kUILfdH2J1-3">
          <mxGeometry relative="1" as="geometry">
            <Array as="points">
              <mxPoint x="529" y="100" />
              <mxPoint x="560" y="100" />
              <mxPoint x="560" y="403" />
            </Array>
          </mxGeometry>
        </mxCell>
        <mxCell id="LYvefTR0ZhCz4yNLu3Uy-10" value="" style="sketch=0;points=[[0,0,0],[0.25,0,0],[0.5,0,0],[0.75,0,0],[1,0,0],[0,1,0],[0.25,1,0],[0.5,1,0],[0.75,1,0],[1,1,0],[0,0.25,0],[0,0.5,0],[0,0.75,0],[1,0.25,0],[1,0.5,0],[1,0.75,0]];outlineConnect=0;fontColor=#232F3E;gradientColor=#F78E04;gradientDirection=north;fillColor=#D05C17;strokeColor=#ffffff;dashed=0;verticalLabelPosition=bottom;verticalAlign=top;align=center;html=1;fontSize=12;fontStyle=0;aspect=fixed;shape=mxgraph.aws4.resourceIcon;resIcon=mxgraph.aws4.fargate;" parent="ZAxf61MUc5lf0A0-14Nk-7" vertex="1">
          <mxGeometry x="463.75" y="68.63" width="65.5" height="65.5" as="geometry" />
        </mxCell>
        <mxCell id="LYvefTR0ZhCz4yNLu3Uy-26" value="&lt;div&gt;PRISM&lt;/div&gt;" style="text;html=1;align=center;verticalAlign=middle;resizable=0;points=[];autosize=1;strokeColor=none;fillColor=none;" parent="ZAxf61MUc5lf0A0-14Nk-7" vertex="1">
          <mxGeometry x="466.5" y="232.25" width="60" height="30" as="geometry" />
        </mxCell>
        <mxCell id="LYvefTR0ZhCz4yNLu3Uy-27" value="&lt;div&gt;Power Up&lt;/div&gt;" style="text;html=1;align=center;verticalAlign=middle;resizable=0;points=[];autosize=1;strokeColor=none;fillColor=none;" parent="ZAxf61MUc5lf0A0-14Nk-7" vertex="1">
          <mxGeometry x="456.5" y="132.25" width="80" height="30" as="geometry" />
        </mxCell>
        <mxCell id="LYvefTR0ZhCz4yNLu3Uy-29" value="&lt;div&gt;Webhooks&lt;/div&gt;" style="text;html=1;align=center;verticalAlign=middle;resizable=0;points=[];autosize=1;strokeColor=none;fillColor=none;" parent="ZAxf61MUc5lf0A0-14Nk-7" vertex="1">
          <mxGeometry x="456.5" y="453.5" width="80" height="30" as="geometry" />
        </mxCell>
        <mxCell id="LYvefTR0ZhCz4yNLu3Uy-28" value="&lt;div&gt;Redis&lt;/div&gt;" style="text;html=1;align=center;verticalAlign=middle;resizable=0;points=[];autosize=1;strokeColor=none;fillColor=none;" parent="ZAxf61MUc5lf0A0-14Nk-7" vertex="1">
          <mxGeometry x="466.5" y="346.5" width="60" height="30" as="geometry" />
        </mxCell>
        <mxCell id="LYvefTR0ZhCz4yNLu3Uy-30" value="Bastion" style="text;html=1;align=center;verticalAlign=middle;resizable=0;points=[];autosize=1;strokeColor=none;fillColor=none;" parent="ZAxf61MUc5lf0A0-14Nk-7" vertex="1">
          <mxGeometry x="461.5" y="569.5" width="70" height="30" as="geometry" />
        </mxCell>
        <mxCell id="3VA5LR1hi2kUILfdH2J1-32" style="edgeStyle=orthogonalEdgeStyle;rounded=1;orthogonalLoop=1;jettySize=auto;html=1;exitX=1;exitY=0.5;exitDx=0;exitDy=0;exitPerimeter=0;entryX=1;entryY=0.25;entryDx=0;entryDy=0;entryPerimeter=0;fillColor=#ffe6cc;strokeColor=#d79b00;" edge="1" parent="ZAxf61MUc5lf0A0-14Nk-7" source="3VA5LR1hi2kUILfdH2J1-1" target="3VA5LR1hi2kUILfdH2J1-3">
          <mxGeometry relative="1" as="geometry">
            <Array as="points">
              <mxPoint x="532" y="200" />
              <mxPoint x="560" y="200" />
              <mxPoint x="560" y="403" />
            </Array>
          </mxGeometry>
        </mxCell>
        <mxCell id="3VA5LR1hi2kUILfdH2J1-1" value="" style="sketch=0;points=[[0,0,0],[0.25,0,0],[0.5,0,0],[0.75,0,0],[1,0,0],[0,1,0],[0.25,1,0],[0.5,1,0],[0.75,1,0],[1,1,0],[0,0.25,0],[0,0.5,0],[0,0.75,0],[1,0.25,0],[1,0.5,0],[1,0.75,0]];outlineConnect=0;fontColor=#232F3E;gradientColor=#F78E04;gradientDirection=north;fillColor=#D05C17;strokeColor=#ffffff;dashed=0;verticalLabelPosition=bottom;verticalAlign=top;align=center;html=1;fontSize=12;fontStyle=0;aspect=fixed;shape=mxgraph.aws4.resourceIcon;resIcon=mxgraph.aws4.fargate;" vertex="1" parent="ZAxf61MUc5lf0A0-14Nk-7">
          <mxGeometry x="466" y="168.63" width="65.5" height="65.5" as="geometry" />
        </mxCell>
        <mxCell id="3VA5LR1hi2kUILfdH2J1-30" style="edgeStyle=orthogonalEdgeStyle;rounded=0;orthogonalLoop=1;jettySize=auto;html=1;entryX=0;entryY=0.5;entryDx=0;entryDy=0;exitX=1;exitY=0.5;exitDx=0;exitDy=0;exitPerimeter=0;fillColor=#ffe6cc;strokeColor=#d79b00;" edge="1" parent="ZAxf61MUc5lf0A0-14Nk-7" source="3VA5LR1hi2kUILfdH2J1-2" target="3VA5LR1hi2kUILfdH2J1-10">
          <mxGeometry relative="1" as="geometry">
            <mxPoint x="520" y="300" as="sourcePoint" />
            <Array as="points">
              <mxPoint x="575" y="310" />
              <mxPoint x="620" y="310" />
            </Array>
          </mxGeometry>
        </mxCell>
        <mxCell id="3VA5LR1hi2kUILfdH2J1-34" style="edgeStyle=orthogonalEdgeStyle;orthogonalLoop=1;jettySize=auto;html=1;exitX=1;exitY=0.25;exitDx=0;exitDy=0;exitPerimeter=0;entryX=1;entryY=0.5;entryDx=0;entryDy=0;entryPerimeter=0;fillColor=#ffe6cc;strokeColor=#d79b00;rounded=1;" edge="1" parent="ZAxf61MUc5lf0A0-14Nk-7" source="3VA5LR1hi2kUILfdH2J1-2" target="3VA5LR1hi2kUILfdH2J1-3">
          <mxGeometry relative="1" as="geometry">
            <Array as="points">
              <mxPoint x="570" y="294" />
              <mxPoint x="570" y="419" />
              <mxPoint x="537" y="419" />
            </Array>
          </mxGeometry>
        </mxCell>
        <mxCell id="3VA5LR1hi2kUILfdH2J1-2" value="" style="sketch=0;points=[[0,0,0],[0.25,0,0],[0.5,0,0],[0.75,0,0],[1,0,0],[0,1,0],[0.25,1,0],[0.5,1,0],[0.75,1,0],[1,1,0],[0,0.25,0],[0,0.5,0],[0,0.75,0],[1,0.25,0],[1,0.5,0],[1,0.75,0]];outlineConnect=0;fontColor=#232F3E;gradientColor=#F78E04;gradientDirection=north;fillColor=#D05C17;strokeColor=#ffffff;dashed=0;verticalLabelPosition=bottom;verticalAlign=top;align=center;html=1;fontSize=12;fontStyle=0;aspect=fixed;shape=mxgraph.aws4.resourceIcon;resIcon=mxgraph.aws4.fargate;" vertex="1" parent="ZAxf61MUc5lf0A0-14Nk-7">
          <mxGeometry x="466.5" y="277.63" width="65.5" height="65.5" as="geometry" />
        </mxCell>
        <mxCell id="3VA5LR1hi2kUILfdH2J1-29" style="edgeStyle=orthogonalEdgeStyle;rounded=1;orthogonalLoop=1;jettySize=auto;html=1;entryX=1;entryY=0.25;entryDx=0;entryDy=0;entryPerimeter=0;fillColor=#ffe6cc;strokeColor=#d79b00;" edge="1" parent="ZAxf61MUc5lf0A0-14Nk-7" target="3VA5LR1hi2kUILfdH2J1-2">
          <mxGeometry relative="1" as="geometry">
            <mxPoint x="537" y="419" as="sourcePoint" />
            <Array as="points">
              <mxPoint x="537" y="419" />
              <mxPoint x="570" y="419" />
              <mxPoint x="570" y="294" />
            </Array>
          </mxGeometry>
        </mxCell>
        <mxCell id="3VA5LR1hi2kUILfdH2J1-40" style="edgeStyle=orthogonalEdgeStyle;rounded=1;orthogonalLoop=1;jettySize=auto;html=1;entryX=0.94;entryY=0.5;entryDx=0;entryDy=0;entryPerimeter=0;fillColor=#ffe6cc;strokeColor=#d79b00;exitX=1;exitY=0.75;exitDx=0;exitDy=0;exitPerimeter=0;" edge="1" parent="ZAxf61MUc5lf0A0-14Nk-7" source="3VA5LR1hi2kUILfdH2J1-3" target="ZAxf61MUc5lf0A0-14Nk-13">
          <mxGeometry relative="1" as="geometry">
            <Array as="points">
              <mxPoint x="560" y="436" />
              <mxPoint x="560" y="610" />
              <mxPoint x="190" y="610" />
              <mxPoint x="190" y="440" />
              <mxPoint x="136" y="440" />
            </Array>
          </mxGeometry>
        </mxCell>
        <mxCell id="3VA5LR1hi2kUILfdH2J1-3" value="" style="sketch=0;points=[[0,0,0,0,0],[0,0.24,0,0,0],[0,0.5,0,0,0],[0,0.75,0,0,0],[0,1,0,0,0],[0.24,0,0,0,0],[0.24,1,0,0,0],[0.5,0,0,0,0],[0.5,1,0,0,0],[0.75,0,0,0,0],[0.75,1,0,0,0],[1,0,0,0,0],[1,0.24,0,0,0],[1,0.5,0,0,0],[1,0.75,0,0,0],[1,0.92,0,0,0]];outlineConnect=0;fontColor=#232F3E;gradientColor=#F78E04;gradientDirection=north;fillColor=#D05C17;strokeColor=#ffffff;dashed=0;verticalLabelPosition=bottom;verticalAlign=top;align=center;html=1;fontSize=12;fontStyle=0;aspect=fixed;shape=mxgraph.aws4.resourceIcon;resIcon=mxgraph.aws4.fargate;" vertex="1" parent="ZAxf61MUc5lf0A0-14Nk-7">
          <mxGeometry x="471" y="386.63" width="65.5" height="65.5" as="geometry" />
        </mxCell>
        <mxCell id="3VA5LR1hi2kUILfdH2J1-42" style="edgeStyle=orthogonalEdgeStyle;rounded=1;orthogonalLoop=1;jettySize=auto;html=1;fillColor=#ffe6cc;strokeColor=#d79b00;entryX=1;entryY=0.5;entryDx=0;entryDy=0;entryPerimeter=0;exitX=1;exitY=0.5;exitDx=0;exitDy=0;exitPerimeter=0;" edge="1" parent="ZAxf61MUc5lf0A0-14Nk-7" source="3VA5LR1hi2kUILfdH2J1-4" target="ZAxf61MUc5lf0A0-14Nk-12">
          <mxGeometry relative="1" as="geometry">
            <mxPoint x="530" y="540" as="sourcePoint" />
            <Array as="points">
              <mxPoint x="560" y="537" />
              <mxPoint x="560" y="600" />
              <mxPoint x="200" y="600" />
              <mxPoint x="200" y="280" />
            </Array>
          </mxGeometry>
        </mxCell>
        <mxCell id="3VA5LR1hi2kUILfdH2J1-51" style="edgeStyle=orthogonalEdgeStyle;rounded=1;orthogonalLoop=1;jettySize=auto;html=1;entryX=0.94;entryY=0.5;entryDx=0;entryDy=0;entryPerimeter=0;fillColor=#ffe6cc;strokeColor=#d79b00;" edge="1" parent="ZAxf61MUc5lf0A0-14Nk-7" source="3VA5LR1hi2kUILfdH2J1-4" target="ZAxf61MUc5lf0A0-14Nk-13">
          <mxGeometry relative="1" as="geometry">
            <Array as="points">
              <mxPoint x="560" y="537" />
              <mxPoint x="560" y="610" />
              <mxPoint x="190" y="610" />
              <mxPoint x="190" y="440" />
            </Array>
          </mxGeometry>
        </mxCell>
        <mxCell id="3VA5LR1hi2kUILfdH2J1-4" value="" style="sketch=0;points=[[0,0,0],[0.25,0,0],[0.5,0,0],[0.75,0,0],[1,0,0],[0,1,0],[0.25,1,0],[0.5,1,0],[0.75,1,0],[1,1,0],[0,0.25,0],[0,0.5,0],[0,0.75,0],[1,0.25,0],[1,0.5,0],[1,0.75,0]];outlineConnect=0;fontColor=#232F3E;gradientColor=#F78E04;gradientDirection=north;fillColor=#D05C17;strokeColor=#ffffff;dashed=0;verticalLabelPosition=bottom;verticalAlign=top;align=center;html=1;fontSize=12;fontStyle=0;aspect=fixed;shape=mxgraph.aws4.resourceIcon;resIcon=mxgraph.aws4.fargate;" vertex="1" parent="ZAxf61MUc5lf0A0-14Nk-7">
          <mxGeometry x="463.75" y="504" width="65.5" height="65.5" as="geometry" />
        </mxCell>
        <mxCell id="3VA5LR1hi2kUILfdH2J1-36" style="edgeStyle=orthogonalEdgeStyle;orthogonalLoop=1;jettySize=auto;html=1;exitX=0.5;exitY=0;exitDx=0;exitDy=0;entryX=1;entryY=0.25;entryDx=0;entryDy=0;entryPerimeter=0;fillColor=#ffe6cc;strokeColor=#d79b00;rounded=1;" edge="1" parent="ZAxf61MUc5lf0A0-14Nk-7" source="3VA5LR1hi2kUILfdH2J1-10" target="3VA5LR1hi2kUILfdH2J1-1">
          <mxGeometry relative="1" as="geometry" />
        </mxCell>
        <mxCell id="3VA5LR1hi2kUILfdH2J1-10" value="" style="aspect=fixed;perimeter=ellipsePerimeter;html=1;align=center;shadow=0;dashed=0;spacingTop=3;image;image=img/lib/active_directory/generic_server.svg;" vertex="1" parent="ZAxf61MUc5lf0A0-14Nk-7">
          <mxGeometry x="620" y="275.13" width="39.48" height="70.5" as="geometry" />
        </mxCell>
        <mxCell id="ZAxf61MUc5lf0A0-14Nk-13" value="" style="outlineConnect=0;dashed=0;verticalLabelPosition=bottom;verticalAlign=top;align=center;html=1;shape=mxgraph.aws3.bucket;fillColor=#E05243;gradientColor=none;" parent="ZAxf61MUc5lf0A0-14Nk-7" vertex="1">
          <mxGeometry x="80" y="409" width="60" height="61.5" as="geometry" />
        </mxCell>
        <mxCell id="ZAxf61MUc5lf0A0-14Nk-12" value="" style="sketch=0;points=[[0,0,0],[0.25,0,0],[0.5,0,0],[0.75,0,0],[1,0,0],[0,1,0],[0.25,1,0],[0.5,1,0],[0.75,1,0],[1,1,0],[0,0.25,0],[0,0.5,0],[0,0.75,0],[1,0.25,0],[1,0.5,0],[1,0.75,0]];outlineConnect=0;fontColor=#232F3E;gradientColor=#4D72F3;gradientDirection=north;fillColor=#3334B9;strokeColor=#ffffff;dashed=0;verticalLabelPosition=bottom;verticalAlign=top;align=center;html=1;fontSize=12;fontStyle=0;aspect=fixed;shape=mxgraph.aws4.resourceIcon;resIcon=mxgraph.aws4.rds;" parent="ZAxf61MUc5lf0A0-14Nk-7" vertex="1">
          <mxGeometry x="76" y="246" width="68" height="68" as="geometry" />
        </mxCell>
        <mxCell id="3VA5LR1hi2kUILfdH2J1-37" style="edgeStyle=orthogonalEdgeStyle;rounded=0;orthogonalLoop=1;jettySize=auto;html=1;exitX=1;exitY=0.5;exitDx=0;exitDy=0;exitPerimeter=0;fillColor=#f5f5f5;strokeColor=#666666;" edge="1" parent="ZAxf61MUc5lf0A0-14Nk-7" source="3VA5LR1hi2kUILfdH2J1-21" target="3VA5LR1hi2kUILfdH2J1-1">
          <mxGeometry relative="1" as="geometry" />
        </mxCell>
        <mxCell id="3VA5LR1hi2kUILfdH2J1-21" value="" style="outlineConnect=0;dashed=0;verticalLabelPosition=bottom;verticalAlign=top;align=center;html=1;shape=mxgraph.aws3.application_load_balancer;fillColor=#F58534;gradientColor=none;" vertex="1" parent="ZAxf61MUc5lf0A0-14Nk-7">
          <mxGeometry x="290" y="162.88" width="80" height="77" as="geometry" />
        </mxCell>
        <mxCell id="3VA5LR1hi2kUILfdH2J1-23" value="" style="outlineConnect=0;dashed=0;verticalLabelPosition=bottom;verticalAlign=top;align=center;html=1;shape=mxgraph.aws3.application_load_balancer;fillColor=#F58534;gradientColor=none;" vertex="1" parent="ZAxf61MUc5lf0A0-14Nk-7">
          <mxGeometry x="290" y="271.88" width="80" height="77" as="geometry" />
        </mxCell>
        <mxCell id="3VA5LR1hi2kUILfdH2J1-24" value="" style="outlineConnect=0;dashed=0;verticalLabelPosition=bottom;verticalAlign=top;align=center;html=1;shape=mxgraph.aws3.application_load_balancer;fillColor=#F58534;gradientColor=none;" vertex="1" parent="ZAxf61MUc5lf0A0-14Nk-7">
          <mxGeometry x="290" y="380.88" width="80" height="77" as="geometry" />
        </mxCell>
        <mxCell id="3VA5LR1hi2kUILfdH2J1-25" value="" style="outlineConnect=0;dashed=0;verticalLabelPosition=bottom;verticalAlign=top;align=center;html=1;shape=mxgraph.aws3.application_load_balancer;fillColor=#F58534;gradientColor=none;" vertex="1" parent="ZAxf61MUc5lf0A0-14Nk-7">
          <mxGeometry x="290" y="498.25" width="80" height="77" as="geometry" />
        </mxCell>
        <mxCell id="3VA5LR1hi2kUILfdH2J1-26" value="Websocket" style="text;html=1;strokeColor=none;fillColor=none;align=center;verticalAlign=middle;whiteSpace=wrap;rounded=0;" vertex="1" parent="ZAxf61MUc5lf0A0-14Nk-7">
          <mxGeometry x="609.74" y="340.5" width="60" height="30" as="geometry" />
        </mxCell>
        <mxCell id="3VA5LR1hi2kUILfdH2J1-43" style="edgeStyle=orthogonalEdgeStyle;rounded=1;orthogonalLoop=1;jettySize=auto;html=1;entryX=1;entryY=0.5;entryDx=0;entryDy=0;entryPerimeter=0;exitX=1;exitY=0.75;exitDx=0;exitDy=0;exitPerimeter=0;fillColor=#ffe6cc;strokeColor=#d79b00;" edge="1" parent="ZAxf61MUc5lf0A0-14Nk-7" source="3VA5LR1hi2kUILfdH2J1-3" target="ZAxf61MUc5lf0A0-14Nk-12">
          <mxGeometry relative="1" as="geometry">
            <mxPoint x="489" y="610" as="targetPoint" />
            <mxPoint x="540" y="447" as="sourcePoint" />
            <Array as="points">
              <mxPoint x="560" y="436" />
              <mxPoint x="560" y="600" />
              <mxPoint x="200" y="600" />
              <mxPoint x="200" y="280" />
            </Array>
          </mxGeometry>
        </mxCell>
        <mxCell id="3VA5LR1hi2kUILfdH2J1-52" value="Object&lt;br&gt;Storage" style="text;html=1;align=center;verticalAlign=middle;resizable=0;points=[];autosize=1;strokeColor=none;fillColor=none;" vertex="1" parent="ZAxf61MUc5lf0A0-14Nk-7">
          <mxGeometry x="75" y="469" width="70" height="40" as="geometry" />
        </mxCell>
        <mxCell id="3VA5LR1hi2kUILfdH2J1-53" value="PostgreSQL" style="text;html=1;align=center;verticalAlign=middle;resizable=0;points=[];autosize=1;strokeColor=none;fillColor=none;" vertex="1" parent="ZAxf61MUc5lf0A0-14Nk-7">
          <mxGeometry x="64" y="316.5" width="90" height="30" as="geometry" />
        </mxCell>
        <mxCell id="ZAxf61MUc5lf0A0-14Nk-9" value="" style="rounded=1;arcSize=10;dashed=1;fillColor=none;gradientColor=none;dashPattern=8 3 1 3;strokeWidth=2;" parent="ZAxf61MUc5lf0A0-14Nk-7" vertex="1">
          <mxGeometry x="410" y="30" width="270" height="630" as="geometry" />
        </mxCell>
        <mxCell id="3VA5LR1hi2kUILfdH2J1-61" value="Auto Scaling group" style="text;html=1;align=center;verticalAlign=middle;resizable=0;points=[];autosize=1;strokeColor=none;fillColor=none;" vertex="1" parent="ZAxf61MUc5lf0A0-14Nk-7">
          <mxGeometry x="485" y="630" width="120" height="30" as="geometry" />
        </mxCell>
        <mxCell id="ZAxf61MUc5lf0A0-14Nk-8" value="Availability Zone" style="fillColor=none;strokeColor=#147EBA;dashed=1;verticalAlign=top;fontStyle=0;fontColor=#147EBA;" parent="ZAxf61MUc5lf0A0-14Nk-7" vertex="1">
          <mxGeometry x="30" y="30.38" width="670" height="639.62" as="geometry" />
        </mxCell>
        <mxCell id="ZAxf61MUc5lf0A0-14Nk-14" value="" style="outlineConnect=0;dashed=0;verticalLabelPosition=bottom;verticalAlign=top;align=center;html=1;shape=mxgraph.aws3.ecr_registry;fillColor=#F58534;gradientColor=none;" parent="ZAxf61MUc5lf0A0-14Nk-6" vertex="1">
          <mxGeometry x="40" y="570" width="57" height="60" as="geometry" />
        </mxCell>
        <mxCell id="3VA5LR1hi2kUILfdH2J1-49" style="edgeStyle=orthogonalEdgeStyle;rounded=1;orthogonalLoop=1;jettySize=auto;html=1;entryX=0;entryY=0.75;entryDx=0;entryDy=0;entryPerimeter=0;exitX=1;exitY=0.5;exitDx=0;exitDy=0;exitPerimeter=0;fillColor=#dae8fc;strokeColor=#6c8ebf;" edge="1" parent="ZAxf61MUc5lf0A0-14Nk-6" source="ZAxf61MUc5lf0A0-14Nk-14" target="3VA5LR1hi2kUILfdH2J1-2">
          <mxGeometry relative="1" as="geometry">
            <Array as="points">
              <mxPoint x="110" y="600" />
              <mxPoint x="110" y="660" />
              <mxPoint x="560" y="660" />
              <mxPoint x="560" y="407" />
            </Array>
          </mxGeometry>
        </mxCell>
        <mxCell id="3VA5LR1hi2kUILfdH2J1-48" style="edgeStyle=orthogonalEdgeStyle;rounded=1;orthogonalLoop=1;jettySize=auto;html=1;entryX=0;entryY=0.75;entryDx=0;entryDy=0;entryPerimeter=0;exitX=1;exitY=0.5;exitDx=0;exitDy=0;exitPerimeter=0;fillColor=#dae8fc;strokeColor=#6c8ebf;" edge="1" parent="ZAxf61MUc5lf0A0-14Nk-6" source="ZAxf61MUc5lf0A0-14Nk-14" target="3VA5LR1hi2kUILfdH2J1-4">
          <mxGeometry relative="1" as="geometry">
            <Array as="points">
              <mxPoint x="110" y="600" />
              <mxPoint x="110" y="660" />
              <mxPoint x="560" y="660" />
              <mxPoint x="560" y="633" />
            </Array>
          </mxGeometry>
        </mxCell>
        <mxCell id="3VA5LR1hi2kUILfdH2J1-47" style="edgeStyle=orthogonalEdgeStyle;rounded=1;orthogonalLoop=1;jettySize=auto;html=1;entryX=0;entryY=0.75;entryDx=0;entryDy=0;entryPerimeter=0;exitX=1;exitY=0.5;exitDx=0;exitDy=0;exitPerimeter=0;fillColor=#dae8fc;strokeColor=#6c8ebf;" edge="1" parent="ZAxf61MUc5lf0A0-14Nk-6" source="ZAxf61MUc5lf0A0-14Nk-14" target="3VA5LR1hi2kUILfdH2J1-3">
          <mxGeometry relative="1" as="geometry">
            <Array as="points">
              <mxPoint x="110" y="600" />
              <mxPoint x="110" y="660" />
              <mxPoint x="560" y="660" />
              <mxPoint x="560" y="516" />
            </Array>
          </mxGeometry>
        </mxCell>
        <mxCell id="3VA5LR1hi2kUILfdH2J1-46" style="edgeStyle=orthogonalEdgeStyle;rounded=1;orthogonalLoop=1;jettySize=auto;html=1;entryX=0;entryY=0.75;entryDx=0;entryDy=0;entryPerimeter=0;exitX=1;exitY=0.5;exitDx=0;exitDy=0;exitPerimeter=0;fillColor=#dae8fc;strokeColor=#6c8ebf;" edge="1" parent="ZAxf61MUc5lf0A0-14Nk-6" source="ZAxf61MUc5lf0A0-14Nk-14" target="LYvefTR0ZhCz4yNLu3Uy-10">
          <mxGeometry relative="1" as="geometry">
            <Array as="points">
              <mxPoint x="110" y="600" />
              <mxPoint x="110" y="660" />
              <mxPoint x="560" y="660" />
              <mxPoint x="560" y="198" />
            </Array>
          </mxGeometry>
        </mxCell>
        <mxCell id="3VA5LR1hi2kUILfdH2J1-45" style="edgeStyle=orthogonalEdgeStyle;rounded=1;orthogonalLoop=1;jettySize=auto;html=1;entryX=0;entryY=0.75;entryDx=0;entryDy=0;entryPerimeter=0;exitX=1;exitY=0.5;exitDx=0;exitDy=0;exitPerimeter=0;fillColor=#dae8fc;strokeColor=#6c8ebf;" edge="1" parent="ZAxf61MUc5lf0A0-14Nk-6" source="ZAxf61MUc5lf0A0-14Nk-14" target="3VA5LR1hi2kUILfdH2J1-1">
          <mxGeometry relative="1" as="geometry">
            <Array as="points">
              <mxPoint x="110" y="600" />
              <mxPoint x="110" y="660" />
              <mxPoint x="560" y="660" />
              <mxPoint x="560" y="298" />
            </Array>
          </mxGeometry>
        </mxCell>
        <mxCell id="3VA5LR1hi2kUILfdH2J1-54" value="Image&lt;br&gt;Registry" style="text;html=1;align=center;verticalAlign=middle;resizable=0;points=[];autosize=1;strokeColor=none;fillColor=none;" vertex="1" parent="ZAxf61MUc5lf0A0-14Nk-6">
          <mxGeometry x="33.5" y="635" width="70" height="40" as="geometry" />
        </mxCell>
        <mxCell id="ZAxf61MUc5lf0A0-14Nk-16" value="Trello" style="text;html=1;strokeColor=none;fillColor=none;align=center;verticalAlign=middle;whiteSpace=wrap;rounded=0;" parent="1" vertex="1">
          <mxGeometry x="162" y="160" width="60" height="30" as="geometry" />
        </mxCell>
        <mxCell id="3VA5LR1hi2kUILfdH2J1-15" style="edgeStyle=orthogonalEdgeStyle;rounded=0;orthogonalLoop=1;jettySize=auto;html=1;exitX=0.5;exitY=0;exitDx=0;exitDy=0;entryX=0.5;entryY=0.41;entryDx=0;entryDy=0;entryPerimeter=0;fillColor=#dae8fc;strokeColor=#6c8ebf;" edge="1" parent="1" source="ZAxf61MUc5lf0A0-14Nk-17" target="3VA5LR1hi2kUILfdH2J1-11">
          <mxGeometry relative="1" as="geometry">
            <Array as="points">
              <mxPoint x="239" y="276" />
              <mxPoint x="113" y="276" />
            </Array>
          </mxGeometry>
        </mxCell>
        <mxCell id="3VA5LR1hi2kUILfdH2J1-16" style="edgeStyle=orthogonalEdgeStyle;rounded=0;orthogonalLoop=1;jettySize=auto;html=1;exitX=1;exitY=0.5;exitDx=0;exitDy=0;fillColor=#dae8fc;strokeColor=#6c8ebf;" edge="1" parent="1" source="ZAxf61MUc5lf0A0-14Nk-17" target="ZAxf61MUc5lf0A0-14Nk-1">
          <mxGeometry relative="1" as="geometry" />
        </mxCell>
        <mxCell id="ZAxf61MUc5lf0A0-14Nk-17" value="" style="image;image=img/lib/atlassian/Bitbucket_Logo.svg;" parent="1" vertex="1">
          <mxGeometry x="210" y="295.5" width="57" height="50" as="geometry" />
        </mxCell>
        <mxCell id="3VA5LR1hi2kUILfdH2J1-20" style="edgeStyle=orthogonalEdgeStyle;rounded=0;orthogonalLoop=1;jettySize=auto;html=1;entryX=0;entryY=0.5;entryDx=0;entryDy=0;entryPerimeter=0;fillColor=#f5f5f5;strokeColor=#666666;exitX=1;exitY=0.5;exitDx=0;exitDy=0;" edge="1" parent="1" source="3VA5LR1hi2kUILfdH2J1-44" target="3VA5LR1hi2kUILfdH2J1-21">
          <mxGeometry relative="1" as="geometry">
            <mxPoint x="363" y="121" as="sourcePoint" />
            <mxPoint x="880" y="286.75" as="targetPoint" />
            <Array as="points">
              <mxPoint x="420" y="120" />
              <mxPoint x="420" y="180" />
              <mxPoint x="790" y="180" />
              <mxPoint x="790" y="321" />
            </Array>
          </mxGeometry>
        </mxCell>
        <mxCell id="3VA5LR1hi2kUILfdH2J1-38" style="edgeStyle=orthogonalEdgeStyle;rounded=0;orthogonalLoop=1;jettySize=auto;html=1;entryX=0;entryY=0.5;entryDx=0;entryDy=0;entryPerimeter=0;fillColor=#f5f5f5;strokeColor=#666666;exitX=1;exitY=0.5;exitDx=0;exitDy=0;" edge="1" parent="1" source="3VA5LR1hi2kUILfdH2J1-44" target="3VA5LR1hi2kUILfdH2J1-23">
          <mxGeometry relative="1" as="geometry">
            <mxPoint x="363" y="121" as="sourcePoint" />
            <Array as="points">
              <mxPoint x="420" y="120" />
              <mxPoint x="420" y="180" />
              <mxPoint x="790" y="180" />
              <mxPoint x="790" y="430" />
            </Array>
          </mxGeometry>
        </mxCell>
        <mxCell id="3VA5LR1hi2kUILfdH2J1-14" value="" style="edgeStyle=orthogonalEdgeStyle;rounded=0;orthogonalLoop=1;jettySize=auto;html=1;exitX=0.5;exitY=0.59;exitDx=0;exitDy=0;exitPerimeter=0;fillColor=#dae8fc;strokeColor=#6c8ebf;" edge="1" parent="1" source="3VA5LR1hi2kUILfdH2J1-11" target="ZAxf61MUc5lf0A0-14Nk-17">
          <mxGeometry relative="1" as="geometry">
            <Array as="points">
              <mxPoint x="113" y="370" />
              <mxPoint x="239" y="370" />
            </Array>
          </mxGeometry>
        </mxCell>
        <mxCell id="3VA5LR1hi2kUILfdH2J1-11" value="" style="shape=image;html=1;verticalAlign=top;verticalLabelPosition=bottom;labelBackgroundColor=#ffffff;imageAspect=0;aspect=fixed;image=https://cdn2.iconfinder.com/data/icons/vivid/48/infinity-128.png;points=[[0,0,0,0,0],[0,0.24,0,0,0],[0,0.5,0,0,0],[0,0.76,0,0,0],[0,1,0,0,0],[0.26,0,0,0,0],[0.26,1,0,0,0],[0.5,0.41,0,0,0],[0.5,0.59,0,0,0],[0.76,0,0,0,0],[0.76,1,0,0,0],[1,0,0,0,0],[1,0.26,0,0,0],[1,0.5,0,0,0],[1,0.76,0,0,0],[1,1,0,0,0]];" vertex="1" parent="1">
          <mxGeometry x="80" y="287.5" width="66" height="66" as="geometry" />
        </mxCell>
        <mxCell id="3VA5LR1hi2kUILfdH2J1-19" style="edgeStyle=orthogonalEdgeStyle;rounded=0;orthogonalLoop=1;jettySize=auto;html=1;entryX=0;entryY=0.5;entryDx=0;entryDy=0;entryPerimeter=0;fillColor=#f5f5f5;strokeColor=#666666;exitX=1;exitY=0.5;exitDx=0;exitDy=0;" edge="1" parent="1" source="3VA5LR1hi2kUILfdH2J1-44" target="ZAxf61MUc5lf0A0-14Nk-10">
          <mxGeometry relative="1" as="geometry">
            <mxPoint x="430" y="130" as="targetPoint" />
            <mxPoint x="350" y="120" as="sourcePoint" />
            <Array as="points">
              <mxPoint x="420" y="120" />
              <mxPoint x="420" y="180" />
              <mxPoint x="790" y="180" />
              <mxPoint x="790" y="221" />
            </Array>
          </mxGeometry>
        </mxCell>
        <mxCell id="3VA5LR1hi2kUILfdH2J1-44" value="" style="shape=image;imageAspect=0;aspect=fixed;verticalLabelPosition=bottom;verticalAlign=top;image=https://seeklogo.com/images/C/cloudflare-logo-6B7D159387-seeklogo.com.png;" vertex="1" parent="1">
          <mxGeometry x="290" y="100" width="88.24" height="40" as="geometry" />
        </mxCell>
        <mxCell id="3VA5LR1hi2kUILfdH2J1-55" value="DNS" style="text;html=1;align=center;verticalAlign=middle;resizable=0;points=[];autosize=1;strokeColor=none;fillColor=none;" vertex="1" parent="1">
          <mxGeometry x="309.12" y="150" width="50" height="30" as="geometry" />
        </mxCell>
        <mxCell id="3VA5LR1hi2kUILfdH2J1-56" value="Docker Image" style="text;html=1;align=center;verticalAlign=middle;resizable=0;points=[];autosize=1;strokeColor=none;fillColor=none;" vertex="1" parent="1">
          <mxGeometry x="310" y="353.5" width="100" height="30" as="geometry" />
        </mxCell>
        <mxCell id="3VA5LR1hi2kUILfdH2J1-57" value="Continuous Integration" style="text;html=1;align=center;verticalAlign=middle;resizable=0;points=[];autosize=1;strokeColor=none;fillColor=none;" vertex="1" parent="1">
          <mxGeometry x="106" y="370" width="140" height="30" as="geometry" />
        </mxCell>
        <mxCell id="3VA5LR1hi2kUILfdH2J1-58" value="Email Service" style="text;html=1;align=center;verticalAlign=middle;resizable=0;points=[];autosize=1;strokeColor=none;fillColor=none;" vertex="1" parent="1">
          <mxGeometry x="122" y="550" width="100" height="30" as="geometry" />
        </mxCell>
        <mxCell id="3VA5LR1hi2kUILfdH2J1-59" style="edgeStyle=orthogonalEdgeStyle;rounded=1;orthogonalLoop=1;jettySize=auto;html=1;exitX=1;exitY=0.92;exitDx=0;exitDy=0;exitPerimeter=0;entryX=1.013;entryY=0.533;entryDx=0;entryDy=0;entryPerimeter=0;fillColor=#d5e8d4;strokeColor=#82b366;" edge="1" parent="1" source="3VA5LR1hi2kUILfdH2J1-3" target="ZAxf61MUc5lf0A0-14Nk-4">
          <mxGeometry relative="1" as="geometry">
            <mxPoint x="1120" y="780" as="targetPoint" />
            <Array as="points">
              <mxPoint x="1140" y="567" />
              <mxPoint x="1140" y="740" />
              <mxPoint x="380" y="740" />
              <mxPoint x="380" y="527" />
            </Array>
          </mxGeometry>
        </mxCell>
        <mxCell id="3VA5LR1hi2kUILfdH2J1-60" style="edgeStyle=orthogonalEdgeStyle;rounded=1;orthogonalLoop=1;jettySize=auto;html=1;exitX=1;exitY=0.75;exitDx=0;exitDy=0;exitPerimeter=0;entryX=1.013;entryY=0.533;entryDx=0;entryDy=0;entryPerimeter=0;fillColor=#d5e8d4;strokeColor=#82b366;" edge="1" parent="1" source="3VA5LR1hi2kUILfdH2J1-4" target="ZAxf61MUc5lf0A0-14Nk-4">
          <mxGeometry relative="1" as="geometry">
            <Array as="points">
              <mxPoint x="1140" y="673" />
              <mxPoint x="1140" y="740" />
              <mxPoint x="380" y="740" />
              <mxPoint x="380" y="527" />
            </Array>
          </mxGeometry>
        </mxCell>
        <mxCell id="3VA5LR1hi2kUILfdH2J1-62" value="" style="shape=image;imageAspect=0;aspect=fixed;verticalLabelPosition=bottom;verticalAlign=top;image=data:image/png,iVBORw0KGgoAAAANSUhEUgAABUIAAAS0CAYAAAClh3K9AAAMPWlDQ1BJQ0MgUHJvZmlsZQAASImVVwdYU8kWnltSIbRABKSE3gSRXqSE0AIISBVshCRAKCEGgoodXVRwLaiIgA1dFVF0LYDYEbuLYO+LBQVlXdTFrrxJAV32le/N982d//5z5j9nzswtA4D6Sa5YnI1qAJAjypfEhAQwJyQlM0nPABkwAB1gwIrLyxOzoqMjACyD7d/Lu5sAkbXX7GVa/+z/r0WTL8jjAYBEQ5zKz+PlQHwQALyaJ5bkA0CU8WbT88UyDCvQlsAAIV4iw+kKXC3DqQq8T24TF8OGuBUAsiqXK0kHQK0d8swCXjrUUOuD2FHEF4oAUGdC7JuTk8uHOAVia2gjhlim75H6g0763zRThzS53PQhrJiLvJADhXnibO7M/zMd/7vkZEsHfVjCqpohCY2RzRnm7XZWbrgMq0LcK0qNjIJYC+IPQr7cHmKUmiENjVfYowa8PDbMGVxpgDryuYHhEBtAHCzKjoxQ8qlpwmAOxHCHoDOE+Zw4iHUhXiLIC4pV2myW5MYofaENaRI2S8mf50rkfmW+Hkqz4llK/TcZAo5SH1MrzIhLhJgKsXmBMCESYjWIHfKyYsOVNmMLM9iRgzYSaYwsfnOIYwSikACFPlaQJgmOUdqX5OQNzhfbnCHkRCrx/vyMuFBFfrBWHlceP5wL1i4QseIHdQR5EyIG58IXBAYp5o51C0TxsUqdD+L8gBjFWJwqzo5W2uOmguwQGW8KsUteQaxyLJ6QDzekQh9PE+dHxynixAszuWHRinjwlSACsEEgYAIprKkgF2QCYVtvYy+8U/QEAy6QgHQgAPZKZnBEorxHBK+xoBD8AZEA5A2NC5D3CkAB5L8OsYqrPUiT9xbIR2SBZxDngHCQDe+l8lGiIW8J4ClkhP/wzoWVB+PNhlXW/+/5QfY7w4JMhJKRDnpkqg9aEoOIgcRQYjDRBtfHfXFvPAJe/WF1wj1wz8F5fLcnPCN0EB4TbhA6CXemCoskw6IcBzqhfrAyF6k/5gK3hJqueADuA9WhMs7A9YE97gL9sHA/6NkVsmxl3LKsMIdp/20GP6yG0o7iSEEpIyj+FOvhI9Vs1VyHVGS5/jE/ilhTh/LNHuoZ7p/9Q/b5sA0fboktwQ5g57BT2AXsKNYImNgJrAm7jB2T4aHd9VS+uwa9xcjjyYI6wn/4G1xZWSbzHOscexy/KPryBTNk72jAzhXPlAjTM/KZLPhFEDA5Ip7DKKaTo5MTALLvi+L19ZYh/24gjIvfuYWHAPA5PjAwcOQ7F74SgANW8PFv/85ZrYLv6JEAnN/Ck0oKFBwuuxDgW0IdPml6wAiYAWs4HyfgBryBPwgCYSAKxIEkMAVGnwH3uQRMB7PBAlAMSsFKsBZUgk1gK9gJ9oD9oBEcBafAWXAJtIMb4B7cPV3gJegD78BnBEFICA2hI3qIMWKB2CFOiAfiiwQhEUgMkoSkIOmICJEis5GFSClShlQiW5Ba5FfkMHIKuYB0IHeQR0gP8gb5hGKoKqqNGqKW6GjUA2Wh4WgcOhlNR6ehhegidDlagdagu9EG9BR6Cb2BdqIv0X4MYCoYAzPB7DEPjI1FYclYGibB5mIlWDlWg9VjzXCdr2GdWC/2ESfidJyJ28MdHIrH4zx8Gj4XX4ZX4jvxBrwVv4Y/wvvwbwQawYBgR/AicAgTCOmE6YRiQjlhO+EQ4Qx8lroI74hEIoNoRXSHz2ISMZM4i7iMuIG4l3iS2EF8QuwnkUh6JDuSDymKxCXlk4pJ60m7SSdIV0ldpA9kFbIx2YkcTE4mi8hF5HLyLvJx8lXyc/JnigbFguJFiaLwKTMpKyjbKM2UK5QuymeqJtWK6kONo2ZSF1ArqPXUM9T71LcqKiqmKp4q41WEKvNVKlT2qZxXeaTyUVVL1VaVrTpJVaq6XHWH6knVO6pvaTSaJc2flkzLpy2n1dJO0x7SPqjR1RzUOGp8tXlqVWoNalfVXqlT1C3UWepT1AvVy9UPqF9R79WgaFhqsDW4GnM1qjQOa9zS6Neka47RjNLM0VymuUvzgma3FknLUitIi6+1SGur1mmtJ3SMbkZn03n0hfRt9DP0Lm2itpU2RztTu1R7j3abdp+Olo6LToLODJ0qnWM6nQyMYcngMLIZKxj7GTcZn0YYjmCNEIxYOqJ+xNUR73VH6vrrCnRLdPfq3tD9pMfUC9LL0lul16j3QB/Xt9Ufrz9df6P+Gf3ekdojvUfyRpaM3D/yrgFqYGsQYzDLYKvBZYN+QyPDEEOx4XrD04a9Rgwjf6NMozVGx416jOnGvsZC4zXGJ4xfMHWYLGY2s4LZyuwzMTAJNZGabDFpM/lsamUab1pkutf0gRnVzMMszWyNWYtZn7mx+Tjz2eZ15nctKBYeFhkW6yzOWby3tLJMtFxs2WjZbaVrxbEqtKqzum9Ns/aznmZdY33dhmjjYZNls8Gm3Ra1dbXNsK2yvWKH2rnZCe022HWMIozyHCUaVTPqlr2qPcu+wL7O/pEDwyHCocih0eHVaPPRyaNXjT43+pujq2O24zbHe2O0xoSNKRrTPOaNk60Tz6nK6bozzTnYeZ5zk/NrFzsXgctGl9uudNdxrotdW1y/urm7Sdzq3Xrczd1T3Kvdb3loe0R7LPM470nwDPCc53nU86OXm1e+136vP73tvbO8d3l3j7UaKxi7bewTH1Mfrs8Wn05fpm+K72bfTj8TP65fjd9jfzN/vv92/+csG1YmazfrVYBjgCTgUMB7thd7DvtkIBYYElgS2BakFRQfVBn0MNg0OD24LrgvxDVkVsjJUEJoeOiq0FscQw6PU8vpC3MPmxPWGq4aHhteGf44wjZCEtE8Dh0XNm71uPuRFpGiyMYoEMWJWh31INoqelr0kfHE8dHjq8Y/ixkTMzvmXCw9dmrsrth3cQFxK+LuxVvHS+NbEtQTJiXUJrxPDEwsS+ycMHrCnAmXkvSThElNyaTkhOTtyf0Tgyaundg1yXVS8aSbk60mz5h8YYr+lOwpx6aqT+VOPZBCSElM2ZXyhRvFreH2p3JSq1P7eGzeOt5Lvj9/Db9H4CMoEzxP80krS+tO90lfnd6T4ZdRntErZAsrha8zQzM3Zb7PisrakTWQnZi9N4eck5JzWKQlyhK15hrlzsjtENuJi8Wd07ymrZ3WJwmXbM9D8ibnNeVrwx/5y1Jr6U/SRwW+BVUFH6YnTD8wQ3OGaMblmbYzl858Xhhc+MssfBZvVstsk9kLZj+aw5qzZS4yN3VuyzyzeYvmdc0Pmb9zAXVB1oLfihyLyor+Wpi4sHmR4aL5i578FPJTXbFasaT41mLvxZuW4EuES9qWOi9dv/RbCb/kYqljaXnpl2W8ZRd/HvNzxc8Dy9OWt61wW7FxJXGlaOXNVX6rdpZplhWWPVk9bnXDGuaakjV/rZ269kK5S/mmddR10nWdFREVTevN169c/6Uyo/JGVUDV3mqD6qXV7zfwN1zd6L+xfpPhptJNnzYLN9/eErKlocaypnwrcWvB1mfbErad+8Xjl9rt+ttLt3/dIdrRuTNmZ2ute23tLoNdK+rQOmldz+5Ju9v3BO5pqrev37KXsbd0H9gn3ffi15Rfb+4P399ywONA/UGLg9WH6IdKGpCGmQ19jRmNnU1JTR2Hww63NHs3HzricGTHUZOjVcd0jq04Tj2+6PjAicIT/SfFJ3tPpZ960jK15d7pCaevt45vbTsTfub82eCzp8+xzp0473P+6AWvC4cvelxsvOR2qeGy6+VDv7n+dqjNra3hivuVpnbP9uaOsR3Hr/pdPXUt8NrZ65zrl25E3ui4GX/z9q1Jtzpv829338m+8/puwd3P9+bfJ9wveaDxoPyhwcOa321+39vp1nnsUeCjy49jH997wnvy8mne0y9di57RnpU/N35e2+3UfbQnuKf9xcQXXS/FLz/3Fv+h+Uf1K+tXB//0//Ny34S+rteS1wNvlr3Ve7vjL5e/Wvqj+x++y3n3+X3JB70POz96fDz3KfHT88/Tv5C+VHy1+dr8Lfzb/YGcgQExV8KV/wpgsKJpaQC82QEALQkAOjyfUScqzn/ygijOrHIE/hNWnBHlxQ2AetjIfuPZJwHYB6ulv/yoAmS/8HH+AHV2HqqDZzX5uVJWiPAcsDlQhu6sTuwGw4rizPlD3MNbIFN1AcPbfwHhrnsSHZmMKgAAAIplWElmTU0AKgAAAAgABAEaAAUAAAABAAAAPgEbAAUAAAABAAAARgEoAAMAAAABAAIAAIdpAAQAAAABAAAATgAAAAAAAACQAAAAAQAAAJAAAAABAAOShgAHAAAAEgAAAHigAgAEAAAAAQAABUKgAwAEAAAAAQAABLQAAAAAQVNDSUkAAABTY3JlZW5zaG90scLtdAAAAAlwSFlzAAAWJQAAFiUBSVIk8AAAAdhpVFh0WE1MOmNvbS5hZG9iZS54bXAAAAAAADx4OnhtcG1ldGEgeG1sbnM6eD0iYWRvYmU6bnM6bWV0YS8iIHg6eG1wdGs9IlhNUCBDb3JlIDYuMC4wIj4KICAgPHJkZjpSREYgeG1sbnM6cmRmPSJodHRwOi8vd3d3LnczLm9yZy8xOTk5LzAyLzIyLXJkZi1zeW50YXgtbnMjIj4KICAgICAgPHJkZjpEZXNjcmlwdGlvbiByZGY6YWJvdXQ9IiIKICAgICAgICAgICAgeG1sbnM6ZXhpZj0iaHR0cDovL25zLmFkb2JlLmNvbS9leGlmLzEuMC8iPgogICAgICAgICA8ZXhpZjpQaXhlbFlEaW1lbnNpb24+MTIwNDwvZXhpZjpQaXhlbFlEaW1lbnNpb24+CiAgICAgICAgIDxleGlmOlBpeGVsWERpbWVuc2lvbj4xMzQ2PC9leGlmOlBpeGVsWERpbWVuc2lvbj4KICAgICAgICAgPGV4aWY6VXNlckNvbW1lbnQ+U2NyZWVuc2hvdDwvZXhpZjpVc2VyQ29tbWVudD4KICAgICAgPC9yZGY6RGVzY3JpcHRpb24+CiAgIDwvcmRmOlJERj4KPC94OnhtcG1ldGE+CmXOCwUAAAAcaURPVAAAAAIAAAAAAAACWgAAACgAAAJaAAACWgAAwyE2vgYhAABAAElEQVR4AezdCbQtWVkn+EAmk0EhZR4KRJGkUREURyyhHUptRQRZ5YSirWAp3ZYtCmnThS6pwqG12qEK09ISxO5q0SRTBNfScqBA0QYBqQY1lUZUkrnMhNTMVBLpt2+yIfK8ExH7i9gR50ScX6z1Ms6NE2fvb//2jnPi/vO+d2/2/nNbYyNAgAABAgQIECBAgAABAgQIECBAgMCGBW4mCN3w7BoaAQIECBAgQIAAAQIECBAgQIAAAQJnAoJQC4EAAQIECBAgQIAAAQIECBAgQIAAgc0LCEI3P8UGSIAAAQIECBAgQIAAAQIECBAgQICAINQaIECAAAECBAgQIECAAAECBAgQIEBg8wKC0M1PsQESIECAAAECBAgQIECAAAECBAgQICAItQYIECBAgAABAgQIECBAgAABAgQIENi8gCB081NsgAQIECBAgAABAgQIECBAgAABAgQICEKtAQIECBAgQIAAAQIECBAgQIAAAQIENi8gCN38FBsgAQIECBAgQIAAAQIECBAgQIAAAQKCUGuAAAECBAgQIECAAAECBAgQIECAAIHNCwhCNz/FBkiAAAECBAgQIECAAAECBAgQIECAgCDUGiBAgAABAgQIECBAgAABAgQIECBAYPMCgtDNT7EBEiBAgAABAgQIECBAgAABAgQIECAgCLUGCBAgQIAAAQIECBAgQIAAAQIECBDYvIAgdPNTbIAECBAgQIAAAQIECBAgQIAAAQIECAhCrQECBAgQIECAAAECBAgQIECAAAECBDYvsEgQesMNNzSvf/3rm6uuuqq5+tyfq66++uxx+jr9ueaaazYPbYAECBAgQIAAAQIECBAgQIAAAQIEjlXgggsuaC688MIP/rnDHe7Q5D/3ve99z44fa+2ldc0ahL7rXe9qXv7yl5/9eetb31pak/MIECBAgAABAgQIECBAgAABAgQIEDgSgdve9rbNZ37mZ579ud/97nckVcXLmCUIfcMb3vDBAPS6666LV+UVBAgQIECAAAECBAgQIECAAAECBAgcncDDHvaws0D0oQ996NHVNlRQ1SA0BaC/9mu/1rzqVa8a6tfzBAgQIECAAAECBAgQIECAAAECBAisVOD+979/84hHPKJ5+MMfvpoRVAtCX/aylzXPec5zmvTvgdoIECBAgAABAgQIECBAgAABAgQIENi+wCMf+cjmCU94wioGWiUIff7zn9+8+MUvXsWAFUmAAAECBAgQIECAAAECBAgQIECAQD2Be93rXs2/+Bf/okn7Y94mBaHplyE961nPatLeRoAAAQIECBAgQIAAAQIECBAgQIDA6Qp83dd9XfO5n/u5RwswOgj97d/+7ea5z33u0Q5MYQQIECBAgAABAgQIECBAgAABAgQILCvwaZ/2ac23fuu3LttpYW+jgtA/+IM/aJ797GcXduE0AgQIECBAgAABAgQIECBAgAABAgROReALv/ALm6/6qq86uuGGg9C3ve1tzVOf+tSjG4iCCBAgQIAAAQIECBAgQIAAAQIECBA4DoHv+q7vaj7+4z/+OIr5QBXhIPQpT3lK8853vnPyIG51q1s1d7/73Zt73vOezV3vcpfJ7WmAAAECBAgQIECAAAECBAgQIECAAIFxAu+55prmyiuvPPtzzbnHNbYf+qEfau5617vWaKpKG6Eg9N/9u3/XvOIVrxjd8f3ud7/mYQ97WPOgBz3o7LdI3fzmNx/dlhcSIECAAAECBAgQIECAAAECBAgQIFBf4O1vf3vz53/+52c54Gtf+9rRHXzcx31c87SnPa05lgywOAh98Ytf3Dz/+c8fNfCHP/zhzad+6qc2D37wg0e93osIECBAgAABAgQIECBAgAABAgQIEFhe4I1vfGPzyle+svmN3/iN5oYbbggX8MhHPrJ5whOeEH7dHC8oCkLf8pa3NBdffPGo/p/85Cef/RToqBd7EQECBAgQIECAAAECBAgQIECAAAECBxd43ete1zz3Oc9p3jHin8z85m/+5ib9oOSht6Ig9IUvfGFz6aWXhmq9293udhae3uEOdwi9zskECBAgQIAAAQIECBAgQIAAAQIECBynwL/5N/+mueKKK0LFPeQhD2n+5b/8l6HXzHFyURD6r/7Vv2r+8i//srj/O93pTs2P/MiPFJ/vRAIECBAgQIAAAQIECBAgQIAAAQIE1iGQ/vnM9M9oRrZnPvOZzb3vfe/IS6qfOxiEpn8Q9Ud/9EeLO77FLW7RPPvZz27Sb4W3ESBAgAABAgQIECBAgAABAgQIECCwPYEf+7Efa1796lcXD+zRj3508+Vf/uXF589x4mAQ+rM/+7PNS1/60uK+j+Xv/BcX7EQCBAgQIECAAAECBAgQIECAAAECBEIC119/ffO93/u9zVvf+tai193rXvdq/vW//tdF5851Um8QevXVV5/9O5/XXnttUf+Pe9zjmi/5ki8pOtdJBAgQIECAAAECBAgQIECAAAECBAisV+CP//iPmx/8wR8sHkD6d0LTvxd6qK03CP3N3/zN5nnPe15RbenfBf2BH/iB5pa3vGXR+U4iQIAAAQIECBAgQIAAAQIECBAgQGDdAj/+4z/evOpVryoaRPrN8elvkx9q6w1Cn/Oc5zS/8zu/U1Tbl5/7e/6PPvDf8y8q1EkECBAgQIAAAQIECBAgQIAAAQIECFQR+P3f//3mp37qp4rausc97tE861nPKjp3jpN6g9Af/uEfbl73utcV9Zt+DPZud7tb0blOIkCAAAECBAgQIECAAAECBAgQIEBgGwLpr7xfddVVg4NJv2T9kksuadL+EFtvEPqUpzyleec73zlY10UXXXT2b4kOnugEAgQIECBAgAABAgQIECBAgAABAgQ2JXD55Zc3l112WdGY0k+Epp8MPcTWGYSm3/z0pCc9qaimz/qsz2qe+MQnFp3rJAIECBAgQIAAAQIECBAgQIAAAQIEtiPw0pe+tPnZn/3ZogEd8hcmdQahf/3Xf908/elPLxrAox71qOaxj31s0blOIkCAAAECBAgQIECAAAECBAgQIEBgOwKvf/3rmx/6oR8qGtBXf/VXN//sn/2zonNrn9QZhKbf9pR+61PJ9g3f8A3NIx7xiJJTnUOAAAECBAgQIECAAAECBAgQIECAwIYE3va2tzVPfepTi0b0eZ/3ec3jH//4onNrn9QZhL74xS9unv/85xf1l/4t0U/4hE8oOtdJBAgQIECAAAECBAgQIECAAAECBAhsR+C9731v803f9E1FA/rET/zE5ju/8zuLzq19UmcQGvlHTi+++OIm/cIkGwECBAgQIECAAAECBAgQIECAAAECpyfw9V//9UWDPuQvXReEFk2RkwgQIECAAAECBAgQIECAAAECBAgQ6BIQhHbJOE6AAAECBAgQIECAAAECBAgQIECAwGYEBKGbmUoDIUCAAAECBAgQIECAAAECBAgQIECgS0AQ2iXjOAECBAgQIECAAAECBAgQIECAAAECmxEQhG5mKg2EAAECBAgQIECAAAECBAgQIECAAIEuAUFol4zjBAgQIECAAAECBAgQIECAAAECBAhsRkAQupmpNBACBAgQIECAAAECBAgQIECAAAECBLoEBKFdMo4TIECAAAECBAgQIECAAAECBAgQILAZAUHoZqbSQAgQIECAAAECBAgQIECAAAECBAgQ6BIQhHbJOE6AAAECBAgQIECAAAECBAgQIECAwGYEBKGbmUoDIUCAAAECBAgQIECAAAECBAgQIECgS0AQ2iXjOAECBAgQIECAAAECBAgQIECAAAECmxEQhG5mKg2EAAECBAgQIECAAAECBAgQIECAAIEuAUFol4zjBAgQIECAAAECBAgQIECAAAECBAhsRkAQupmpNBACBAgQIECAAAECBAgQIECAAAECBLoEBKFdMo4TIECAAAECBAgQIECAAAECBAgQILAZAUHoZqbSQAgQIECAAAECBAgQIECAAAECBAgQ6BIQhHbJOE6AAAECBAgQIECAAAECBAgQIECAwGYEBKGbmUoDIUCAAAECBAgQIECAAAECBAgQIECgS0AQ2iXjOAECBAgQIECAAAECBAgQIECAAAECmxEQhG5mKg2EAAECBAgQIECAAAECBAgQIECAAIEuAUFol4zjBAgQIECAAAECBAgQIECAAAECBAhsRkAQupmpNBACBAgQIECAAAECBAgQIECAAAECBLoEBKFdMo4TIECAAAECBAgQIECAAAECBAgQILAZAUHoZqbSQAgQIECAAAECBAgQIECAAAECBAgQ6BIQhHbJOE6AAAECBAgQIECAAAECBAgQIECAwGYEBKGbmUoDIUCAAAECBAgQIECAAAECBAgQIECgS0AQ2iXjOAECBAgQIECAAAECBAgQIECAAAECmxEQhG5mKg2EAAECBAgQIECAAAECBAgQIECAAIEuAUFol4zjBAgQIECAAAECBAgQIECAAAECBAhsRkAQupmpNBACBAgQIECAAAECBAgQIECAAAECBLoEBKFdMo4TIECAAAECBAgQIECAAAECBAgQILAZAUHoZqbSQAgQIECAAAECBAgQIECAAAECBAgQ6BIQhHbJOE6AAAECBAgQIECAAAECBAgQIECAwGYEBKGbmUoDIUCAAAECBAgQIECAAAECBAgQIECgS0AQ2iXjOAECBAgQIECAAAECBAgQIECAAAECmxEQhG5mKg2EAAECBAgQIECAAAECBAgQIECAAIEuAUFol4zjBAgQIECAAAECBAgQIECAAAECBAhsRkAQupmpNBACBAgQIECAAAECBAgQIECAAAECBLoEBKFdMo4TIECAAAECBAgQIECAAAECBAgQILAZAUHoZqbSQAgQIECAAAECBAgQIECAAAECBAgQ6BIQhHbJOE6AAAECBAgQIECAAAECBAgQIECAwGYEBKGbmUoDIUCAAAECBAgQIECAAAECBAgQIECgS0AQ2iXjOAECBAgQIECAAAECBAgQIECAAAECmxEQhG5mKg2EAAECBAgQIECAAAECBAgQIECAAIEuAUFol4zjBAgQIECAAAECBAgQIECAAAECBAhsRkAQupmpNBACBAgQIECAAAECBAgQIECAAAECBLoEBKFdMo4TIECAAAECBAgQIECAAAECBAgQILAZAUHoZqbSQAgQIECAAAECBAgQIECAAAECBAgQ6BIQhHbJOE6AAAECBAhsQuCnf/qnm/SnZLvkkkuaT/7kTy451TkECBxI4Od//uebn/mZnynq/Su/8iubb/3Wby0610kECByvwKte9armSU96UlGB6XM8fZ7bCBAgsE9AELpPxTECBAgQIEBgMwKC0M1MpYEQOBNIQeiP//iPF2l84zd+oyC0SMpJBI5bQBB63POjOgJrEhCErmm21ErgSAXSjUna0j4/3ldq+6esnvjEJ+47xTECBAhUFxCEVifVYIFA/jyMfDamz8n2Z2VBNyd5iiD0JKd90qDHXI/uVSeRV39xmkM/EVqdVYMETlJAEHqS027QBKYLpJuRFC7kG8uxLeabzLwf247XESBAoEtAENol43htgfzZmNqd8vmYA1GfjftnSBC638XRmwrUuh7zdZj3N+3FV0sJpPkUhC6lrR8C2xYQhG57fo2OQFWBfEM55Zu7voLyDWbe953rOQIECJQKCEJLpZw3RiB9Jrb/jGmj7zVC0fN1BKHnmzhyo4B71e2uhDS3gtDtzq+REVhSQBC6pLa+CKxUYO6byl2WHITm/e7zviZAYLsC6f2maxv7V4YFoV2ijk8ViKytqX2l16fPRZ+NTSMIrbGattXG0veqrsfl148gdHlzPRLYqoAgdKsza1wEKgmk//PaF0xU6qazGd/0ddJ4gsDmBPq+yUkh6NjfABsJq/zW+M0tq1kGFFlTcxRw6p+NgtA5VtV623Q9rnfuIpX33SPstjPlnmG3LV8TILA9AUHo9ubUiAhUEYjcbFTpsKeRU/+Gr4fGUwQ2JdD3P16mfFMT+SZZELqpJTXLYPrW6SwddjR6yp+NgtCORXFih9O9anp/T/tDb6d8PS5lH/neZMo9w1Lj0Q8BAocTEIQezl7PBI5WIBIaLDUIN5hLSeuHwOEEPuVTPqWz8ynf1ES+SU792AjsEzim0KVd3ymG94LQ9go4zceRUGwpoSmfU0vVuOZ+InNuLtY802onML+AIHR+Yz0QWJXAMYagGVAYmiXsCWxPYOgbHN/UbG/O1zSiofV56LH84R/+4aFLWLR/Qeii3EfX2THfq/qsmm+5RN6HzcN886BlAlsQEIRuYRaNgUAlgWO+scxDFIZmCXsC2xIY+uvGvqnZ1nyvaTSRb74PNa5Tuz4EoYdaaYfv173q4efgUBVE3otP7T3xUHOiXwJrFRCErnXm1E2gssDUG8t0w5G2FFTmLR9LNy7pT95SX1O2U/xrgFO8vJbAGgT6/lp8qt83NWuYxe3VGPnGu2v0ae22PxvTeelY/lxs7/Pjrrb6jp/S/ygUhPathO0+N/VeNcnsXo/p67Tla6+9z4/PTgj+x71qEKzg9DQf6X+almxpXtMc2AgQILBPQBC6T8UxAicmELmx2KXJN5T5RnL3+a6vcxia913n7Tvu5mafimME1itQ8h7kul/v/K658qGfVO4a29jPxtTelLDnVMIXQWjXytv28aH/YdY1+rHXY75Hzfuu9vcd95m1T2XasZJ7hdwD/yxhT4DAPgFB6D4VxwicmMCYG8uxN5W7tOnmMt3YpD+R7VS+2YuYOJfAWgVKwibf1Kx1dtdb99hAstZPZo7p/1SuE0Hoeq+rsZWPvR7S9Ziui6lbyefUbh+13gt22z3VrwWhpzrzxk2gvoAgtL6pFgmsSmDMjeUcN3bRG8wlv9lrh7Q1bqaPaYHksa11XMdef64vzflajZdYryX/M2bJa36JMbf7yOtka2tkzeMa89mY5rT2/6QbU0ftGtprdffxoeb42IPQQ7nszs/Ur/M4UjuHfH8acx3M8ZkRvVdNbkv9IrNjmas05pIt1xtZV+k1aQ5Ktjnmv6vfPJb0fGQ8Xe3Ncbxd4277x1rzbp2+JlBTQBBaU1NbBFYoUBJAtIc1541F9Aaz9jd76Sah/ac97q7HKRROW953nTf2eN+NS7vNkpuY9I1E2vIY26/Pj1M7eSwlbebXde1r1p/aao9hX5+p5vYY9p0zx7E8zlRfftzXz6Hq3K0p15pd0/P5WHqc10De57WRnhuztdvOr0/H2v3n47v7knnNde6+Nn29r+995/W1se/80mO5/zzW/HXf61Mt7T995455rqSG1G6JSWpraGztsZS0OWZMtV6TxpLHU9pm7c+k3G+0lmSbaqm15XWSPfLXfe3PPdfHEIRmh2NySXOS6+qbn/Rc1zWYxpPa2G0nz+nUz4GhuvY9f0z3qtHrsfb7Qp6XPE/7vHaP5TnLc7j7/BJfp7qHrpVcX653t67UxiGD0Kj90Hh2x1fr63adqc38dV/7udZ0Tpd/3+s9R2BtAoLQtc2YeglUFIjezKWu5/4/25Gb3fShPfWbvXRzELmZHOJPNw81byBKPfputMfMcxpnjbGU1t/X19g56mtzaB5Lnx9r224/r5e8bz831+O85ktujndryHXm/e7zXV+nvkq/gelqo+94qqerpsg89V1Lff13PTfFerfNvjHunlvyden/fOp7rz3m67PEYN85kfWSX197bnK7eV86V/n8Gp/Vtdduqq3rGs11l+4PGYSOXfP7xpY98n7fOZFjpWt33zVdMq59r4vUN+bc0jG1266x/tvt7T6OXI81zErmZrfGvq/nfr/KfU+pe1+Nqb3S+4ga7nkcNd4LUz3pT61rPdfW3k/xbreTHi9R726fviawpIAgdEltfRE4MoHSkCqXve+mJD9Xa196wzv1A7rmzcK+sdeyKp2jff2VWu6rv31sSjA0pf5aczSl/rZD+3Et23ab++aw/fzUx7U823VEak79l34D0+6j9HFfLZH5qrVeIn2WjjGf1zfWfE7JvvSb+fR+m1x2t9LX776u/XWtsbTbnPo4OndLjKH0+klzlbZ981XqEh1/abvpvGTV3p99MeI/hwhC53gPzUOv5VI6d7vXdGR9TVlbebyRfel9RG5zS9fjnGsuec1pVboW87zt249dp6mt3dfua3/oWI0x7PYxh/ma18muj68JLCUgCF1KWj8Ejkwg+uE+xwd3F8m+m978zV2qIz/uev3Q8ejYh9rre36q2z6Lff3t9lP6Tc2+tvYdGxsOrb3+XYu5bzZTf7tzuVvDmK/nXPOl9dZek7sOfXVExj92red65h5n7ift+8bcPq/rcWmQue8bytLXdvXdPj51HO22ajwufd/Kfc3902e5ny7zND/JMG1TPh/XtHaXDEKXeN/Pczz1Woi817XXbema3/dekGufYx8ZT+6/Pa58bI79vusxX39pHvPjsX2PGfvYvqauu91+99nsnlP69e6aW2qt1hzDvrHWMl9qndSqd5+FYwQOISAIPYS6PgkcgUD0A37JD8D0oZ6+8Uhb6nfqzWSbe6kbhnafU+xKb/jafczxzezujWh7fH2P115/e2xzuLbbbz+eGsbltpb6Br5kfczt174G8vjzPnLdT7GP9JNrm7rvG/dQ26WfA7vzW/q6of7bz09xb7cz9XF0Dqf4R2vN11Caj9Rv2tLjGlt03DX6nGK3VBCazWuMt7SN3eut9HXpvMg85sAwcj1PqS0yjnxuZDzpNVPWVO6zdJ/XhuvxpmKR9XTTV3Z/1V53pfeV7dd0t3z+M3lez3+m/pGp6zV6fdQYwbF8VtcYizZOW0AQetrzb/QnLFB6I5GJ8g1z/nqN+zluzkodxt7slM5Tbn/OG7jcR+mY03nR+iOvidSRzh1Tf+5jTtfcx+5+6s3m0jUPfdMxdz198xv5ZmGse6SP3bme+vWQfVf7pe+J7fbnGme7j656lzgeHV/fului3hp9RMdco8/cxth5XyIIPaRL8hlz3xWpObUffV8eO195vqP70nuI3O4Ys/zaY9lH5rB2zVPfz+asPa+90jWRz48YRa+HSNtd567xnmNszV0GjhM4hIAg9BDq+iRwYIHojcrUG6MDD/es++iY56h5zI1D6Q1fnqPSYGPs+KLfZETrn3uexsxBsiodx65ruhFPN9Zjt6h37ucQN/Op775vPOauKV8D2aC9j6yrMWsk0n67rpqP+8bf1U/p+0We17nHOca+a2xjj0ev9bHX6Nj6ar9u7jktqTevr5Jz8zlzB6Fzv1/lcfTtx7hE5jOt3dL3gFznmJrya6P76ByMeQ+M1jT3+ZH5m6uWsY5L1J5qS/2UbGPWavR6yHWkvtJ6HbtFP/ui10a7rlRr3sbWPMY292lP4FgEBKHHMhPqILCgQPRmJfoBveBQirqKjjc3mj7o8598LN80lN6I5dflfdSy9JvydHOYak03cXNu0Rvk0vrzTVXp+WPHGK0/9RNdP2ksqZ+0pcftLdrWmHpTf2Mc23XndZ72+XF7HH2Pu2pO7cy5Prv6TbVG3KPX6JRxJfP8J9WZrdM+P07HS7c+g31tlH7Tl2pMLmPW1b5+u47lfrqen/t4dC6j3nPXP6b9sXOa123ap629Xsd8PkYt5w5C1+oSea9LQWh0nEteo5GxpDUYXUPpNce0Rceba8/XYBp/3vL1mPb5cX6uZB/9HExtRtdSriPVv6/2Me8juc20j67VqH+77jwHuf8xbSXz0i3afvJNNe7WmftL7UXXytqvtzx2+9MVEISe7twb+QkLlH7zm4nW/BMv6YM9Gr7km5uuG4bsEr0RSa9LbUZudkpvLHOtuze8XTc/6bx845PHU7Kfq/7Ud6o11dTeUn95DO3jufbd8bbP6XocWc/ROS69MYxcg9FvSGrXHG0vuUdqjqzxyLXTnv/IGCK1pz4ic5lrKu0jUne07Wjt6Vrcvd76rs/Ufqo/upXaRNstOT/qXXq9l/R9iHPGrN3SMUct0/gjcz9nEDqm9mNxidSeak7n923pGk9bvvbT12meltgiY0n1RNbPEvVH+yj9LMztdr3/5ufzPjmm+ctzmI8P7ee8V0p9l1wz0TXQHlNkrUb7KW078h4bWb+la6W0zuwWdYiskdyHPYFjERCEHstMqIPAggKRD+ZU1po/6KIf6iU3ZrtTFfWc42Znt6bScUR9ouuh9GZtt/7IDX4aQ2SL+Ed8Ss1zraXrJnIjG6k31RGpubTe1G6k5tI1Emkz1dDeIi5zrY9Uz5gxRGqP9hGZ07ZnGkdaO2nft0VrT21F/Pv6HvNctN5D1jpmfO3XRMdaOudT+0imJdtcQWjUJdUaXQfRPiLvG9G291l3fS7kIG3out/X5phj0fenU7pXjayJbB9dG5F1Xfo5nmvpWmP5+fY+Wnd+bcQo0kek9lRL6TourTdS65hrIl3nqeaSLbJGStpzDoElBQShS2rri8CRCERuWEo/mI9kaOeVERlr9OYmdxa5aUiviZhG6s/1RNpPr4ncVKXzI05L1F96k5lqT1vkxi1S/5gbztLaS9uO1BuZx+QWXeelzqU1R9d1qjlvkTVeWndqu7T2XEfpPObz8750neTzS/uJthttP50fsU/nT5nn9PopW7TWUucpNc312uhYI9dFu+boGivt51iC0NJ62ybp8Vz+0XbbdUU/E9qvneNxdO2s+XqMfJZMeY+MmJb2E11zY9ZZtI+0HkvrT+dG/Mess1L3kveTUosxzskibaX3e1P6uLEn/yVwOAFB6OHs9UzgYAKRD/w1f8iV3izkiRhzc5NfW3rTkM8vudlJ50bmKrc9ZhyRfiJrItJurr/UJp+f9pF+Sm+OI+snYtKuu3TdlJhE6k01jKm5tN7UfknN6bzSuSudt9Tm7haxKa070maqZ4x3HkfEPb2mdAyl35zlOtJ+zDgi/UyZ53adYx5H6kztj3mvHVNX7dcsuXZT7aXXeDq3dH3NFYTOUWsa174t0lfpdRGd21xXafv5/CX2kevxGOsvNYrOWek1sq//OT5LovWPfd+MrIc09tI1Eal/rH2pe8lnd2m9peMfWiepney5b7/v9Y4RWIOAIHQNs6RGApUFIjffYz/0K5c8qrmlxxnpr/QGJdJmQiptdxe09MYq2ke0/rHrLXKDXGoUqX3sjX3yLKm9pOZIvanfMTWX3syn9ktqTueV1l3aXmpzd4us75JvRFL7kTbT+WO80+vyVrJO8rmlVpE2c9tjxhFZN6mfMX3k+qbsox6HqnPKGNNrj3ntpvpKXOcIQpd2maO/aJvJu/T9Ip275Ba5Ho91DCVekXGOvUdq1xHpr8S19DM81TCl/ujnSEntqaaIR+n9QWp3dyvpp6TmknZy3yXvpflcewKnJiAIPbUZN14C5wSWumk5JHb0hqnGzULk5qTkZif5ReYqnT/2Ji36zVOp11L1zzHfkdpLPdIc7W6l9n19lLaR+57yzUjpOq+9xkvby2Ns7yM+pddQZH1M8c7jmGONl85lrmHKOCJepXOQ66q1j3hMWY+16h3bTmQupsx5ri+6dkvmf44gNDL/x+oSea/L81Pinc9dch+ZD9dj+cxEr8e+e4/U65LvJ5G+StdEpM0hi75ZKL02h/oobSfVUmrQV7fnCGxVQBC61Zk1LgI9ApEP/Ro3+z2lzPZU5EYhFTF041FSaO2by9RnZK6m3vBE+ir1inwjk8Zb2m46d3eL1D/0jV9k/Uy9Rkr76qu5tI1s1tdWPqdrn9Z5e0vrbspWOm9T1nfEp8Qmeq2XtFliWGqV2irpc8nrM9JXSe0lXtFzIjVOWY/RumqfX3sdldRXu885gtBIjVPf97NZZM2VXBeR97pUwzGv44hNrfnI87LUPjpfU+6R8phqfn5F25paf2RNlKztSP0l7WXjffvSuR66ziM1pzqm1r1vLI4R2IKAIHQLs2gMBIICh7jZD5Y4+fTIzVLNG+iI7dDNTkKItDf1ZidiVnozG2lz6jxE+hqyL71hTXM0te7Svvpqjow91Vw6f+ncubfSNT5lfZcap7H2OWeLSHvpNbW8I/Ncsi4j7U0dR8SsZA7yXNTcRzymrMeaNUfbisxDavsQa7fEtnYQGg0XjtUlOr8l1tE1Vuv8yPVY8n5Xq66a7UTmq+ZclX7uprH2vR9H6k9tTb1uIv2VeEXam7rGSt9jhvopbSd5t7ehdtvnekzgFAQEoacwy8ZIYEfgFG4uIzd5NW8Oavcbaa/vZnVnCez9MrIuSvuKtDl1HiJ9DdUfaSvdbKfax27ppjbdjA9tfT6RdZL6mfrNyFCtkedLay/5pqar38g3O0NrI/URaW9K3bvjia7LNJa+rXZ7fX1FvnnrW+t9fUx97lDzOrXuyOsPNcba/dYOQiP1Je9a76G1+422V/J+F1lfNc9d8v2pZt2RtiJjrPm+GOm37zMsst762ik1i3yOlPQXrX+Je72Sukvvm/a5pvbTn7RNGc++th0jsCYBQeiaZkutBCoJRG6Aat54VSq/qJnITULNbwRq2y45jsgNYalZbY++ya9Zf6TuvppqPtd1cxz5xiDV09VOzVojbZWu8Sl111wbaWyR9VHzPTQyjhKvJccRWac1zSJrMVJjardWGBapceq5kTkvWUOl9UTWbmpzyPaQQWhNl9prrrZz6fzOcV5kLDXnZI6xdLVZ+vmXXl/zfbHW+0CknRr1R66XkjURqb9rDmsfL6k7cm2U1JfmJm2p7/THRuAUBAShpzDLxkhgRyDywV/jxmWn+9m/jNwopWJKQ72SwiO2JTc7kZvkqeOI3FiV9hXxKG2zax4i9Q+t60jdXfXUPt61XqLrfWjsteseaq90jXeNf6j99HxkbZSsw8j6qOkdGUca91CYtOQ4Iuu0pllyKN0iNaY2h3xL+13yvCXnvD2u2ra1g9CtuETeI6a8p7bndq7HWxpLl1Hp5196fc33xVq2h7huSs1K1nek/q45nON4yWfL3LWn9Za2vJ9jnNokcEgBQegh9fVN4EACtW6ADlT+YLfRb7hKgo/BTj9wQuTGpOQmrfSGL3VfcuPUN47Iuig1i3iUttk1hsi8D31DEXHvqmeO4/vmODLuVNPQ2Oeou6/NUuuS66Wrn9pru7TmVE9N7+hc71svbaO1Xp/tMdR8XNu3Zm212orM+TGv3VMNQoc+JyPvdVPeU2utx752ItfjsY+la5yRz5Khue/qY9/xWuvkEO8npWYlayJS/z7HuY4NfXanfiPXx9Q602dB8kx/bAS2IiAI3cpMGgeBgEDkw7PkRiLQ9SKnRsaXCiq54SgtPHJTVWJbesNXYxyRG+PSG/KIx9R5iMz70Df4EffStVHjvC6jSL1DY69RZ6SN0tpLrpeufmuv7dKaUz01vSNrPPXdtV7Sc2mLXJ+l1/yNLZ//30jtU+b6/J5jRyJzO9UkVlmdsyPjO+TaHbIVhO5fD5H3ukNeZ/urv+nRyHtGeuXQ+91NWz+OryLX49A1ERlRZJ2kdrtsI58htd5PSs1K1ndpWxHbGud2ee+2Hb1Gdl8f/brWHEb7dT6BOQQEoXOoapPAkQtEPzhLP5CPZdiHHF/k5rL2TdrUeYrUXnpDHrlJnlp/ZN6HbubWdnMcqbd07pa6nktrL7leumquvbZLa071DK21rpr3HY+s8fT6oWsqcn1OXTeR2qfM9T63yLElTSJ11Tp3LWt3aL3VDkK34hJ5rzvkdVa6niPzMrRmSvtc6rzIe2Kqqeb4Iusk9d31WXKI98vSNVGyvkvbSgZLbtG5js7n1LFE65van9cTmENAEDqHqjYJrEAg8uG/tg+86M1l1w3emGmM3BTWvkmbOo7IjVTpmoh4TK0/Mu9D4VTk+hizTsa+pss9Um9XG2Nrmvq60tpLrpeuWmqv7dKaUz1Da62r5n3HI2s8vX7omopcn1PXTaT2KXO9zy1yLGJyyDojY2qfu5W1WzsIjcz7Ia/poesw8l5XcxztNVbzcWRehmxq1lWjrch7Yuqv5vgi6yT13fVZsvT8RMxK3p8j74fJYaltzFynOU1b3s9d65ga565J+wQiAoLQiJZzCWxIIHLzUnIzcUw0kRulVHfND/ParpGbtK4b1dK5idwYl5pFPKbWH5n3oW8AI+7p+kh/lthS3fu2iHPp3O3rZ45jpdZT3odqr+3SmpPX0FqLmEbGkdoduqaWXDc1r8+IWfTcSJ1T1mS0rlrnR+a85tqNuKaxDq3dUw1Ch1wi7xE157fW+txtJ7Je13g9Rj5Lan52R9ZJn2tkfmqst8j7SF/deZ1F6k/tpT9LbMlq7JaM2n/GtjP0uhLfoTY8T+CQAoLQQ+rrm8ABBWrfTNQeSrpJy1v0hiAyttRHzZvLyE1VyU1h5CZ56Buk7Nm1j9wYl5pFPJasf8g+UvdQW13eNY9H6i2du5r19bVVusan3HTXXtsR75rrIzKOZD50TUXGMXXdRN6Xa5r1rb19z0XqTK+f6rKvhr5jub6xRpE5H9vHvvprr91DBqFT3ot2bfJ87h7v+nromo4415zfrnqnHq/tM7We3dcn71RjWhPJM7qVfv6ldmu+10TWSd96X/r9JLIe+urO87R0/bnfJfdprtOW9zX7rrkma9alLQIlAoLQEiXnENigQORmIg1/6Q+73ZvDfIOZ90NTsvv6vvNrjq32TVVkHEPfIPUZpOciN8alZhGPJesf+gYwUvdQW0PuNZ6fY+5q1FXSRukaL/mmpqu/2j6R9TGl7t3xRMZR0m9kHKXX/G7N+evIZ86hr6mIS4lzNqix310Dqf/0p/Sz8VBj2617yGLo82ArQWhtl0h7h77OhtZAfr70MyKdP/V9KvdZut+tLV+HeT/Uzu7r+86vOV+13gci7dSoP7K+S96bl66/b36Xei4Zpi19Jqc/U7YS4yntey2BOQUEoXPqapvAkQtEbsCW/LAbutEpuZmKjK2kvdKprN1vpL2hbxyHxjDk3n596TcbkZvMJesfmvNI3UNttd3merymkGnXoHSNT3kPqr22I+tjSt27VrX7re2yW2/76zWt0YhzGmPp+2HbY8zjoflK70Vpy/t9fUTGVnPtDtXerrWk39pBaKS+VOvUz6s83tr9Rto7hs+u7NC3P9Sa7aspPTdknXzTWk5/urZDjS3Sb986GTJoj7vkum6fv+9x7f4iDjXq3zemQx9LpmnL+2g9td4Lo/06n8BUAUHoVEGvJ7BigcgNQBrmEt/sRb9Z7rrJjIyt5s1NaahT6hlpb+rNSMSsdC1E2pxaf+QGeaj+SFs118/Yt5PIdXMM9bbHWbrGp9Qdmc+htZFqj3in86eu7dRG2kqt0rl937ym59NW2+XGVvf/N2JWUvv+XuocjdSaepyyNiMVR+aryzA6tlprN/JZ0FV726p2EHoolxpz2nap3V677UM9js5NyfqpMZbS9+P0/pD+pLp2t8h1UfN9prT2VG+fZ2RuatQfWd8l/S1d/+78H9vXyTdteV9SX8k9U0k7ziGwtIAgdGlx/RE4IoHIDUAqu+SmYurwIjeFqa+uD+DaN0sl44r0mdor+QYzcrNa0l7fOCL2Xe677UfanFp/xH+o/si1scR1seu67+ulrPc5J4O87T5uf53Pae9L1/gU5301t2toPx5aG+ncyPpI55e0mc4b2kqtUjslfdZ26as/0lffN959fdR8LnI9pX5LvKfUF/FL/XQZrmHtdtXe9qsdhKa2a19f7Xq7Hkf6LHGJrJOS9rrqXvp4xCnVttXrcep9UrKJvgf09VmzrVTb0BZZByX3DJH6S9obqn8tz0feR+a+1tZips71CQhC1zdnKiZQVSD6zd6cN86RD96E0FdL5OYmtVXjgzxSf+kNVeSmr+9mNY1xaIushVKvOdrsGkfEv6T+Je27xhQ5vpR1pJ++azSPrdS59JrJ7bb3tddGaru07nRuyXpL5/VtkTGkdkreDyJtTh1DpK+SddNnVeO56GdI6nOqUVfdEbvcRt/8R9bulOsu1xKtv6/23OYcQWjkve0QLiXrK2J9DNdZns+hfWRcqa0a89NVU7SW1E7Xmo6+z5Ssga668/Fo/V215/Yi7ydT6o9ala6BperPXmvZl74frul9ZC326lxGQBC6jLNeCBytQPTGIg1kjg+96I1ZSR2Rm5vSG6a+iYz0V2oYaXPoZrWv9vRc6U1POrf0ZnaONlP/+7bafdVub1/NNY9FruUp6732mixtb0rNkfeXOdb2lNrzGomsx9L+5nDJ9e7uI32Vvj/u9lH764h57rt0/eTzh/aR6zq3NeQXHdfUz5bI3KcxlPR36CC0tM48J/v2c7hE2hxaJ/tqPtSxMddB6ftgZEwR39zukHPkeqwxptLP3FT/UO3pnKXqj9qXWkXqr/3+nvxqbekayVsa+9St1LtkjUytxesJzCEgCJ1DVZsEViYQuQnIQ0sffOmDdskP29x32pd88EbHVfLNV7uG9uPSG4b8mtK+IjesU2/QIl6lfc3RZjbc3dfuK/KNV+kN927N6es8x+1rad/j9rF97aRjEYOSa2i3n8g6LzXJ49/ta9/XpdfN7msjdZeu7cj6SPWUtrtbe/o6Un86v3RuI+2Wtpn637ct2de+/scci85x7mOqVW5nbP9D10m03WNcu3MEoVGXqfMcee8r7WuN11le70P7yOdbu61Su/Zr9j2O2ObXl3wORts9tusxOi9j649cL8m/xD6dF7nuS9tM7e5ueZ5TG3nb97h9LJ/X3qd605b27cf5nCk15jbSPtfbPrbvca3ra1/bjhGYU0AQOqeutgmsRCByE7A7pCkfgKnf9EGbP8h32+77eugbvfTa6LjG3jyU3izk8UTMIjd+Y28uc12Rvkr8U7uRG+Sp9c/RV8QkMq/ZPLJ2StqPtJdqiJhHr6eSelMNEeNIvantvEVcIn1E1lyqpfS6yXXnfcQo0k/EpXQ+c827+yX72u17ytfROc59Ja+05X0+XrKf8tlYOk/RcUWui/YYo/2UXiNzBKGp7mi9x+ay1uusvWb6HkffC3NbpddFPr+9n3I9lq6PyLjG3qtGP8NL+5mr3fYcRNZ1fl1p/en8iP+YtRSpv6v9iHPp+2i22rcvNSld4/v6cIzAIQUEoYfU1zeBIxKIfEjvKzvdcLT/7DsnHUsf5GlL/eXHZwcC/+m6SdjXRPSbmkjbqb/IjUmuL3KDUnojktqeejMS6at0DBH/qfXP0VekzTFzUNp+ZF1G5jFSc7Td0jUSaTfyjU0aW94i72+RdRi9/sfUX7pG8lgjayXiEmk319LeR8Yxta92v1MfR+d4X39pPPnzcd/z6Vj+PFzqszE6rmNbu3MFoUu4RK67tDYi10Ok7Ui7qY5j2KLzs1tzvg7zfvf5/PXS12Pk/THVGJ27NJ7oe0ukj8jneLT+yJrO85f2kfesuf1L2x8yr9VO22nf44h56b3evn4cI3BIAUHoIfX1TeDIBEo/YEvLTjch7S3fWLaPRR8P3STstjfmprm0j8iNQq6rtO18fuTmMhLg5Pbb+0hfpTc+kTW1ZP2lfc21fqLtltab5rP2uozWmmqIrPPIGom2nc5PW8QkYp3ajlw36fy0lfgk91R32ke20msztRlxKam5r87IPEfnoK/fGs+NuQaG+m1/PkbnuKvtyNynNiJzkvssWQdLrN25gtC1uyx5Tec1sfQ+MsaS2trXYjq/xvUYCeFyn+l6jGylfYx5/yptO9c713vJlLmOjGGM0RzvhUNtRpwj48/zmPYR86F62+16TODYBAShxzYj6iFwYIHIh+zSpY79wI18qLfHlPpLW7qZaG+pvbE3ynN+ozo1PIgEOqXjiKynJeuP9FVz/aR1k/+011Tf4zHrPuLe7ru95nOdY9Z66fpIfY+tNV2X+drMNaZ53bdF5jCyNlJfqe80hujWrj+PI7WRak1bHtPZF4X/ia6ViEu07d2SI/McnYPdvub4OmI1R/9DbY4xG7t2Uy3t94pcW2ov/8nHSvfR9TVnELpml8g6jZqXzuUS50XeT5aop91Hej/v+ixqn7f7ODJ37dfmazEd2/0sSWt5zBZ9P6l9zSSLfbWn8e07vm+M0XmY6t+2TzXmP/tq23es9HqM3KunflJd+U/+el//qd4u933np2OlNXe93nEChxQQhB5SX98EjlBgzAfhEsOI3tDs1nQMN83RG8s0hkjdY9pvO0VurkqDrkj9U2+oIvVHrSLjaJtOfTx23afrONV8iC06j2O/+dg3tq51GekjujZSHZH299Vd41jUPVr3mPbb44pcQ2PmoN3XXI+PYZ73jW3K3BzDmMbUP2cQmowP+R6a53iMS2Q+x7SfazuGfWSsS9bb9TlUUsMxjGnsuoi8x5dY7DsnfTZE7m2ic7HEGPaNK3KvV3ONpH7Tlt7votvYdRLtx/kE5hIQhM4lq10CKxeo+UE7laLWh20kKJta8+7rx44hclM2NTyI+JTeXEbqH2uUrSP1R60O9T8ISp2zQXt/iGt47BxG5q49xt3HXV4Ri+jayDVE+sivqbUf6x6peWwfeYyR94Kxc5D7mnMfMZuzjtR2+iY2zUv+ZnZsf4cc09h1NXcQmiwP6RIJRtrzHql5rH27v0M/jox37lrHztluXZH3yt3XTv166pqo9Vm+bxy5tkgfXfcE+9rPxw7hH63z0Ou+1lrP5vYEDiEgCD2Euj4JrETg0B+0iSnf+NQiO8QNzpRv6iP1Tukn+c5xcxmpf+pcR+ofaxUZz9Q1O7bGdr9LXsNT5q9WnV3fTETan+Ie6ac9T1MeL+U+pZ80vsi1M2UOpliWvvYQ87xbW+1vRA8xpilraokgNJmvzSVS7xT/3fV4yK8jY56rztqWhxhTjTHM9ZPU7fe7yL1e1z3B0DqIfF4NtTX0/NjPu0OskTSWNBdpraS9jcCaBQSha549tRNYQCB90KYt7xfo8qyLOT9ol7p5qDGGyM3Y2JupPKdz3FxG6p96Ex6pf4rV3OsnrZtUX61t7npTnVM88zhr1Nn1TU+k7aljifSVxz52v2StU6/PyHvB1HGN9Yy+bsm5btc2dS7abbUfLzmeqWNYKghNPmtyidQ6dQ7aa+fQj9O405b3S9VT4z6vq9bIXHa1UXq85ntu7bp374kinyVd9wQlLrXHsdtnjbUzd437ak5rxUZgCwKC0C3MojEQWEAgfdimLe/n6rLGjUFJbXkceV/ymtJz0hjyOEpf03Ve5IZv6o1sJEgsvbmM1D/1m7JIX1Ot0rqZY+1MNehaR+mnNPJf7+86Z8zxtM5r3hRPde1al5F2p66N7BjpM7+mdJ/fX9J+yhapcerajFyfU/uaYjLmtRHHMe3n1yzlMud4aq3dJYPQ7L8Gl0iNS62n7LfEPo0/bXk/Z59L+OVx5H3t8cw1hlRvjZr31Rf5LOm6Jyh1TGPI90+lryk5b9+4Sl7XdU4t7672a71vd7XvOIFDCAhCD6GuTwIrFsg3NnlfayiH+pDN48j7KeOZYwyRG76pAU4kCC3ta8n6l+wrr5O0bmrcJM+xdnKN7f0a6s2BbdpHt65vetK4S6/x0rVdWluk76E2a6+TSG1Tv3Fbsq8hx7meT2Os8X7Qrq/2nLfbHnocmbOhtmqP4xBBaB7jMbtEapt6TWePY9wnh7Rt5XrM48n7qeZLzX1kPbbH1Pd+EbnX67onaPdV8jiNo8Za6htXSR1D54z17mp37nq7+nWcwBICgtAllPVBYMMC+aYscoOQPljTlvb5zzEQRceSx5FuKPN4ao8j6pprGlPHHH1l05J6smPJufvOWbKvvv5LHPM8pTHnx/vanPNY9sr7vr5yjUvWmxxzbenx7pZrSvv8Z/ec/HXJnORzh9rK50X3uYa8L3l9qiVfF+lx7S1ay5QaluyrttOY9tprN429dMvGc857aS35vDx3eZ+P9+3nXruXX355X/fnPffoRz/6vGNTD7Q98nwPtZlc2n+Gzo8+365p6LW5jqHztvB8np+ITxp3Nsr7Y7DIY8j7kppS/Yd8T0n+Q/WmGtM2dJ+R57Jk3HnMJeeWnpP7HxpPaq90TKV9R87LdeZ96WsPvVZK63QegakCgtCpgl5PgECnQLpJaG/5hqB9bA2PtzKONVhvrcbdtZPGd8zXwW69x1zrVtYK863MZPk4tjLnWxlH+cyVncmlzOlYztrKfK1pHO1at3Cf0R5PXtfHNq52jflxu8b24zwGewJbFhCEbnl2jY0AAQIECBAgQIAAAQIECBAgQIAAgTMBQaiFQIAAAQIECBAgQIAAAQIECBAgQIDA5gUEoZufYgMkQIAAAQIECBAgQIAAAQIECBAgQEAQag0QIECAAAECBAgQIECAAAECBAgQILB5AUHo5qfYAAkQIECAAAECBAgQIECAAAECBAgQEIRaAwQIECBAgAABAgQIECBAgAABAgQIbF5AELr5KTZAAgQIECBAgAABAgQIECBAgAABAgQEodYAAQIECBAgQIAAAQIECBAgQIAAAQKbFxCEbn6KDZAAAQIECBAgQIAAAQIECBAgQIAAAUGoNUCAAAECBAgQIECAAAECBAgQIECAwOYFBKGbn2IDJECAAAECBAgQIECAAAECBAgQIEBAEGoNECBAgAABAgQIECBAgAABAgQIECCweQFB6Oan2AAJECBAgAABAgQIECBAgAABAgQIEBCEWgMECBAgQIAAAQIECBAgQIAAAQIECGxeQBC6+Sk2QAIECBAgQIAAAQIECBAgQIAAAQIEBKHWAAECBAgQIECAAAECBAgQIECAAAECmxcQhG5+ig2QAAECBAgQIECAAAECBAgQIECAAAFBqDVAgAABAgQIECBAgAABAgQIECBAgMDmBQShm59iAyRAgAABAgQIECBAgAABAgQIECBAQBBqDRAgQIAAAQIECBAgQIAAAQIECBAgsHkBQejmp9gACRAgQIAAAQIECBAgQIAAAQIECBAQhFoDBAgQIECAAAECBAgQIECAAAECBAhsXkAQuvkpNkACBAgQIECAAAECBAgQIECAAAECBASh1gABAgQIECBAgAABAgQIECBAgAABApsXEIRufooNkAABAgQIECBAgAABAgQIECBAgAABQag1QIAAAQIECBAgQIAAAQIECBAgQIDA5gXWHYRedllz2eWXF03SxRdf3Fx00UVF5zqJAAECBAgQIECAAAECBAgQIECAAIFtCQhCtzWfRkOAAAECBAgQIECAAAECBAgQIECAwB4BQegeFIcIECBAgAABAgQIECBAgAABAgQIENiWgCB0W/NpNAQIECBAgAABAgQIECBAgAABAgQI7BFYdxB6+bl/I/Qy/0bonnl1iAABAgQIECBAgAABAgQIECBAgACBlsDKg9DLzwWhl7WG0/3QL0vqtvEMAQIECBAgQIAAAQIECBAgQIAAga0LCEK3PsPGR4AAAQIECBAgQIAAAQIECBAgQIBAIwi1CAgQIECAAAECBAgQIECAAAECBAgQ2LyAIHTzU2yABAgQIECAAAECBAgQIECAAAECBAgIQq0BAgQIECBAgAABAgQIECBAgAABAgQ2LyAI3fwUGyABAgQIECBAgAABAgQIECBAgAABAoJQa4AAAQIECBAgQIAAAQIECBAgQIAAgc0LCEI3P8UGSIAAAQIECBAgQIAAAQIECBAgQICAINQaIECAAAECBAgQIECAAAECBAgQIEBg8wKC0M1PsQESIECAAAECBAgQIECAAAECBAgQICAItQYIECBAgAABAgQIECBAgAABAgQIENi8gCB081NsgAQIECBAgAABAgQIECBAgAABAgQICEKtAQIECBAgQIAAAQIECBAgQIAAAQIENi8gCN38FBsgAQIECBAgQIAAAQIECBAgQIAAAQKCUGuAAAECBAgQIECAAAECBAgQIECAAIHNCwhCNz/FBkiArFPzxwAAQABJREFUAAECBAgQIECAAAECBAgQIECAgCDUGiBAgAABAgQIECBAgAABAgQIECBAYPMCgtDNT7EBEiBAgAABAgQIECBAgAABAgQIECAgCLUGCBAgQIAAAQIECBAgQIAAAQIECBDYvIAgdPNTbIAECBAgQIAAAQIECBAgQIAAAQIECAhCrQECBAgQIECAAAECBAgQIECAAAECBDYvIAjd/BQbIAECBAgQIECAAAECBAgQIECAAAECglBrgAABAgQIECBAgAABAgQIECBAgACBzQsIQjc/xQZIgAABAgQIECBAgAABAgQIECBAgIAg1BogQIAAAQIECBAgQIAAAQIECBAgQGDzAoLQzU+xARIgQIAAAQIECBAgQIAAAQIECBAgIAi1BggQIECAAAECBAgQIECAAAECBAgQ2LyAIHTzU2yABAgQIECAAAECBAgQIECAAAECBAgIQq0BAgQIECBAgAABAgQIECBAgAABAgQ2LyAI3fwUGyABAgQIECBAgAABAgQIECBAgAABAoJQa4AAAQIECBAgQIAAAQIECBAgQIAAgc0LCEI3P8UGSIAAAQIECBAgQIAAAQIECBAgQICAINQaIECAAAECBAgQIECAAAECBAgQIEBg8wKC0M1PsQESIECAAAECBAgQIECAAAECBAgQICAItQYIECBAgAABAgQIECBAgAABAgQIENi8gCB081NsgAQIECBAgAABAgQIECBAgAABAgQICEKtAQIECBAgQIAAAQIECBAgQIAAAQIENi8gCN38FBsgAQIECBAgQIAAAQIECBAgQIAAAQKCUGuAAAECBAgQIECAAAECBAgQIECAAIHNCwhCNz/FBkiAAAECBAgQIECAAAECBAgQIECAwKqD0Msuu6y5/PLLi2bx4osvbi666KKic51EgAABAgQIECBAgAABAgQIECBAgMC2BASh25pPoyFAgAABAgQIECBAgAABAgQIECBAYI+AIHQPikMECBAgQIAAAQIECBAgQIAAAQIECGxLQBC6rfk0GgIECBAgQIAAAQIECBAgQIAAAQIE9ggIQvegOESAAAECBAgQIECAAAECBAgQIECAwLYESoPQB577PUNPO/f7hg6x3ez957Z9HftlSftUHCNAgAABAgQIECBAgAABAgQIECBAYFdAELor4msCBAgQIECAAAECBAgQIECAAAECBDYnIAjd3JQaEAECBAgQIECAAAECBAgQIECAAAECuwKC0F0RXxMgQIAAAQIECBAgQIAAAQIECBAgsDkBQejmptSACBAgQIAAAQIECBAgQIAAAQIECBDYFRCE7or4mgABAgQIECBAgAABAgQIECBAgACBzQkIQjc3pQZEgAABAgQIECBAgAABAgQIECBAgMCugCB0V8TXBAgQIECAAAECBAgQIECAAAECBAhsTqA0CL3ooouaiy+++CDjv9n7z237er7sssuayy+/fN9T5x1LxadB2AgQIECAAAECBAgQIECAAAECBAgQOD0BQejpzbkREyBAgAABAgQIECBAgAABAgQIEDg5AUHoyU25ARMgQIAAAQIECBAgQIAAAQIECBA4PQFB6OnNuRETIECAAAECBAgQIECAAAECBAgQODkBQejJTbkBEyBAgAABAgQIECBAgAABAgQIEDg9AUHo6c355BHfcMMNzTve8Y7m7W9/+9k+PU5//uEf/mFy2xogQIAAAQJbErjVrW7V3O1udzv7c5e73KW5053u1Nz5zndubnGLW2xpmMZCYFGB9137N80N776yueHqt5z7c25/7vH7/u5di9agMwIECGxf4GbbH+IJjPDmtzt333mHezW3vOO9mlt8xN2bm6c/t7njCYy8e4iC0G4bz7QEXvva1zaveMUrmje+8Y1noWcKQ20ECBAgQIBAXCCFoHe9612bj/7oj24+9VM/tXnwgx8cb8QrCJyQwA3veVtz7Z//TnPdG3/vXOj5luZ91/63Exq9oRIgQIAAgboCt7jtnc4C0Qvu9/DmNvd/xLmA9G51Ozjy1gShRz5BhyzvXe9611n4+cpXvvIsAD1kLfomQIAAAQJbFciBaApF00+M2ggQuFHgujf9QXPduQD02j9/SfOPN1yPhQABAgQIEKgs8GG3+PCzMPSC+z+yueC+n1659eNsThB6nPNy0KryT3+mnwD1190POhU6J0CAAIETEkh/jT6FoX5K9IQm3VDPE3j/+97bXPNHv3wuAH1J8/fv+NPznneAAAECBAgQmEfg1ne5qLng3E+I3v4TH93c7JYXzNPJEbQqCD2CSTimEn7zN3+zed7znndMJamFAAECBAicnMCXfdmXNY95zGNObtwGfNoCN1zz9uaq3/rh5rq/euVpQxg9AQIECBA4oMCt7/ag5g4P/5bm1vf4xANWMV/XgtD5bFfX8qWXXtq88IUvXF3dCiZAgAABAlsU+KRP+qTmO77jO7Y4NGMicJ7AP7ztj5t3/dozmhv+9h3nPecAAQIECBAgsKzAzW5+q7Mw9PYPfuyyHS/QmyB0AeRj7+L9739/82//7b9t0l+JtxEgQIAAAQLHI3DhhRc2T3nKU5p73vOex1OUSghUFrjujb/bvPNF/2vlVjVHgAABAgQITBW43QO/uLnw8586tZmjer0g9KimY/lirrrqqua7v/u7/Vugy9PrkQABAgQIFAt8y7d8S/MZn/EZxec7kcBaBK7+vZ9u3vOq/3Mt5aqTAAECBAicnMCt7nT/5m5f/TObGbcgdDNTGR/Im970puYZz3hG/IVeQYAAAQIECCwu8PjHP775vM/7vMX71SGBuQTe8YL/pbn+za+aq3ntEiBAgAABApUEbtbcrLn3//ySSq0dthlB6GH9D9b79ddf3zzpSU86WP86JkCAAAECBOICz3rWs5p73OMe8Rd6BYEjE7jqd360ueb//ZUjq0o5BAgQIECAQJfAbT7mnzZ3+h++v+vp1RwXhK5mquoW+tSnPrV529veVrdRrREgQIAAAQKzClxwwQXNT/zETzS3vOUtZ+1H4wTmFLjmNb/UXPWyn6zaRfpJFRsBAgQIECBwU4H3N++/6YGJX33U5z21ue1/98UTWznsywWhh/U/SO8/9mM/1rz61a8e3fftbne75kEPelBz+9vf/iZ/bn7zm49u0wsJECBAgMAWBd73vvc111xzzU3+/Mmf/Enznve8Z/RwP+uzPqt54hOfOPr1XkjgkALXven3m3e+8GmTSrj1nT+6ufWd7tN82AW3b26e/nz47ZsPu/VtJrXpxQQIECBAYIsC//j31zbvu/6a5n3XXdP843Xvaf7hb65srn/7GyYN9S6P+T+aD7/XQya1ccgXC0IPqX+Avn/pl36pedGLXjSq54/5mI9pPvZjP7Z5wAMeMOr1XkSAAAECBAjcKJD+ne4rrrji7M8Yk8c+9rHNox71qDEv9RoCBxO44eo3N+94wXc0N/ztO8I13OJ2FzYfftePbS6494Oam9/mDuHXewEBAgQIECBwo0AKRa9/y5+e/XnvNe8Ks9zidndu7vIVP9nc4iPuFn7tMbxAEHoMs7BQDS9/+cubSy65JNxb+mt4X/AFX9Dc5z73Cb/WCwgQIECAAIFugb/4i79ofvu3f7v5u7/7u+6TOp7xm+Q7YBw+WoF3Xv5dzXV/9Ypwfbf96E9ubv/Afxp+nRcQIECAAAEC/QLvfu2vN9dd+cf9J+159oL7fkZz50f9wJ5njv+QIPT456hahekXLPzpn/5pqL0LL7ywefSjH92kvw5vI0CAAAECBOoLXHfddc2v/MqvNO94R+yn5O5///s3T3/60+sXpEUCMwhc+4aXNO/6tWeEW/7IT/j8cz8F+vHh13kBAQIECBAgUCbwntf/TnPtX/5R2cmts+70xd/X3OZjH9E6so6HgtB1zNPkKlMAmoLQyHbPe96zSX/1zkaAAAECBAjML/CSl7yk+a//9b+GOvr2b//25qEPfWjoNU4mcAiBFIKmMDSy3fFhj2lufWd/Iyli5lwCBAgQIDBG4Pq3XNFc/Ue/Fnrpbe7/yOZOX/S9odccw8mC0GOYhQVq+Pmf//nmt37rt4p7+vAP/3C/iKFYy4kECBAgQKCOwH/+z/+5Sb9MqXR72MMe1jz5yU8uPd15BA4i8N6/eVPz1l/4+lDfH/Ggz21uc59PDL3GyQQIECBAgMB4gb9/xxubq/7wV4obuFlzs+ZuX/uc5pYX3rf4NcdwoiD0GGZh5hrSb6b9nu/5nrPfWFvaVfpJ0PQToTYCBAgQIEBgWYFf/MVfbN7+9rcXd/qMZzyjud/97ld8vhMJLC3w7j94TvPuV/xccbe3+ScPbj7i4//74vOdSIAAAQIECNQRuPZNr2ne88cvKW7sIz/tG5qP/LQnFJ9/DCcKQo9hFmauIf0kaPqJ0NLtsz/7s5uHPOQhpac7jwABAgQIEKgokP6t0EsvvbR573vfW9Tq53/+5zdf+7VfW3SukwgcQiD9NGj6qdCS7YJ7PLD5yE/6wpJTnUOAAAECBAjMIPCe1/1Wc+1flf1zTbe88KObu5/7qdA1bYLQNc3WyFojvyTpvve9b/OoRz1qZE9eRoAAAQIECNQQeNnLXta85jWvKWrqtre9bfPMZz6zSb/g0Ebg2AQivyTpZh92i+ZOn/OE5uYX3P7YhqEeAgQIECBwMgLvu/bdzbte+tzm/f/4vqIxr+2XJglCi6Z1vSddffXVTfpFCqXbF33RFzXpt9DaCBAgQIAAgcMJpL8an/6KfOnmlyaVSjlvaYGr/stPNNe89peLur3NP/nEc38l/nOLznUSAQIECBAgMJ/Au1/za811b72iqIPbP/grmjt+zv9UdO4xnCQIPYZZmLGGN7zhDc33f//3F/Vw97vfvXnc4x5XdK6TCBAgQIAAgXkFfvmXf7l5y1veUtTJ133d1zWf+7kCpCIsJy0q8K5f/Z7m2r/4vaI+P+oz/nlzyzveo+hcJxEgQIAAAQLzCfz9O9/UXPXKy4o6uOC+n9nc+VHPKjr3GE4ShB7DLMxYw+///u83P/VTP1XUQ/oG6kEPelDRuU4iQIAAAQIE5hW44oorml//9V8v6uRLv/RLm6/4iq8oOtdJBJYUKP33QW9xuwubO/3T2G+WX3Ic+iJAgAABAqcm8K6X/Fxzw7VXDw77lne8T3P3x5f/XprBBmc+QRA6M/Chm3/hC1949gsXSur4mq/5muajPuqjSk51DgECBAgQIDCzwN/8zd80v/ALv1DUy8Mf/vDmm7/5m4vOdRKBxQTO/dtif/3vv+DcvzF2w2CXF9z9Ac1HPuSLB89zAgECBAgQILCMwNWveXFz/Vv/bLCz9G983/vbfqNpbnbzwXOP4QRB6DHMwow1/If/8B+a3/3d3y3q4Vu+5VuaW93qVkXnOokAAQIECBCYVyD91vhnP/vZRZ2kv9Hx3d/93UXnOonAUgI3XP3m5i0//zVF3d32fp/S3P6izy4610kECBAgQIDA/ALX/OnLmr974x8WdXSPx/9Cc4s73rvo3EOfJAg99AzM3H/690HTvxM6tF1wwQV+kmQIyfMECBAgQGBhgZ/+6Z9urr/++sFe73GPezTPetZ6/m2mwQE5YRMC1//VK5t3XP6UorF8xIMe2dzmPp9UdK6TCBAgQIAAgfkFrn3THzXv+ePfKerozo/6weaC+3560bmHPkkQeugZmLn/b/u2b2v+9m//drCXO9/5zs1XfdVXDZ7nBAIECBAgQGA5gf/0n/5T8853vnOww/Q/NEv/TfDBxpxAoJLANa99QXPVf/mxotbu+Mlf1tz6rvcrOtdJBAgQIECAwPwCf//2/6+56lUvLOrojp/z7c3tH/yYonMPfZIg9NAzMHP/pRN8z3ves3nsYx87czWaJ0CAAAECBCICl156aXPllVcWveS5z31u0XlOIrCUwLv/4DnNu1/xc0XdXfjpj2tudeG9is51EgECBAgQIDC/wD/8tzc3f/P//FJRRx/5ad/QfOSnPaHo3EOfVJqTXXTRRc3FF198kHJv9v5z276eL7vssubyyy/f99R5x1LxaRCntpVOsCD01FaG8RIgQIDAGgQEoWuYJTV2CQhCu2QcJ0CAAAECxy8gCBWEHv8q3VOhIHQPikMECBAgQGAlAoLQlUyUMvcKCEL3sjhIgAABAgRWISAIFYSuYqHuFikI3RXxNQECBAgQWI+AIHQ9c6XS8wUEoeebOEKAAAECBNYiIAgVhK5lrd6kTkHoTTh8QYAAAQIEViUgCF3VdCl2R0AQugPiSwIECBAgsCIBQaggdEXL9UOlCkI/ZOERAQIECBBYm4AgdG0zpt62gCC0reExAQIECBBYl4AgVBC6rhX7gWoFoaucNkUTIECAAIEzAUGohbBmAUHommdP7QQIECBw6gKCUEHoKq8BQegqp03RBAgQIEDgTEAQaiGsWUAQuubZUzsBAgQInLqAIFQQusprQBC6ymlTNAECBAgQOBMQhFoIaxYQhK559tROgAABAqcuIAgVhK7yGhCErnLaFE2AAAECBM4EBKEWwpoFBKFrnj21EyBAgMCpCwhCBaGrvAYEoaucNkUTIECAAIEzAUGohbBmAUHommdP7QQIECBw6gKCUEHoKq+B0iD0Xve6V/OYxzxmlWNUNAECBAgQ2KqAIHSrM3sa4xKEnsY8GyUBAgQIbFNAECoIXeXKFoSuctoUTYAAAQIEzgQEoRbCmgUEoWuePbUTIECAwKkLCEIFoau8BgShq5w2RRMgQIAAgTMBQaiFsGYBQeiaZ0/tBAgQIHDqAoJQQegqrwFB6CqnTdEECBAgQOBMQBBqIaxZQBC65tlTOwECBAicuoAgVBC6ymtAELrKaVM0AQIECBA4ExCEWghrFhCErnn21E6AAAECpy4gCBWErvIaEISuctoUTYAAAQIEzgQEoRbCmgUEoWuePbUTIECAwKkLCEIFoau8BgShq5w2RRMgQIAAgTMBQaiFsGYBQeiaZ0/tBAgQIHDqAqcehD7wgQ9snva0px1kGdzs/ee2fT1fdtllzeWXX77vqfOOXXzxxc1FF1103vGtHxCEbn2GjY8AAQIEtiwgCN3y7G5/bILQ7c+xERIgQIDAdgUEoYLQVa5uQegqp03RBAgQIEDgTEAQaiGsWUAQuubZUzsBAgQInLqAIFQQusprQBC6ymlTNAECBAgQOBMQhFoIaxYQhK559tROgAABAqcuIAgVhK7yGhCErnLaFE2AAAECBM4EBKEWwpoFBKFrnj21EyBAgMCpCwhCBaGrvAYEoaucNkUTIECAAIEzAUGohbBmAUHommdP7QQIECBw6gKCUEHoKq8BQegqp03RBAgQIEDgTEAQaiGsWUAQuubZUzsBAgQInLqAIFQQusprQBC6ymlTNAECBAgQOBN4waWXNm++8soijec+97lF5zmJwFICgtClpPVDgAABAgTqCwhCBaH1V9UCLQpCF0DWBQECBAgQmElAEDoTrGYXERCELsKsEwIECBAgMIuAIFQQOsvCmrtRQejcwtonQIAAAQLzCQhC57PV8vwCgtD5jfVAgAABAgTmEhCECkLnWluztisInZVX4wQIECBAYFYBQeisvBqfWUAQOjOw5gkQIECAwIwCglBB6IzLa76mBaHz2WqZAAECBAjMLSAInVtY+3MKCELn1NU2AQIECBCYV0AQKgidd4XN1LogdCZYzRIgQIAAgQUEXvCCFzRvfvObi3ryy5KKmJy0oIAgdEFsXREgQIAAgcoCglBBaOUltUxzgtBlnPVCgAABAgTmEBCEzqGqzaUEBKFLSeuHAAECBAjUFxCECkLrr6oFWhSELoCsCwIECBAgMJOAIHQmWM0uIiAIXYRZJwQIECBAYBYBQaggdJaFNXejgtC5hbVPgAABAgTmExCEzmer5fkFBKHzG+uBAAECBAjMJSAIFYTOtbZmbVcQOiuvxgkQIECAwKwCl156aXPllVcW9eHfCC1ictKCAoLQBbF1RYAAAQIEKgsIQgWhlZfUMs0JQpdx1gsBAgQIEJhDQBA6h6o2lxIQhC4lrR8CBAgQIFBfQBAqCK2/qhZoURC6ALIuCBAgQIDATAKC0JlgNbuIgCB0EWadECBAgACBWQQEoYLQWRbW3I0KQucW1j4BAgQIEJhPQBA6n62W5xcQhM5vrAcCBAgQIDCXgCBUEDrX2pq1XUHorLwaJ0CAAAECswoIQmfl1fjMAoLQmYE1T4AAAQIEZhQQhApCZ1xe8zUtCJ3PVssECBAgQGBuAUHo3MLan1NAEDqnrrYJECBAgMC8AoJQQei8K2ym1gWhM8FqlgABAgQILCAgCF0AWRezCQhCZ6PVMAECBAgQmF1AECoInX2RzdGBIHQOVW0SIECAAIFlBAShyzjrZR4BQeg8rlolQIAAAQJLCAhCBaFLrLPqfQhCq5NqkAABAgQILCYgCF2MWkczCAhCZ0DVJAECBAgQWEhAECoIXWip1e1GEFrXU2sECBAgQGBJAUHoktr6qi0gCK0tqj0CBAgQILCcgCBUELrcaqvYkyC0IqamCBAgQIDAwgKC0IXBdVdVQBBalVNjBAgQIEBgUQFB6BEGoZdffnlz2WWXFS2Eiy++uLnooouKzt3SSYLQLc2msRAgQIDAqQkIQk9txrc13nf/wc81737Fc4oGdeGnP6651YX3KjrXSQQIECBAgMD8AoJQQej8q2yGHgShM6BqkgABAgQILCQgCF0IWjezCAhCZ2HVKAECBAgQWERAECoIXWSh1e5EEFpbVHsECBAgQGA5AUHoctZ6qi8gCK1vqkUCBAgQILCUgCBUELrUWqvajyC0KqfGCBAgQIDAogKC0EW5dVZZQBBaGVRzBAgQIEBgQQFBqCB0weVWrytBaD1LLREgQIAAgaUFBKFLi+uvpoAgtKamtggQIECAwLICglBB6LIrrlJvgtBKkJohQIAAAQIHEBCEHgBdl9UEBKHVKDVEgAABAgQWFxCECkIXX3Q1OhSE1lDUBgECBAgQOIyAIPQw7nqtIyAIreOoFQIECBAgcAgBQagg9BDrbnKfgtDJhBogQIAAAQIHExCEHoxexxUEBKEVEDVBgAABAgQOJCAIFYQeaOlN61YQOs3PqwkQIECAwCEFBKGH1Nf3VAFB6FRBrydAgAABAocTEIQKQg+3+ib0LAidgOelBAgQIEDgwAKC0ANPgO4nCQhCJ/F5MQECBAgQOKiAIFQQetAFOLZzQehYOa8jQIAAAQKHFxCEHn4OVDBeQBA63s4rCRAgQIDAoQUEoYLQQ6/BUf0LQkexeREBAgQIEDgKAUHoUUyDIkYKCEJHwnkZAQIECBA4AgFBqCD0CJZhvARBaNzMKwgQIECAwLEICEKPZSbUMUZAEDpGzWsIECBAgMBxCAhCBaHHsRKDVQhCg2BOJ0CAAAECRyQgCD2iyVBKWEAQGibzAgIECBAgcDQCglBB6NEsxkghgtCIlnMJECBAgMBxCQhCj2s+VBMTEITGvJxNgAABAgSOSUAQKgg9pvVYXIsgtJjKiQQIECBA4OgEBKFHNyUKCggIQgNYTiVAgAABAkcmIAgVhB7ZkiwrRxBa5uQsAgQIECBwjAKC0GOcFTWVCghCS6WcR4AAAQIEjk9AECoIPb5VWVCRILQAySkECBAgQOBIBQShRzoxyioSEIQWMTmJAAECBAgcpYAgVBB6lAtzqChB6JCQ5wkQIECAwPEKCEKPd25UNiwgCB02cgYBAgQIEDhWAUGoIPRY12ZvXYLQXh5PEiBAgACBoxYQhB719ChuQEAQOgDkaQIECBAgcMQCglBB6BEvz+7SBKHdNp4hQIAAAQLHLiAIPfYZUl+fgCC0T8dzBAgQIEDguAUEoYLQ416hHdUJQjtgHCZAgAABAisQEISuYJKU2CkgCO2k8QQBAgQIEDh6AUGoIPToF+m+AgWh+1QcI0CAAAEC6xAQhK5jnlS5X0AQut/FUQIECBAgsAYBQaggdA3r9LwaBaHnkThAgAABAgRWIyAIXc1UKXSPgCB0D4pDBAgQIEBgJQKCUEHoSpbqTcsUhN7Uw1cECBAgQGBNAoLQNc2WWncFBKG7Ir4mQIAAAQLrERCECkLXs1pblQpCWxgeEiBAgACBlQkIQlc2Ycq9iYAg9CYcviBAgAABAqsSEIQKQle1YHOxgtAsYU+AAAECBNYnIAhd35yp+EMCgtAPWXhEgAABAgTWJiAIFYSubc2e1SsIXeW0KZoAAQIECJwJCEIthDULCELXPHtqJ0CAAIFTFxCECkJXeQ0IQlc5bYomQIAAAQJnAoJQC2HNAoLQNc+e2gkQIHC+wC+88OXNdX//3vOf+MCRb37c53Q+54n1CQhCBaHrW7XnKhaErnLaFE2AAAECBM4EBKEWwpoFBKFrnj21EyBA4HyBFIT++//rt89/4tyRf/7Fn9p8+9d9wd7nHFyngCBUELrKlSsIXeW0KZoAAQIECJwJCEIthDULCELXPHtqJ0CAwPkCgtDzTbZ8RBAqCF3l+haErnLaZiv6Z37mZ3rb/qZv+qbe5z1JgAABAssKCEKX9dZbXQFBaF3Ptbb2e6/+8+bXf/d1neU/4TEPb+53rzt3Pu8JAgSOR0AQejxzsUQlglBB6BLrrHofgtDqpKtuMAWhr3zlK/eO4d73vnfz9Kc/fe9zDhIgQIDAYQQEoYdx12sdAUFoHce1t5KC0O/6oV/sHMYv/O9PEoR26niCwHEJCEKPaz7mrkYQKgide43N0r4gdBbW1TYqCF3t1CmcAIETFRCEnujEb2TYgtCNTOTEYQhCJwJ6OYEjEhCEHtFkLFCKIFQQusAyq9+FILS+6ZpbFISuefbUToDAKQoIQk9x1rczZkHoduZyykgEoTfVe/Wf/OVNDjz0gfe5yde+IHDMAoLQY56d+rUJQgWh9VfVAi0KQhdAXlEXgtAVTZZSCRAgcE5AEGoZrFlAELrm2atXuyD0Q5Y/+8svbdKf9vaTz3h8Iwxti3h8zAKC0GOenfq1CUIFofVX1QItCkIXQF5RF4LQFU2WUgkQIHBOQBBqGaxZQBC65tmrV7sg9EOWT/7+5zWvfv1NfyJUEPohH4+OX0AQevxzVLNCQaggtOZ6WqwtQehi1KvoSBC6imlSJAECBD4oIAj9IIUHKxQQhK5w0mYoWRD6IVRB6IcsPFqngCB0nfM2tmpBqCB07No56OsEoQflP7rOBaFHNyUKIkCAQK+AILSXx5NHLiAIPfIJWqg8QeiN0OnfBn3y9z3vPHU/EXoeiQNHLCAIPeLJmaE0QaggdIZlNX+TgtD5jdfUgyB0TbOlVgIECPir8dbAugUEoeuev1rVC0JvlBSE1lpR2jmkgCD0kPrL9y0IFYQuv+oq9CgIrYC4oSYEoRuaTEMhQOAkBPxE6ElM82YHKQjd7NSGBiYIvZFr3y9KSs/4idDQcnLygQUEoQeegIW7F4QKQhdecnW6E4TWcdxKK4LQrcykcRAgcCoCgtBTmeltjlMQus15jY5KEHqj2L5/HzQ9IwiNrijnH1JAEHpI/eX7FoQKQpdfdRV6FIRWQNxQE4LQDU2moRAgcBICgtCTmObNDlIQutmpDQ1MEHoj12d+5TP3uglC97I4eKQCgtAjnZiZyhKECkJnWlrzNisIndd3ba0fWxD6Z3/2Z2eEV1xxRZMft00/7uM+7uzLL/3SL20fnv1xriXVlbcHPOAB+WGT6/rggSN78Ku/+qsfrCiNJdWb6q9R965N/jp32O5j6XnLNaR9rqs9h+3n0+M8p+2ad8+Z6+vS+g5R21xj1u44AUHoODevOg4BQehxzMOhqzi2IDT9W51pe83rP7D/wNfZ6SEPvM/Zw//xK/5pPjR53/Xvg6aGlwpCUw1DY071PORB92ke+gGD9PWht/RPCuTtNR+YqzRHNecnt5/2h1gf7f77Hufa/mPLZPf8vH7nmkdB6K74tr8WhApCV7nCBaGrnLbZiq4dhP7Ij/zIBwOn3aIvueSS3UMf/DoFdSkIymHQB5/oefAlX/IlzZzBWg4PX/SiF/VU8aGnhurpsknB1nd+53d+qKGeR9E20hj66u+bk54yzuYp+0TmLLeZrGoFsbnNfftU29g607ykP3OtseyW6suP942h61gyTNtc9XX16/jhBQShh58DFYwXEISOt9vSK2sHoWNDxfS6FCC9+gMBaIlxDtvyvuQ1Xf8WaMlr953z8v/76fsODx5rh2aRMeeG85jzPh8fu+9z2RcG952fatj3mnR86fUxV+CYxpK2Mev2xlfe+N88f3nffm7MY0HoGLX1vkYQKghd5eoVhK5y2mYr+tBBaFewFxnwUAAZaSudOxQeDrXXVU/XWOcKQp/0pCcNldpEg9AcLI4J7vYV02W179zIsRwu1qwz9V8jdKxtmOqayzG1bTs+AUHo8c2JisoFBKHlVls+89BBaArU0k8SjgkD87ykEKk0SBoK8HKbpfsxQWjtGiLj7xpXX027oWbfubn93dfk49EgNPW15PrIdQ7tSwyG2th9vsY8CkJ3Vbf9tSBUELrKFS4IXeW0zVb0IYPQrmBwzGBrBUFTQ9Bc+75wsyuY3Hdubmd332W220bXebvtRYLQWja7NaSva83fHCFju96pdc5pWNOxPWaPj09AEHp8c6KicgFBaLnVls88ZBBaM0wqDZFq9pnWRSQInfrTg33rsHT8XW30ubRDzb7z2m23X9M+HglCS/tqt9/1eKpPbnfOOUx9TK1TEJpn6jT2glBB6CpXuiB0ldM2W9GHCEJTWJWCutpb+uvlKRAcu5WGh6Xtp1rSTxDmmpYKQiPjKA1C5w7wkunUkHGudbU737uh8+7zXV8vYZj6nurYVb/jxyMgCD2euVBJXEAQGjfb4isOFYTWDLnyvJSESLX7LQ1Ca/ebx9zeP/Tcvx/6k//b49uHih/31ZdDzb4Qc7ej/Jrd431ttF/z5O9/3qSfEt7tN31dsj72vS4f66s9n1NjP2UeBaE1ZmA9bQhCBaHrWa2tSgWhLQwPm0MEoV2BYJ6OHBzmr1PAVbKNDahS25GQKvWTa2zX1n7crjeHjV3jjtTdFXLmNqJhYK6tXe/u46hNen3bp8tlt5/09dgQLzLuXFvqLz/ONeZ9eq5vy95957Sfm2KY2kl1ldaWzp/6PwVSG7bjFRCEHu/cqGxYQBA6bHQKZxwiCO0L3ZJ5CoLaW+SvzbfDtHYb+fFQ3/m80n1JEBrpsz32/It1In81fGyI1ldjNv3Mr3xmKcukfyO0r5ZUQNsofR1ZHyXzldrct0XGn2vMc5jai8zj2NBWELpv5rZ7TBAqCF3l6haErnLaZit66SB0XyCUQqX2T07uG2x6XUkYNCYASu0O/YRqCujS1vdvRKZ2cp3tMeRwrysIzc+3X9P1uCsITeenULPv+Rz65bZTvUNB6L75yq9v79MYhn75UaStPud2v/nxUNtp7OnPUI2pvdRW2vp+yVR6vnTehmpLbZVcA+m8tJW0l84bmtt0jm2dAoLQdc6bqm8UEIRaCUlgySA0hTtpS0HX7paCo28893zXb0RPP42Xfqv6vte22xoKAlM7u1vfL2lKNadfuNO1ddWbzy/9KcKh8af28tjzPvexux8y2D0/fZ3a7Go3BaFpe/L3Pe9sv/uf1F97S8FkDk/bx9PjPo/0mq45HvKptT52681f9/nkc4ZqzOeltkpC0S7D3M6+vSB0n8p2jwlCBaGrXN2C0FVO22xFLxmEprAnhW/trTRMyq8ZCoFSH6W/gT232RcepnNq1Lhv7Ln/SPt9taZxp+fbW2o7bdFgMbfRFd7m5yO159cMzWE6LxJoD7U3Zk2kGkoC8pKwcai+MYapvrnaTW3bjltAEHrc86O6fgFBaL/PqTy7ZBCagqLdn95LxyJ/nbskkIr+1F/fX8MeE0a1105f2+m80vCs3WaJQbTuvjZTW/vC4jE/tdgXhB7r+kj2Qz8NGvVObfaZp+ej10Z6jSA0KZzOJggVhK5ytQtCVzltsxW9ZBC6O4hI2NV+bV8YmM4rCadye0Nh11whVe4/7SN99I19NwiNtNuuJz+eM2gbco+El311TjVIFkPmqda+rS9MHnsN5P76xp7OiVwLuU374xcQhB7/HKmwW0AQ2m1zSs8sGYTuuo4J0lIbQwFSNJTqCyujbbXHOFTn2PHnPvrqjoZofbXuBpRT6u4LQvO48n5sP31jSW1H57R2e3l8aV+7bUFoW3f7jwWhgtBVrnJB6CqnbbaiawehQ8FMHsiUgGooRIuES30hVySMy+Nq7+ew6Ku33fcU39TOkPHU9kv6KJ3HvqCxRhDYZzG0RvrWQA3D5Ni3JkoNUzu29QgIQtczVyo9X0AQer7JKR45VBA6NuTKc1QzBOxrKxqa5frSvu+nCKNBZbvd9uO+2iPGfYFcOwidWndpEBqpve2RH/e5RMfQN49T60z19rUfXX+C0LwCTmMvCBWErnKlC0JXOW2zFX2IILRGANQX/pS23xdwJfAaIVJfEJYntbTedH7fuHN7Q+FcPq9vP1R3jYAx9d83B6XjmDsITXXuuqfa8pbWSdfW5xiZ96720/F9hrm+oX97t69dzx2vgCD0eOdGZcMCgtBho1M441BBaPSvr+/ORV+gFg26+kKzaBCV6+wLFtM5U8ef++lziPQzVG/ub6xHfv1Qvfm8qT59/UTXR19QWSMI7Vt/0VoFoXkFncZeECoIXeVKF4SuctpmK/oQQWiNEG03mGoDlQZo+wKkdjs16uwLwnJfkUCsb9y5vRoBbl+4GKk319S37xtTyRx01Vq6Dvpqy8+ltZK3HDLmr/v2ffNfY55y37m+SG35tfbrExCErm/OVPwhAUHohyxO+dEhgtAa4VFf0JXmMxKk9QVRY4O/vmCxxvjba7avr9L6+9rIfUVDufy69n5o3tK5NXyG+ildH6md9O+jpm3337dNx0rbSed2bbVqTe0LQruUt3lcECoIXeXKFoSuctpmK3rpILRWiNYXYpYGYH0BXGkbJRPTFdTl10ZM+mpO7dWouy+8S32UhJPpvNKtby5LwsI+39q1lo4pn9c3thpzlfuxPy2BF1x6afPmK68sGvRzn/vcovOcRGApAUHoUtLH3c8hgtAa4VFS7ftJvdIAMLUzRxBaq7ZUX8nW1V9peFkShEZMu2oeCv3S645tfewbSxpH2h76wPvsezp8rGv+UkMRD0FomH7VLxCECkJXuYAFoaucttmK3mIQmrBKArC+AK0kgCudlKFgsWYQWqPuvnojtZb6pPO6At6SsLDrtanduepNbZdsfUFoen3JOi3pxzmnJeAnQk9rvrc2WkHo1mZ03HiWDkJr/LRfHmmtALNWO7muoVAxEmzlNof2XWOoFYSWtjNU51AQeozrY2hMNZ4XhNZQPL02BKGC0FWuekHoKqdttqKXDkJrBT9TA6ah19cIFPOkDfUVCev6Qr/UX426+/qI1JrHX7Lv6nNqEFrLpGQM+84ZmvuS8e1r17HTFhCEnvb8r330gtC1z2Cd+rcahEYCta4QMQmP+SnIviA0Uldkhvv6LAle+16f6qhVtyB0/6z2rcGS+cut+onQLHEae0GoIHSVK10Qusppm63otQahCWTKT3QOBVS1Ats8cX21RsKwrsAw91Oj7r5aa7Sfa23v+34KdajPoblM/cwV4LbH0PV4aM4i89/Vh+OnJSAIPa353tpoBaFbm9Fx41k6CB0TLHaNrC88igR3fe2MqbevvUhdXePed7wvYCwZw1AQWtLGvrp2j/XVmc6t1U9q6xDzkPods/XVKggdI3oarxGECkJXudIFoaucttmKXjIIrR349AV2Qz8Z2Ree1a4zTV5fGBbpr1Y7XQuqzyW9ZiiU7Gp36HhfEDo0l6ntvrWQ+05haNrSb1JfchsyzbUcMqzNNdivQ0AQuo55UuV+AUHofpdTO7p0EBoJdYbmoi88igSOfe2MCeb6/przmPaGHNLzfQFjSZ/HEoQe4/oo8Z96Tt+aiZj4idCpM7Gu1wtCBaHrWrEfqFYQusppm63oJYPQ2kFPX/g1FJ71BW+RYLJ0YmoFmLXa6ap7KLQ71iC0bz53x5rmN/1ZMhDtm7fd+g4V2O7W4evjFRCEHu/cqGxYQBA6bHQKZwhC+39ysCRE3F0nfaHWmPZ229/3dV8QWhIKDwWhkTBuX335WF+d6Zxa/aS2+gLuEpPUxpgtjTFtr3n9jft2G6/5wHPtY+nxvt9In8+JmAhCs9pp7AWhgtBVrnRB6CqnbbaiBaHn084RhPYFdZH++gK1GkFzX53nSy1zZCjUzlX02eRz9u1z8PiABzzgLCDdd87UY0MBc1f7ObRNzy8Z3HbV4/hxCLzgBS9o3vzmNxcV47fGFzE5aUEBQeiC2Efc1ZJBaK1fuJM5awVdfe1Eg8uhoC/XvuS+xL0vCC15fel4+nxq9pPq6ZvXWkFoGs9//OWXng2/L8ws9dl3niB0n4pjSUAQKghd5ZUgCF3ltM1W9KkGoX2hWY1AcXfC+gJGQeiu1k2/jsxH37zetNXur3L4WDsY7VsD3dWc/0wObgWj59ucypEXXHpp8+YrrywariC0iMlJCwoIQhfEPuKuBKH9gZkgtGlqBpRbCEJz+DlX8Ln7diEI3RXxdRYQhApC81pY1V4Quqrpmr1YQej5xJHg7fxX7z/SF4LVCkJLf3Jyf4U3Hu2rs+91cz4XnY/aY6gZPI79ydAu3xzaCkW7hLZ53F+N3+a8nsqoBKGnMtP94xSECkLTClkqoFyqnzSm2j8RunQAmsaQNkHojQ7+e76AIFQQev6qWMERQegKJmnBEpcMQmsEdW2aKf9GaN9PDkaDt3ZNXY/7wjlBaJfajcfHzEcKHK+44ormRS96UX/jwWfH1LKvi771sO/8kmO1aivpyzmHFRCEHtZf79MEBKHT/LbyakFof2AW/YnQvr9ifqg1U/ITnUsFlEv1k6xrBqGHnFdB6KGunOPvVxAqCD3+VbqnQkHoHpQTPiQIPX/y5wiU+oIvQej5c9A+MnU+kn0KRtOfGtvUeto1pNrSVjOwrf0/HNr1enwcAoLQ45gHVYwTEISOc9vaqwSh/YFZNAjtC/oOtXYEoefLR/6N0GgImrzz9pAH3vj4Ia1j+bn2/snf97z2lzd5LAi9CYcvWgKCUEFoazms56EgdD1ztUSlgtDzlWsGXbn1rQShyWbprea/1ZmDx6nB6BxrJP8Ua/I9xvqWnnf9dQsIQrttPHP8AoLQ45+jJSoUhC4bhKYAbukthXAP/UAg19V3X4AbCQ272s/H+/opCWxzOyX7Gj8RWhqCptq/8dzcDjl31f2ZX/nMrqf81fhOGU8IQgWhq7wKSoPQe97zns1jH/vYVY5R0eUCpxqE9gWTc4Rcff2l2brkkkuKJq3vr/TX+EnAWnUWDeYITmqHj9GfypxjneyS5PrGBKM11sNuPb4+DgFB6HHMgyrGCQhCx7lt7VWC0GWD0OhPmC613voCSkHojb8VvmsuasypILRL1/E+AUGoILRvfRztc4LQo52agxS21SB0KFjsC/zmCLj6+ksTP1RvXhyC0Cwxzz7NU9pKQ9Glw8ahddRWifyTC+3XeXz8AoLQ458jFXYLCEK7bU7pGUGoIDStd0Ho+Vf90E+D1vwJVkHo+f6ODAsIQgWhw6vkCM8QhB7hpBywJEHo+fhzBEh9AWaq4FiC0PSTh6nWrq20zq7Xr+l4Seg4x1opMSqpLbWzdFBbUrtzpgsIQqcbauFwAoLQw9kfU8+CUEFoWo+C0POvyqEgtMZPguZeBaFZwj4iIAgVhEbWy9GcKwg9mqk4ikIEoedPwxzh1laC0FML1koCx0OFwym0TvWlfdc2x1ru6svx5QQEoctZ66m+gCC0vukaWxSE1g1C0xroC7Vqhmc115sg9HzNvnlc6p8LSFX5ZUnnz40jNwoIQgWhq7wWBKGrnLbZil4yCK39V87/f/bOPui2qyzsO7kkEkkMiYmJ5SMgkHsJCibOSKot0o71I82lIBqgbRhJx0n5mCoDfxgh7TDB0c5Ii52AZZhEKZZWWs0duLZl6IBFizbSxE4I4VIVSRNFE8B83pCQ0Pc5Nw93v/vd+1kfe6211zr7t2eSfc7eaz3Ps37POrb8st9zrrzyykkuLjlV+slHq1ZZhKteXaglVFNJSqvWVDl0PS2cXTJ0SSaufYwIbWGHhdeICA1nxox6CCBC6+nFkpVsqwgNEY7Wj+qExNE+WvFSCjTNl+JsidCUfwJeKo8wsfrg01dLhPrM9+2L68lTRKgvyfWNQ4QiQpvc9YjQJtuWrWhE6DhaXzE5Pnv3VZesktG++UqIUCtHapm9m1S972pm4hK1vnurXvpUNiSACB0S4X1LBBChLXUrX62I0PnCbNgdS8CllIrDvHPelxKUpfIIC6sPLpFp1SmxQ+SkjLcORKhFh3sWAUQoItTaH9XeQ4RW25pFClurCBXY1pOPKYWfJdG06b6yyoqVqmYrx1qfMKydibWXl3xiVfc357QEEKFpeRKtLAFEaFnetWZDhM4TZmN9LSnRxvLHXLNqTilvS+URBq2IUOvJU1lHiHT99Q99snv3Bz4m0/Ycr7jke7uffvUP7bnOhXYJIEIRoU3uXkRok23LVvSaRaglt1JJRWmcJam0sTWJUNcTrGsUaxaTGuSwtZfX2C/9XG3rGRG6rZ1dx7oQoevos2uVJUWo1BIidVy1zxFd/dip4mhMS/bJGNfTiBqn5NmqGRG6txOp9rHraVDJHJILEbq3V9t8BRGKCG1yfyNCm2xbtqK3UYT6iqkSf1LsyqGNrUmESk2WvE0piXX9kk/iynHw4EG9bJ5FTspx5MiRb/xgkFzz7b8ZfHDTEqFTPIb16XvfXg9KMN9a+yxHPrMYbmYngAjNjpgEGQkgQjPCbSg0InTek4NTrbbkakqxqPlFqOkh30MaetQgQqXmEOnnWqPVA5eMtnikrNP1NKjkctXa54AI7dPY/teIUERok7scEdpk27IVvWYRasktAT4luEKaYQnFfhxfWWU9+ZeiXq3JyiNjUj5lOCbxfKToVI05ROhYjcpqjLu1t8bGa6zYs7XPfPdWbG7mlSeACC3PnIzpCCBC07FsORIiNI8IdYm0ELnl2l9jTxWKbL3wued1vlLUqjeluLXyyDpbEaEp+jfWt7Feh+RChI4R3N5riFBEaJO7GxHaZNuyFV1ShKYWVFPyJyTPVAwFPkciTYk6jd0/++YJFXL9HCGvLZEncUIYW3ldeSwu1tzUstHaJ1O5rP7nFsl95hbD/jhet0MAEdpOr6h0LwFE6F4ma7yCCO06S0jN+ZV364nElHLReqrQt35LUKas1cojn79SItQnTwquU/83xdpzwzmI0CER3isBRCgiVPdCU2dEaFPtyl7s2kWoJRYFfqzwG8aVOCLupg5fWTWM2483JeT6Y0JeW7kkztx8lsj0iT93vi8LF4ep3lkiVHKnkqExktZ37YyrkwAitM6+UJUfAUSoH6dtH7WtItRHdGlvLSk1RwK6pN+c2Fq7JVt9JajEsmpNUafWa+WRMSF905hTZ4uNTx5rvuQMEZT9Gof7TfjKcdOtX+gP+8brkD7yROg3sK3iBSIUEdrkRkeENtm2bEWvXYQKWEskyX2RmPK9lXJ2HSLnRJz1pafOFzE2dUzJtOF4S8rNFZPDXPLeJfNic7okpjATUeg6LB4yV+Iof1essfuu+K71u/aWa/5YTXptbK/pPT377isdz7kNAojQNvpEleMEEKHjXNZ2NbUIFX7Wk3Q+Asq3B5aoCskzFFPD/CEiajjXqlHHxsQXoXj9zveCTskziR3CwBKUaxWhFhPhG8plKp4I1VS9RIRKZ9ZzIEIRoU3udkRok23LVjQitNuIy8OHDzsZD4WavJdDhJT8YI8cY3FU6E2JUImjYzZBjH9ZYm6OVJtK6RKWOk9yy+H6oSMfeSdxQtbiko0aT86u+mSMHL51ukSj1a9jmY79W9a7f//+aNnej6WvQxjqHM5tEECEttEnqhwngAgd57K2q4hQ+2lI3Q8iva7Y+RGii3a+d1MOkVo37zzBd+HOdb2mY4dnSwzrWJGhcuhZrw/PktclzTSOK1Y/9pSkkzGhwq8fd/jayiNjQ+TtMPbwvSWhffP49m6KtfZLahuT1jJP/kkl4xGhw12w3e8RoYjQJnc4IrTJtmUrGhF6DK2vsApthMooSyjWLEJlvaFsVBDLWdatR/+1Xhs7K7Oxe2PXLLZj4+Wa1KZ16hitT896fersW2cMv2FtUoPU5VubzPeV61Pr43q9BBCh9faGytwEEKFuRmsYgQg91mUf4TW2H3wkoUv+DeNKTDnkx45u3hGfeoyJNL3XP6tc619zvbZq9FmjK77et/LIGF9BqfGscwoR6hKU/fzCqd8zV7/6fXJx0Ty6N+R9X8zrfUSokljHGRGKCG1ypyNCm2xbtqIRocfRhgqr4zPHX4mIUqElAqvFJ0J1ZVb9OibFuc8sJF6p+rQmXwmq41PvLY07dkaCjlHZrmuI0O3q59pWgwhdW8fH14sIPcYlRHj1SYZIQkvM9WPOed2XayFxLBEXskZXTiuPzK1NhEpNsXtD5k4dY30K3R9j31GKCJ0ivp3XEaGI0CZ3NiK0ybZlKxoRuhttKmE1FHqWqAsRV1Z9oXJu98rd72QNkl/OqQ9h4Ps9rFZui481L+TesLe+c0vUlnsP+K6VcXkJIELz8iV6XgKI0Lx8W4m+rSJ0TBK5ehIjvEIlYUwOV916P2bNOtcSlKFr1JhjZyuPjC8lQkNZpezbmARVViFPJo+tARGqJNdxRoQiQpvc6YjQJtuWrWhE6F60scJPJJQcY99DaYnQEHllybSQOHtX7X/FqsE/yrGRqQRoP6/UJ8fY97X2x4W+TsU3JT9dQw6OGptzfQQQofX1hIr8CSBC/Vlt80hE6O7uhj6VFyMJRarJoefdFYS9k/zy59g+31VqRbYEZcwarVyW7KtVhMp65spQ4Tj25+x9VtIHn++AlTmI0D65db5GhCJCm9z5iNAm25ataBGhd95552j8ffv2dW9961tH701dVIk4dl9lzdi9mGtTf2ouseSpvRTHcD3yXg9Zj/yjx5gA1XspRWi/Bo0v5xRPVPbjuV7PEY66F/r8XPli7kuNwmuKmStmzjrn8NO6c9anOTjXRwARWl9PqMifACLUn9U2jxQR+u4PfGxyidf8zI913/HUsyfvj90QmTh1XHv15VO3gq+LmOp/h2Y/gEs49ccOX4fIKOvpvmHc4XsVoXoe3rfe+0g1a/7wnq55eF3ei2iVdaY6Wt8foUI0ple6J/Q8ZD8VU54I/a+fuGU4fPP+e5//zO6nX/1Do/e42CYBRCgitMmdiwhtsm0U3TgBS4TG/ql1TUhkfUeOHNlVkspHkXXyi+h65Jafmmd4VvEo17U2Pfdr6tfbvz6Ml/J9n5/W1K+zX4cK9/61lLUQq34CiND6e0SF0wQQodNsuAMBISByUA75dfj+Mffpy36s/uuh9FLJq0986ljXr9TrOM55Ccj+6O8N7Zdk7fdsbr90H+pq5sbTOJzbJ4AIRYQ2uYsRoU22jaIbJyBya+oJ1ve85z2Nr47yIQCBkgQQoSVpkys1AURoaqLEgwAEIAABCJQjgAhFhJbbbQkzIUITwiQUBDwJTIlQeaov1Z/xe5bCMAhAoHECiNDGG7jy8hGhK98ALB8CEIAABJomgAhFhDa5gRGhTbaNohsngAhtvIGUD4GKCCBCK2oGpQQTQIQGI2MCBCAAAQhAoBoCiFBEaDWbMaQQRGgILcZCIA0B+bP4/nc/atRt+H5QXQtnCECgDAFEaBnOZMlDABGahytRIQABCGo30ocAAEAASURBVEAAAiUIIEIRoSX2WfIciNDkSAnYOAERlPpDP/JaheWll166+SX2ucuTeHw/6FyKzIcABJQAIlRJcG6RACK0xa5RMwQgAAEIQOAYAUQoIrTJzwIitMm2UXQmAvJL4ocPHx6Nnur7O6eeBk0Vf7R4LkIAAltLABG6ta1dxcIQoatoM4uEAAQgAIEtJYAIRYQ2ubURoU22jaIzEbBEqKSc+1SoFZ8/i8/UVMJCYMsJIEK3vMFbvjxE6JY3mOVBAAIQgMBWE0CEIkKb3OCI0CbbRtEZCVx55ZVm9FgZaklQngY1kXMTAhAwCCBCDTjcqp4AIrT6FlEgBCAAAQhAYJIAIhQROrk5ar6BCK25O9S2BAFLWGo9Ii4PHjzYydl1+MTjaVAXRe5DAAJTBBChU2S43gIBRGgLXaJGCEAAAhCAwDgBRCgidHxnVH4VEVp5gyhvEQI+8lIKUyGqr7VY/cGlqe8b1XE6T0QoBwQgAIEYAojQGGrMqYUAIrSWTlAHBCAAAQhAIJwAIhQRGr5rKpiBCK2gCZRQJQHXn8inKJo/iU9BkRgQWDcBROi6+9/66hGhrXeQ+iEAAQhAYM0EEKGI0Cb3PyK0ybZRdAEC8lSnPBkq5xwHEjQHVWJCYH0EEKHr6/k2rRgRuk3dZC0QgAAEILA2AohQRGiTex4R2mTbKLogAd8/kw8pKfYHl0JyMBYCEFgHAUToOvq8ratEhG5rZ1kXBCAAAQisgQAiFBHa5D5HhDbZNoouTCDl06FI0MLNIx0EtpwAInTLG7zly0OEbnmDWR4EIAABCGw1AUQoIrTJDY4IbbJtFL0gAf0hJP2TeT1PlSR/Ai//7N+/3+tX5qficB0CEIDAGAFE6BgVrrVCABHaSqeoEwIQgAAEILCXACIUEbp3VzRwBRHaQJMosXoCUzJUBCgHBCAAgZwEEKE56RI7NwFEaG7CxIcABCAAAQjkI4AIRYTm210ZIyNCM8IlNAQgAAEIQCAzAURoZsCEz0oAEZoVL8EhAAEIQAACWQkgQhGhWTdYruCI0FxkiQsBCEAAAhDITwARmp8xGfIRQITmY0tkCEAAAhCAQG4CiFBEaO49liU+IjQLVoJCAAIQgAAEihBAhBbBTJJMBBChmcASFgIQgAAEIFCAACIUEVpgm6VPgQhNz5SIEIAABCAAgVIEEKGlSJMnBwFEaA6qxIQABCAAAQiUIYAIRYSW2WmJsyBCEwMlHAQgAAEIQKAgAURoQdikSk4AEZocKQEhAAEIQAACxQggQhGhxTZbykSI0JQ0iQUBCEAAAhAoSwARWpY32dISQISm5Uk0CEAAAhCAQEkCiFBEaMn9liwXIjQZSgJBAAIQgAAEihNAhBZHTsKEBBChCWESCgIQgAAEIFCYACIUEVp4y6VJhwhNw5EoEIAABCAAgSUIIEKXoE7OVAQQoalIEgcCEIAABCBQngAiFBFaftclyIgITQCREBCAAAQgAIGFCCBCFwJP2iQEEKFJMBIEAhCAAAQgsAgBRCgidJGNNzcpInQuQeZDAAIQgAAEliOACF2OPZnnE0CEzmdIBAhAAAIQgMBSBBChiNCl9t6svIjQWfiYDAEIQAACEFiUACJ0Ufwkn0kAEToTINMhAAEIQAACCxJAhCJCF9x+8akRofHsmAkBCEAAAhBYmgAidOkOkH8OAUToHHrMhQAEIAABCCxLABGKCF12B0ZmR4RGgmMaBCAAAQhAoAICiNAKmkAJ0QQQodHomAgBCEAAAhBYnAAiFBG6+CaMKQARGkONORCAAAQgAIE6CCBC6+gDVcQRQITGcWMWBCAAAQhAoAYCiFBEaA37MLgGRGgwMiZAAAIQgAAEqiGACK2mFRQSQQARGgGNKRCAAAQgAIFKCCBCEaGVbMWwMhChYbwYDQEIQAACEKiJACK0pm5QSygBRGgoMcZDAAIQgAAE6iGACEWE1rMbAypBhAbAYigEIAABCECgMgKI0MoaQjlBBBChQbgYDAEIQAACEKiKACIUEVrVhvQtBhHqS4pxEIAABCAAgfoIIELr6wkV+RNAhPqzYiQEIAABCECgNgKIUERobXvSqx5EqBcmBkEAAhCAAASqJIAIrbItFOVJABHqCYphEIAABCAAgQoJIEIRoRVuS3dJiFA3I0ZAAAIQgAAEaiWACK21M9TlQwAR6kOJMRCAAAQgAIE6CSBCEaF17kxHVYhQByBuQwACEIAABComgAituDmU5iRwzx/8WnfPjb/qHCcDzrz4J7qTz3yq11gGQQAC203guv/8ickF/pMff9HkPW5AAAJpCSBCEaFpd1ShaIjQQqBJAwEIQAACEMhAABGaASohixFAhBZDTSIIbBWBN1zz/u6mW78wuqZr/8Xl3UXPPW/0HhchAIG0BBChiNC0O6pQNERoIdCkgQAEIAABCGQggAjNAJWQxQggQouhriLRTbcdE1c3Py6wbn78vRZ3YU9eXfi885BZCobzHgKI0D1IuACBRQggQhGhi2y8uUkRoXMJbvf8d7zjHbMW+LnPfW7P/PPPP9+8tn///m5szJ5JXIAABCAAgQ4RyiZomQAitOXuuWsX8Xn943/CPPX0njtK1+mfOuvZZw5jtpsAInS7+8vq2iGACEWEtrNbe5UiQnsweLmHwJVXXrnnWskLIkTlH+RoSerkggAEWiKACG2pW9Q6JIAIHRLZjvfy/Y3WdzjOWaXKUD3PicXcdgkgQtvtHZVvFwFEKCK0yR2NCG2ybcWKXlqEDhd66aWXdgcPHhxe5j0EIACB1RJAhK629VuxcEToVrTxG4vIKUC/kaT3QmQoQrQHZEUvEaErajZLrZoAIhQRWvUGnSoOETpFhutCoDYRql1BiCqJNs7yFQlHjhzZVSxCexcO3kAgmgAiNBodEysggAitoAkJStA/gZ/z5++xZSBDY8m1PQ8R2nb/qH57CCBCEaFN7mZEaJNtK1Z0rSJUAMifzL/pTW8qxoJE8QTku2aH3xcrveO7YOOZMhMCSgARqiQ4t0gAEdpi13bXXPop0N3Zj7/jl8KPs+AVBCAAgVIEEKGI0FJ7LWkeRGhSnFsXrGYRqrARakqi3jMitN7eUFn7BBCh7fdwzStAhLbd/VAJetHOL8FfsfPn7HJc1PuF+D4FebpUf1U+9HtGkaF9kryGAAQgkJ8AIhQRmn+XZciACM0AdYtCWiJU/jxdfsTI55h68q//lKD+6bRc6193xefJUBeh5e+P7SME9vJ9oYLtIIAI3Y4+rnUViNC2O/99r3y7cwEqP6fEpzPAzoAQ4YoM9SHKGAhAAAJpCCBCEaFpdlLhKIjQwsAbSzcmsHQJuUXWhz/84U2qw4cPa8rJMzJ0Es3iN0RqyxOhwyP3/hnm4z0EtpUAInRbO7uOdSFC2+2zj5xM/f2dPjlFvF579eXtgqVyCEAAAg0RQIQiQhvarsdLRYQeZ8GrvQSWFKFajQhRHxmKWFNidZ0RoXX1g2q2jwAidPt6uqYVIULb7Lb8+fob3vZ+s/jUElST+chQngpVWpwhAAEI5CWACEWE5t1hmaIjQjOB3ZKwNYhQQTkl0/qYeSq0T6Oe12PfDyrVIa7r6RGVtE0AEdp2/9ZePSK0zR3gkpG5JKjScuXnqVAlxRkCEIBAXgKIUERo3h2WKToiNBPYLQlbiwgVnD4y9D3vec+WkN+eZSBCt6eXrKROAojQOvtCVX4EEKF+nGob5fpu0E/+x7dmL/kN17y/u+nWL0zmKVHDZHJuQAACEFgJAUQoIrTJrY4IbbJtxYquSYTKol1/Js9ThsW2hneiqT1Er7wRMhACJgFEqImHm5UTQIRW3qCJ8iwRmvtpUC3J9ef5/Hm8kuIMAQhAIB8BRCgiNN/uyhgZEZoR7haEnpJYsrQlRJbrqVD5JfuDBw8mJy955ZBfttfX8l5ey5/k66Gv9+/fv+u63l/b2epXif2jvRr2rd8H7Zlcy7F3+rmmXvfrlDH6Xl7362NfCRGOIQFE6JAI71sigAhtqVvHa7VEaEkBqU+Fyp/C63Hhc8/rLnz8/Zxfqtd4/bPIVzlu3nkS9ebHX8t7eTJVa5D8eogUruWQrxOQo1+3skrNqZY156ijvweG8WXfLcVS6hruy359/X25dJ1S11ittdTY58ZrNwFEKCLUvUsqHIEIrbApFZVUmwgVNFN/ai33UopQkVH6y/V9MSV5fA+pR44Ugs16GjbluqXeqb6LlBOBOXZYfRkb77oW+zUHc/uWsmfWGrXOOXsLMWoRXs89ROh6er2NK0WEttlVS4SW/JN0kT+5xZPkuP5xiWj9Kf5UJ1WG6nlqnO916/tRxyS0NV5ySl0ixqwfvxqL61uvzzhrP0l9Y+xUgo/FT12v7gHf/mu9eh6rMcW10LqGObU+PQ/vp3o/p075DwwiSHPXmGqta4yDCEWENrnvEaFNtq1Y0VNCTAoo8UTf2EIt4ZZCCM4VVGM1p6gLETpG9vi1Wvt2vMJjr6SPUmusAB3Gk/cp9tdYXK61QQAR2kafqHKcACJ0nEvtVy1xlVpCLcnCJRFDaxOZM1foWDUN2VtjtXatyRKLOX98SiSZJWG1Pq1Xz1a9Qw46J/Tsw88Vc6p+1zzr/hyxOBY3R42Sx+rRWB2ua1KnHHp2jed+GQKIUERomZ2WOAsiNDHQLQvXmgi1nlj0aY0lG33mu8bMEVZWbXPiDmsWQSeyeeyw+FqCeiyW61rIE6EWG1ce1/1UbHOI2n7tVm/643i9fQQQodvX0zWtCBHaZrctEZpTmpWilUKATdUqEmfOnyZbtfUFoDWuX5tKMJeQzPWkr6vOqbyWZOtz6K/V97WLhW8cHaeM9f2cs7XuOXFlbqo6XT2tpc65dTD/GAFEKCK0yc8CIrTJthUrukYRakmvOdLKipsSeGyNVn2xMcfW1ZoItbiMrS/m2lzJaDGNqceas9ST2lZN3MtLABGaly/R8xJAhOblmyu6S8bMFVG56vaJm1viaA2xjCxJpzGtMZpfz335ZQluja3zUp2tnP3ahvmsPTin1lz9T/EfCKw1D/nEvreY+8TMxW+YOwXPYUzexxFAhCJC43bOwrMQoQs3oPL0NYpQ68nDWCEYItNEismhZ22hyC75x+eIqdOqMSbeVJ2WtLOEoNWXqVzWdZ8nQi0mw9jaLz3L/ZCeWWsf5hq+tz5H/bFam571Xqk6NR/ntgggQtvqF9XuJoAI3c2jlXcuIdOqpAiROLJGOfo/8CI/ROT7PZIyN0bYWZJT47n6I7n16Isva16OnlprkfqmngaVe1atykHGhRy+/dfea+zcPZc81nq1Dj1rfbF7s78nNKbP2ZefxJIa+/Vp/JDPUGydmotzGgKIUERomp1UOAoitDDwxtJZAmepJ88s4RYjBH1kmogp+cGjoaAaa6fE8xFXofysOmPWPVa7XIsVoWPxrF6Frn8Y3+LRHytsXD8qJLHkOHz4cH/qntfSf6k75HDVqXtLYrr2l/TmyJEjWeoMWRNj6yKACK2rH1QTRgARGsarltEugSV1tiYpfNak63L9abvEkl/FFjFkHTFy0apTBKAcU9+5qYKsX1P/h2is2DLHEpP9mL6vLXHm2j+WGIwRoVYtsh5hd8XO1xpYP87liqFxrr36WJ9ScNIYPvXJWJ8aZZyLv4wZHtbTvTLWt0YZK3X2z5s3I/+K6fVIGC7NIIAIRYTO2D7LTUWELse+hcw1itDUNVnxpEexktFHgIVINStebI1je7AVEerqWw5pKbxCBK7FUmLF1Cjz5LD2g9wPqVPGc7RLABHabu+ovOsQoe3uAktE6apiZIrOLX12CaIQidOv3cUplJElK0UKyS/cD59QDMlhyazU0snK5arZ4hpap6v3rlr6/ZbXrniyl3xlqCuW5Autz6dGGRMivl11xtQoNVj7Xe6HsJTxHOkJIEIRoel3VYGIiNACkBtOYcmmJUSLS/74/Dl1vx2ueHMFY8r4Vqy5dfaZWPIuVNzleiLUYiFrmcvDqjuEgVXn3BplnVb8kDolFke7BBCh7faOyhGhLe8Bl6DQtYkAkUPPer2mcy6Jo2t0xQ8RdxZ3YSy59IiRT5ZgTCmdrHVI/S4JZ9UZwjNlb5S7nK365L5vjZYsDokjY4eHqwch+8dab0icYY363orvy1JjcU5LABGKCE27owpFQ4QWAt1omtpEqFVPjPix4qUQVdL2VqSabtEWROjSffPdG1bvfWNoX6bOUyxiPg9TObheNwFEaN39oTqbAE+E2nxqv2vJiWHtIkPk0PPw/pLvLdmUSv5Zwi0khyWvJI4+DRoSs8/eii/jXIKyH8t6bfHwEWfW3gsRY1bvfeqw1mjF9umPxUjyzq1PYrj67cvSWmuKPWPV6cNS1sqRhwAiFBGaZ2dljooIzQy48fBTkkWWVfqJUEsqST2hYsl6mk7ihT5dKnPGDkssynhfjla9oWsfq7N/barvoXLN6pnvuvt1yWuLg9wv0TdfDtb6U9U5zCG1ySFn+V5bju0ngAjd/h5v8woRoW1315IT1spUhurZGpv7nks2+Yognzoteecri3yZz6nbqnNO3D4jS5z5CL4UNbp679uT/rr6r129csW31ujDqF+L9dri4CMZrXWmrHPIQ2qTw/XdrdbauTefACIUETp/Fy0QARG6APSGUk4JMVlCrMgKXb6IRJFfcraOULFkrS21WBzKqv46fKWaJQBT1zvFxrdWXZ+17tj9M1Wb5EzNwWLuU/9UraEclefUWT4bEpNjnQQQoevs+7asGhHafictCeK7OhEa+gvSpeWoJYFSShxhYbHyFYxWDOXtI6907NjZyjE3tuSz4st9lyCUMUMpJtf08GU5V8Zqvqmza51Wna65Poym6hq7PsXTp99WrTk+Q9YPVo2tjWt5CSBCEaF5d1im6IjQTGC3JOyUyJHl+YiguRgsEdWPHSrAXE9phkrVfi1jr1Pks1iErn+sxv61qb6HCrzUIjQFx/46Xa+tfD77P/X6XfVyf50EEKHr7Pu2rBoRuh2dtERI7Ar7ctT1K+2xOWSeJcMsURWbc45wkpw+rOfW7coxV8KlkM9THIWRz/qtGiTG3DVKDDnG6pS9LYf1JKNVn4+c3CQI+JfVcxdPa26OWgOWxdACBBChiNAC2yx9CkRoeqbbFHFKiMkafURQKAsRT3KI9NPXrhgxEtCSipIvtQiVmHNZWjXHMJCapo6pWpcWoSUZKJspmenDYmquxPaZrzVwhoBFABFq0eFe7QQQobV3KKw+S96ERRofrU+L6nl8lP9VS+BIlFQyrF/RmBjT+z75XDWnEk9WnS4xpuuZOlvy2YeBxJ1bn7VXUzHU9UvP5Ah5ktFaX+qnLLXOqb749HtqrsTOVa/WzXlZAmsXoQcOHOiuuuqqRZpwwtd3jrHMhw4d6m644YaxW3uuSfGyiLUdiNC1dTxsvVNCTKKIfJOjLyxF7vge/XnDOL4xYmVSTUJN1uojlUvWPNX3UN6WCPRZ83AflGSgua2cLmFuzZX4qQW21sx5XQQQoevq97atFhG6bR09th5LMqVascpQPcfEterMJW8skekjnKz5wiCVxLPyzMmRirklCn041i7urPp8ZXHoZ2KKqU+/p+ZqDT490bGc2yKACEWEtrVjH68WEdpk24oVPSXEihVgJAqVcv1QlqDLJafm5pw7v79+1+upvocyt2qOEaFTdcl6YuK5OMh9EfayjrHDldOaq/Fy7TeNz3n7CSBCt7/H27xCROg2d7frRHrJoeccq50jLFNJuZB1WYLRRxZZ86UOnxi+9U7JOB8xNpUjFXNLvPkwmFqb1D1nT02tO+S6q8c1ilBXzTVwDekBY/0JIEIRof67paKRiNCKmlFhKZZ4WrLcufLIWpdLbsWu23o60EcwWlJxLo/hmqb4+NTZj2XVHMN5qi7JGROvX+vUa6tvPjktBv2cqXvYj83r7SaACN3u/m776hCh297h4+sTUXLzrTv/7Jxv2jmnPmLk1RIyzBJGPmuw5gtTHwnoy36ubBzLYzEPEXxzaivJcIyB65oli+dIaFdei6mrNy6mmlv2uBx61uuc2yWACEWENrl7EaFNtq1Y0ZZ4KlZEL5GIuIMHD87+hWxrXT5yq1eS90tLqPkIRkuopZZoU7l86uwDmYojY0I5u56udP2Zer+ukNdW33zW4Kp7WIv0cv/+/bP3+DAu77eXACJ0e3u7hpUhQtfQ5ek1ijwROSpHCkHqIxL71VhSLqVQ7Oe0hJGP5LLmSx6XsOrX4npt5fKpdRjfEnyhvbOknat3Vh1Sc0qGQwY+7636Yrj75JQxc5jKfKtuud8/ZB0XPnfnn51zyHen9mPwug4CiFBEaB07MbAKRGggsJUNt4RhKRQi3+SflHLIWlcuoWYJMR/BaElFRGip3bg7jy93S6bujrj7ne59uSr/AYADAmMEEKFjVLjWCgFEaCudKlunCBU5YuRoiFCzRGjZFR/L5iO5LDkpUVJLvClGPrUOGVqiLKRvEneOtLPqkNipGUrMkMNVX0isVGNdclnzWH3RMWNn6b8ciNExOnVfQ4QiQuveoRPVIUInwHB5Q8AShrkR+cjBmBosISnxlhChPnkRodPf1RmzD1LM8RWhkitWhg7rlJxyIEaHZNb7HhG63t5vw8oRodvQxfxrUDGqZ1dGH2njEoquHDnu+8hFq26f+aF1W2LLh3M/35RUlTGh8nFOXS7RGFpLf40pXrvqS5EjNEZIr63e+OaVvSxPjMqhktR3LuPKEkCEIkLL7rhE2RChiUBuaRhLhPr8WbALi0sOpcgxrAEROiSy9/2UdA2V01NxJGNob117Ze8q8l8JEaFSTeo16BOjSNH8va45AyK05u5Qm4sAItRFiPt9AipC9dy/N3ztklmWUBzGKvXeR2RadfvMD11LqnyW3At9GlTWYMk2l7Sz1iSxXXtHxuQ8rLXlzGvFdjEdzrX6PRzr815lqJ595jCmDAFEKCK0zE5LnAURmhjoloXLLUIFlyXL5H7qJzQRoULVPqZ6ggjdzS1UhOrs1EJU4sbWojVxbpcAIrTd3lF51yFC2QUxBHwki0vcuGRYTF1z5/iITKtun/kxNU6JuZB8Vs9ixONUTbK+ub2PqSeG69Qca21Tc3JfdzEdyy97Vb4DWHqf8ogR5ynzE2s3AUQoInT3jmjkHSK0kUYtVGYJEeoSk6HyzYXKlS+1eNV65uadkpMSP7UEm+p7aC+smrfhidBQHroX9CxCVI7Dhw/rpVnnufXMSs7kxQggQhdDT+IEBBChCSCuNIQl1gSJS9JZQnEppK6apS6rbp/5MWuzWPsKsqk/i4+t2ZKFrposhsIHEbp3l7iY7p2x+4rKUD3vvhv+DhkazizXDEQoIjTX3soaFxGaFW/zwaeEmCwsVGRZMCxhljrXXCFprcO6NzevxaiUCJX1hYhiq+bQ/eN6ilIYlD5S/oCX7I8jR45sliCv5Z+YAxkaQ63tOYjQtvu39uoRoWvfAfPWb8kwiWzJG5cME0Gn31E4r0r/2T4/FGPVHSsVXRXOzWmJ1FihZfXe6rus1VqP3K9dhC7x5+Epcwp/eVJUjjliNHbvbBLzr2QEEKGI0GSbqWQgRGhJ2u3lKiVChYyVK6XcmSskY7s4N68lFdcgQufyi+3bkvP0iVFZu/zje6T8vPjmZNxyBBChy7En83wCiND5DNccwSW0LCE2Z+6SzK26c4lQWe+UePTJaYnQWOk4VY/UavVd7ssx9YSq3IutSeamOKy1+fBOUUPpGCpE9eybHxnqSyrfOEQoIjTf7soYGRGaEe4WhLbkZOgTfS4cLtGVUvZZ6wp54tG1pv5964lGH3GFCLV/NT5X3/o9XPq1tYeGtaX+fA7j874eAojQenpBJeEEEKHhzJixm4AltFySxJrrI9N2V1Lm3VIi1MrrYjXF2dUfi6glC131SFxrPiLUIp//nspQPbsy+vTbFYP78QQQoYjQ+N2z4ExE6ILwG0htCcMcosWSfYIrVc7S65LaLYlVkwh1CekQ4Wj1M7SXrrpC40lPWj2svaRr8tlTOpZz2wQQoW33b+3VI0LXvgPmr98SWq6n56YEnVRVq1yxhKRrvXNpT/Gy8orMmhJatYrQpXtvMbNYz+1vjfMtFlrv2pjoums5I0IRobXsxaA6EKFBuFY3uLQwdMmuVHInpaDz3RSWvPJ52tWq2Wd+ijolxlIiVHKX3o+Ss9bD2k9a85rksK55jWdE6Bq7vj1rRoRuTy+XWskcEWrNnSPpcrJYUoRO8bJElCWy5jx5OVWLsPcRmVZdPvOX6rHkncMtZ925Ylu9kpzW/stVE3GPE0CEIkKP74aGXiFCG2rWAqUuIZ5cgieF9CslFfstm5tz7vx+LdZrF/8lRWgpBhafmu65epXis1LTeqllnAAidJwLV9sggAhto09jVYqQk+P6nSf+rvjxF3UXPfe8sWHZr1mSxCVILJnmmpt9YRMJlhShVu4peTj1FOlc0Wz1bqqWPlJrLXNr6+eJeW3VJvF81heTt+Y5Vr/XyqSWfiFCEaG17MWgOhChQbhWN3gJESqQLeEl9+c+6WY9eZrqqVOps3/MZWkxSSm8rDyynlpFaK6+9XtY42urX2tlUmOfctaECM1Jl9i5CSBCcxNOF1/kjPzS880755se/8Vnjb6kNLQEiauuORJV1176bEky13pT1DolNsfknMV37lONVt/Hahlb+9RaUnOUnoX+h4Kp2mQdvusbW3PL12BSZ/cQoYjQOnemoypEqAPQym/PlXex+CxRKTHnCh5X/BDZ57tGi6VPPuvpv5Qi1KpT1upTqzKxJF2MzLYYhNamNbZ+tvby3M9J62zWUj8idC2d3s51IkLb6aslnmQVc8VWLAlLjriEliUVpZ4ahZNVs2u9sYz786b2wVjuKRE6Nrafw+f1VB0y17dvVoxU+3mKgdRpcbBqs+ZJ3G09LCZLP8W7rcx91oUIRYT67JPqxiBCq2tJVQVZUixGZIUsziW95sq/kmtzrcVHLpYQXq46pX8+tWqfU4tQi4HkzL0ndV21naf2MiK0tk7lqQcRmocrUcsQQISW4ZwiiyXgJP4ScsaSTFKTjxyxRKqvUJNcpQ6rDyV6YOUf8ppi69MXF09Lig3rmIoVspapGK7r1h61OFi1Sc5UotZVf8x9qT30CVifPBYTi6VPbMbEE0CEIkLjd8+CMxGhC8JvIPWUYJHSS0gnS6TNrcGKnVogWRx9ha4lAVPVW7sIlZ6X7Jvkk95Jj+Q4ePDg5uz6l/RKjiNHjnT6Ws6p+jTMP7W/cuUb5uf9sgQQocvyJ/s8AojQefxKz7bkk9TiK6BS1T0l2jS+Tz3WmnKIRRFj8vUCF+58p+qFzzsvWBhZMihHvcqyf55i1udtCcAUEm+qBqmzX0e/7uHrEiytOl3yztrfvmscrnnqvfZLapJDz1Pj9bowlEO+K1gO/dqM1PVJbK1RXg8PF8vheN6nI4AIRYSm200FIyFCC8JuMNWUYJGllBChlvyTGuaIHlfsVOtzycWQJyxz9sNVp/CWI6ReS1rG8i3VN1nrFBMRo/v379/sPxk3PKbmybjYdQ9z6Hsr15zPh8bnXD8BRGj9PaLCaQKI0Gk2Nd6xxJHWm0OAaOz+2ZIiOs5HuLnWlFKwTNWs0knPWv/Y2VWvz5rH4oZcm1pHX8ROjUnF0xKMIXswVZwxfnN7ZdUm+VL2eqxf0k8R9ta+nKqxvxfG2MRcG6tR46TaVxqPsz8BRCgi1H+3VDQSEVpRMyosJad4812uJdMkhu8TlWP5rNipJJLFMLT2XPW65GKfXSoRGrr2fg0W01R9k3xWHouDxTNlfVKjJULnMJbYHG0QQIS20SeqHCeACB3nUvPVKfHRrzm3lLCEiNYRUoNrTSFiTfOPna08vvXOlWtjdYVes2pQVlNPM/qu01WTxVJrcMWQ+9Za5sq8KQaS14eDVZtvDBnnOqzPk6tOqw+uua66hvctniml8DAv720CiFBEqL1DKr2LCK20MZWUZYmg1E+2TS3Zkko6J7YWV+y5IsmSVFK7JdN0bf2zK14sB0uw9vPL65CarXrnsHX1ba5sdMX3qd367PjMH3Ife2/xDe3VWHyutUEAEdpGn6hynAAidJxLzVddckZr93maTMf6niW3/Amu/vnt1LxQgeWzphC5NlZXKmHkqrWUEJpaj3C6+dYvbP6MeYxDqvqm8kvO0F5ZsWJlniUXpUbfuFZtIXFk7Ngxt07XfvRd51ht/WtWnaGf935cXs8ngAhFhM7fRQtEQIQuAL2hlJbMiZVuMct3CZ854sslAWNii0iTmuU8dcTIMJegk1whfRmLJ3XJ9anaU4lQqTWGgcyTw9U3GRMTf4yJxOofPgx84sTUp3W4PhNzYmsOzm0QQIS20SeqHCeACB3nUvtVS0oMa08hRH0FqOYOFWEyz2dNMVLHp/YQOegSTyGxlFfMeaoO7bfwHB4x/IYx9L0lCEP7P7UWzRUi2nz6HcrBehJSagyNp+ty7XnfuFYvtL7+WfP7nn3iS60cyxBAhCJCl9l5M7MiQmcC3PLptYhQwewSX3PEj7VObbHEl8P6wRyRXy4BKjFi5KrMk8PFQcZYtargHKtTGVo5fCSg1CCHS9bJGGGhTOW11Cc/MiSHXt+8GflXqr5JaN/eKaORcvZcsjj2B0tM6ztHdazVOx2j55A+6RzObRJAhLbZN6o+RgAR2u5OcEmUsZWpJJN7Uz8UJCJJD5+nP3WsnkMlmM6Ts0u4yBhdg0u8+Agxiecrm2SsHC5pV0qESi0uQSdj+kfK2qxexewBK56uQXuuZ72ue9Z3v4ZycPVc69C69KzX+2fffSlzfOv0rc/3syO5feuUtVrrlVgceQkgQhGheXdYpuiI0ExgtySsJZpCnjxMgUMkkIgl64itySd2P68Iu+Ghkmp4ffh+jgSVWKG1DvNb71WeWQJPx1hx+vesPdQfN3ztIxxjWAx759s3qc+npuE6LJbDsfJe69Nzv77+67G5ei2mTp3LuT0CiND2ekbFxwkgQo+zaPFVjAzNtU6RLFfsSJGLdn7cZc7hI8T68SVv/3D92X5/bIzEcUknX3nVryP2dQgr4XTt1ZfHptozz8odI0IlgRVzTwGRF2J6LqlCP2vDfSkxQvZmKEPXvpT8w0NqlB9j0uPmx/8jSEidJfe71sl5N4G1i9DnHjjQ/exVV+2GUujdCV/fOcZyHTp0qLvhhhvGbu25dtVO8Qd2FrG2AxG6to6HrdeSWLHSMayC3aNdTxjOkYwxUm13de53c+rrR3dx6I/1fd3vpyXvQkVobK0hMs+q13f9rnF9Pq6xw/uxDIZxfN6HcPOJx5j6CSBC6+8RFU4TQIROs2nlTowASb22kpItVe2xQszFu6QYctXSZxW73n6M/mtLWoZKPN+4/XExr+cyCJWhMTXO+SyF7IeY2oZz5vR5GIv38QQQoYjQ+N2z4ExE6ILwG0hdmwgVZC7pNVcE5ZJWqSSobptUdY7VZTEOFaFSb0ytoX2MyaEsrbPwkT/Rl/OcI1d9WlOqOjUe53YIIELb6RWV7iWACN3LpNUrJSTNkI1ImxRPgQ7jyvuc65kjcFyyqaQIFU6+fx6fuq5cIjRH71PuU+m/75/gy1pCjjkStJ8n52dH8qSqs18zr+MJIEIRofG7Z8GZiNAF4TeQukYR6vPk5pyn96QtKaVVTkE1t06pTVgNj9QiVOJbMYf55X2oCJU5sjfk+0UPHz4sb2cdufo2t2dji4phNRaHa20SQIS22TeqPkYAEbp9O0EkiBx6zrHClGLJVV8qqZOq5tpEqCUkle3cJyE1Tv9s5Z0jmjVHqr7nWLvUmKo+iZVqb0osPfTzr2e9Pueco8459TD3GAFEKCK0yc8CIrTJthUrWuTV1JHiKbmp2K7rIpOs70tUieWK47oveeQIFWv9/PI69xEi16Sefn1jtVl8x8TpWIyxa9IzK7bO0fpi2akQlbO1TzRf/zw3dz+W9Tp2b2nMUnVqPs71EkCE1tsbKnMTQIS6GbU8QiWInmPXIgJEjlxPf/rUpWvQs88cGZNa3ugTgWP55fsWRbyVPKx6tI4cdUkf9DslNY+eU+4T7beeNYd1lp7nWPNYTq1Lz2Njxq6l3pdjOfSa1Ca9CvnuT50r55K19vPy2o/A2kWofL2mfM3mEgffETqDOiJ0BjymroqACjX9RfPh4uVXv+WIlXfDeDHvVQAO59ZQ27CmIc+cNbq4SG219E25DHlpjT6/Lj82l2vbSwARur29XcPKEKFr6PLxNYo0u/nW478KL3eGMkt/PEV+VV6OuT9+tAmS+F9j69AUNdetNXKOIyB9l2O4hzWa9H7p/Tq1N3VfSq1L1tivb/jZV45yFpktx5K1bgrgX04CiFBEqHOT1DgAEVpjV6gJAhCAAAQg4EcAEerHiVF1EkCE1tkXqoIABCAAAQj4EECEIkJ99kl1YxCh1bWEgiAAAQhAAALeBBCh3qgYWCEBRGiFTaEkCEAAAhCAgCcBRCgi1HOr1DUMEVpXP6gGAhCAAAQgEEIAERpCi7G1EUCE1tYR6oEABCAAAQj4E0CEIkL9d0tFIxGhFTWDUiAAAQhAAAKBBBChgcAYXhUBRGhV7aAYCEAAAhCAQBABRCgiNGjD1DIYEVpLJ6gDAhCAAAQgEE4AERrOjBn1EECE1tMLKoEABCAAAQiEEkCEIkJD90wV4xGhVbSBIiAAAQhAAAJRBBChUdiYVAkBRGgljaAMCEAAAhCAQAQBRCgiNGLbLD8FEbp8D6gAAhCAAAQgEEsAERpLjnk1EECE1tAFaoAABCAAAQjEEUCEIkLjds7CsxChCzeA9BCAAAQgAIEZBBChM+AxdXECiNDFW0ABEIAABCAAgWgCiFBEaPTmWXIiInRJ+uSGAAQgAAEIzCOACJ3Hj9nLEkCELsuf7BCAAAQgAIE5BBChiNA5+2exuYjQxdCTGAIQgAAEIDCbACJ0NkICLEgAEbogfFJDAAIQgAAEZhJAhCJCZ26hZaYjQpfhTlYIQAACEIBACgKI0BQUibEUAUToUuTJCwEIQAACEJhPABGKCJ2/ixaIgAhdADopIQABCEAAAokIIEITgSTMIgQQoYtgJykEIAABCEAgCQFEKCI0yUYqHQQRWpo4+SAAAQhAAALpCCBC07EkUnkCiNDyzMkIAQhAAAIQSEUAEYoITbWXisZBhBbFTTIIQAACEIBAUgKI0KQ4CVaYACK0MHDSQQACEIAABBISQIQiQhNup3KhEKHlWJMJAhCAAAQgkJoAIjQ1UeKVJIAILUmbXBCAAAQgAIG0BBChiNC0O6pQNERoIdCkgQAEIAABCGQggAjNAJWQxQggQouhJhEEIAABCEAgOQFEKCI0+aYqERARWoIyOSAAAQhAAAJ5CCBC83AlahkCiNAynMkCAQhAAAIQyEEAEYoIzbGvssdEhGZHTAIIQAACEIBANgKI0GxoCVyAACK0AGRSQAACEIAABDIRQIQiQjNtrbxhEaF5+RIdAhCAAAQgkJMAIjQnXWLnJoAIzU2Y+BCAAAQgAIF8BBChiNB8uytjZERoRriEhgAEIAABCGQmgAjNDJjwWQkgQrPiJTgEIAABCEAgKwFEKCI06wbLFRwRmosscSEAAQhAAAL5CSBC8zMmQz4CiNB8bIkMAQhAAAIQyE0AEYoIzb3HssRHhGbBSlAIQAACEIBAEQKI0CKYSZKJACI0E1jCQgACEIAABAoQQIQiQgtss/QpEKHpmRIRAhCAAAQgUIoAIrQUafLkIIAIzUGVmBCAAAQgAIEyBBChiNAyOy1xFkRoYqCEgwAEIAABCBQkgAgtCJtUyQkgQpMjJSAEIAABCECgGAFEKCK02GZLmQgRmpImsSAAAQhAAAJlCSBCy/ImW1oCiNC0PIkGAQhAAAIQKEkAEYoILbnfkuVChCZDSSAIQAACEIBAcQKI0OLISZiQACI0IUxCQQACEIAABAoTQIQiQgtvuTTpEKFpOBIFAhCAAAQgsAQBROgS1MmZigAiNBVJ4kAAAhCAAATKE0CEIkLL77oEGRGhCSASAgIQgAAEILAQAUToQuBJm4QAIjQJRoJAAAIQgAAEFiGACEWELrLx5iZFhM4lyHwIQAACEIDAcgQQocuxJ/N8AojQ+QyJAAEIQAACEFiKACIUEbrU3puVFxE6Cx+TIQABCEAAAosSQIQuip/kMwkgQmcCZDoEIAABCEBgQQKIUETogtsvPjUiNJ4dMyEAAQhAAAJLE0CELt0B8s8hgAidQ4+5EIAABCAAgWUJIEIRocvuwMjsiNBIcEyDAAQgAAEIVEAAEVpBEyghmgAiNBodEyEAAQhAAAKLE0CEIkIX34QxBSBCY6gxBwIQgAAEIFAHAURoHX2gijgCiNA4bsyCAAQgAAEI1EAAEYoIrWEfBteACA1GxgQIQAACEIBANQQQodW0gkIiCCBCI6AxBQIQgAAEIFAJAUQoIrSSrRhWBiI0jBejIQABCEAAAjURQITW1A1qCSWACA0lxngIQAACEIBAPQQQoYjQenZjQCWI0ABYDIUABCAAAQhURgARWllDKCeIACI0CBeDIQABCEAAAlURQIQiQqvakL7FIEJ9STEOAhCAAAQgUB8BRGh9PaEifwKIUH9WjIQABCAAAQjURgARigitbU961YMI9cLEIAhAAAIQgECVBBChVbaFojwJIEI9QTEMAhCAAAQgUCEBRCgitMJt6S4JEepmxAgIQAACEIBArQQQobV2hrp8CCBCfSgxBgIQgAAEIFAnAUQoIrTOnemoChHqAMRtCEAAAhCAQMUEEKEVN4fSnAQQoU5EDIAABCAAAQhUSwARigitdnNahSFCLTrcgwAEIAABCNRNABFad3+oziaACLX5cBcCEIAABCBQMwFEKCK05v05WRsidBINNyAAAQhAAALVE0CEVt8iCjQIIEINONyCAAQgAAEIVE4AEYoIrXyLjpeHCB3nwlUIQAACEIBACwQQoS10iRqnCCBCp8hwHQIQgAAEIFA/AUQoIrT+XTpSISJ0BAqXIAABCEAAAo0QQIQ20ijKHCWACB3FwkUIQAACEIBAEwQQoYjQJjbqsEhE6JAI7yEAAQhAAALtEECEttMrKt1LABG6lwlXIAABCEAAAq0QQIQiQlvZq7vqRITuwsEbCEAAAhCAQFMEEKFNtYtiBwQQoQMgvIUABCAAAQg0RAARightaLseLxURepwFryAAAQhAAAKtEUCEttYx6u0TQIT2afAaAhCAAAQg0BYBRCgitK0d+3i1iNAm20bREIAABCAAgQ0BRCgboWUCiNCWu0ftEIAABCCwdgKIUERok58BRGiTbaNoCEAAAhCAwIYAIpSN0DIBRGjL3aN2CEAAAhBYOwFEKCK0yc8AIrTJtlE0BCAAAQhAYEMAEcpGaJkAIrTl7lE7BCAAAQisnQAiFBHa5GcAEdpk2ygaAhCAAAQgsCGACGUjtEwAEdpy96gdAhCAAATWTgARight8jOACG2ybRQNAQhAAAIQ2BBAhLIRWiaACG25e9QOAQhAAAJrJ4AIRYQ2+RlAhDbZNoqGAAQgAAEIbAggQtkILRNAhLbcPWqHAAQgAIG1E0CEIkKb/AwgQptsG0VDAAIQgAAENgQQoWyElgkgQlvuHrVDAAIQgMDaCSBCEaFNfgYQoU22jaIhAAEIQAACGwKIUDZCywQQoS13j9ohAAEIQGDtBBChiNAmPwOI0CbbRtEQgAAEIACBDQFEKBuhZQKI0Ja7R+0QgAAEILB2AohQRGiTnwFEaJNto2gIQAACEIDAhgAilI3QMgFEaMvdo3YIQAACEFg7AUQoIrTJzwAitMm2UTQEIAABCEBgQwARykZomQAitOXuUTsEIAABCKydACIUEdrkZwAR2mTbKBoCEIAABCCwIYAIZSO0TAAR2nL3qB0CEIAABNZOABGKCG3yM4AIbbJtFA0BCEAAAhDYEECEshFaJoAIbbl71A4BCEAAAmsngAhFhDb5GUCENtk2ioYABCAAAQhsCCBC2QgtE0CEttw9aocABCAAgbUTQIQiQpv8DCBCm2wbRUMAAhCAAAQ2BBChbISWCSBCW+4etUMAAhCAwNoJIEIRoU1+BhChTbaNoiEAAQhAAAIbAohQNkLLBBChLXeP2iEAAQhAYO0EEKGI0CY/A4jQJttG0RCAAAQgAIENAUQoG6FlAojQlrtH7RCAAAQgsHYCiFBEaJOfAURok22jaAhAAAIQgMCGACKUjdAyAURoy92jdghAAAIQWDsBRCgitMnPACK0ybZRNAQgAAEIQGBDABHKRmiZACK05e5ROwQgAAEIrJ0AIhQR2uRnABHaZNsoGgIQgAAEILAhgAhlI7RMABHacveoHQIQgAAE1k4AEVqhCL3hhhu6Q4cOee3Nq666qjtw4IDX2G0ahAjdpm6yFghAAAIQWBsBROjaOr5d60WEblc/WQ0EIAABCKyLACIUEdrkjkeENtk2ioYABCAAAQhsCCBC2QgtE0CEttw9aocABCAAgbUTQIQiQpv8DCBCm2wbRUMAAhCAAAQ2BBChbISWCSBCW+4etUMAAhCAwNoJIEIRoU1+BhChTbaNoiEAAQhAAAIbAohQNkLLBBChLXeP2iEAAQhAYO0EEKGI0CY/A4jQJttG0RCAAAQgAIENAUQoG6FlAojQlrtH7RCAAAQgsHYCiFBEaJOfAURok22jaAhAAAIQgMCGACKUjdAyAURoy92jdghAAAIQWDsBRCgitMnPACK0ybZRNAQgAAEIQGBDABHKRmiZACK05e5ROwQgAAEIrJ0AIhQR2uRnABHaZNsoGgIQgAAEILAhgAhlI7RMABHacveoHQIQgAAE1k4AEYoIbfIzgAhtsm0UDQEIQAACENgQQISyEVomgAhtuXvUDgEIQAACayeACEWENvkZQIQ22TaKhgAEIAABCGwIIELZCC0TQIS23D1qhwAEIACBtRNAhCJCm/wMIEKbbBtFQwACEIAABDYEEKFshJYJIEJb7h61QwACEIDA2gkgQhGhTX4GEKFNto2iIQABCEAAAhsCiFA2QssEEKEtd4/aIQABCEBg7QQQoYjQJj8DiNAm20bREIAABCAAgQ0BRCgboWUCiNCWu0ftEIAABCCwdgKIUERok58BRGiTbaNoCEAAAhCAwIYAIpSN0DIBRGjL3aN2CEAAAhBYOwFEKCK0yc8AIrTJtlE0BCAAAQhAYEMAEcpGaJkAIrTl7lE7BCAAAQisnQAiFBHa5GcAEdpk2ygaAhCAAAQgsCGACGUjtEwAEdpy96gdAhCAAATWTgARight8jOACG2ybRQNAQhAAAIQ2BBAhLIRWiaACG25e9QOAQhAAAJrJ4AIRYQ2+RlAhDbZNoqGAAQgAAEIbAggQtkILRNAhLbcPWqHAAQgAIG1E0CEIkKb/AwgQptsG0VDAAIQgAAENgQQoWyElgkgQlvuHrVDAAIQgMDaCSBCEaFNfgYQoU22jaIhAAEIQAACGwKIUDZCywQQoS13j9ohAAEIQGDtBBChiNAmPwM/9VM/1T388MPO2s8999zusssuc45jAAQgAAEIQAAC5Qh88IMf7L74xS86Ez7hCU/orrvuOuc4BkCgJIF7//d/6P76f/5br5Rnfu+PdSefdZ7XWAZBAAIQgAAEIJCfwFfv+rPuK394g1eiJ3//P+2+5Xte5TV26UG+DwweOIAIXbpXUfmvvvrq7vbbb3fOPfXUU7srrrjCOY4BEIAABCAAAQiUIyBy84EHHnAmPPvss7tf+qVfco5jAARKEjj6p7/b3XX4rV4pT/+uv9ed8rTv9BrLIAhAAAIQgAAE8hM4evst3T2f/u9eic7++9d0pzzrRV5jlx6ECF26A5nzv+td7+puvPFGryyvf/3ru3379nmNZRAEIAABCEAAAnkJPPbYY921117rleT888/v3vKWt3iNZRAEShF45Et/2v3Fv3+NV7pTn/3C7tTzv89rLIMgAAEIQAACEMhP4P7PfbK7/4//l1eib/+H13UnnfVsr7FLD0KELt2BzPnlu8U+9KEPeWV59atf3T35yU/2GssgCEAAAhCAAATyErjnnnu6973vfV5JXvjCF3ave93rvMYyCAKlCHz9kaPd//uVH/FKd8pTLuhOf8EPe41lEAQgAAEIQAAC+Qnc838+0h298zNeiZ722v/WnXDSKV5jlx6ECF26A5nzf+ITn/D+zrCDBw92z3zmMzNXRHgIQAACEIAABHwI3HHHHd1v/dZv+QztfvRHf7R75Stf6TWWQRAoSeDPf+2V3dfu/QtnypPPfFp35sU/7hzHAAhAAAIQgAAEyhD48h/8p+7hL9/hTPaE087t/sZrfsM5rpYBiNBaOpGpjttuu637xV/8Ra/oz372s7tLLrnEayyDIAABCEAAAhDIS+C3f/u3uz/5kz/xSvKqV72q+5Ef8XvyzisggyCQiMBdh97cHb39D72inf0Dr+n2PYm/TvKCxSAIQAACEIBARgJfu+/u7u7ffb9Xhic+9Xu6b/uxf+U1toZBiNAaupCxhrvuuqt785vf7J3h5S9/efeUpzzFezwDIQABCEAAAhBIT+D+++/vrr/+eu/A8mfx8ufxHBCojcCXP/aO7v5P+31N06nP+Zvdqc+5uLYlUA8EIAABCEBgdQTuvfXj3YNf+COvdZ/6nS/pzvy7b/IaW8MgRGgNXchcw8/93M91d955p1eWCy64oPvBH/xBr7EMggAEIAABCEAgD4FPfepT3Sc/+Unv4G9729u6ZzzjGd7jGQiBUgTuv+VQ9+WP/2uvdPtO+ZburBf/ZHfCCfx4pxcwBkEAAhCAAAQyEPj6o1/r7v6dX+0e/er9XtHP/Dtv7E79rpd6ja1hECK0hi5kruHQoUPdDTfc4J3lJS95Cf9jypsWAyEAAQhAAAJpCTz00EOb7wa9++67vQLzQ0lemBi0EIHHjv519xe//pPdo0e/4lXBaTu/HP+knV+Q54AABCAAAQhAYBkCD/zpp7r7Pvu7Xsn3nXJG9+3/+H3diaec7jW+hkGI0Bq6kLkGeRpUngr1PU499dTu8ssv70466STfKYyDAAQgAAEIQCARgY9//OPdLbfc4h3tjW98Y/fd3/3d3uMZCIHSBL7y8Xd2993i/x/lv+WCF3ff/IwLS5dJPghAAAIQgMDqCXz1rz7ffeVTh7w5nPb8l3VnvPhnvMfXMBARWkMXCtTwrne9q7vxxhu9M5177rndZZdd5j2egRCAAAQgAAEIzCfw6U9/uvvYxz7mHWj//v1B/7HTOzADIZCQwFfv/KPuL3/zp4Mifuv3/6PupNO/LWgOgyEAAQhAAAIQiCfw6IP3dHf9jv931Eumc17+b7pvesoL4pMuMBMRugD0JVKKBBUZGnLIn9rxwwshxBgLAQhAAAIQiCfw+c9/vvvwhz8cFOA1r3lN9+IXvzhoDoMhsASBv/rNn+keuvPmoNTn/PAbuhP28RdKQdAYDAEIQAACEIgg8NgjD3V/9dFfCZr5xKdeuPNr8e8MmlPDYERoDV0oVEPIjyZpSc9//vP5H1gKgzMEIAABCEAgE4GPfvSj3W233RYU/Zxzzune/va3dyeffHLQPAZDYAkCIT+a1K/vW7/vVd1JTz63f4nXEIAABCAAAQgkJPDQF/9v99c3HQ6O2NqPJOkCEaFKYgXn0B9NUiTPec5zuhe96EXdk570JL3EGQIQgAAEIACBBATuvffezZ/C33777cHRXvayl3UvfelLg+cxAQJLEJAfTfrLD76ue+SeO4PTn/78H+5OeeoFwfOYAAEIQAACEICATSDkh5H6kU568lO7c37i3U39SJIxWStnAAACyUlEQVTWjwhVEis5//Iv/3J30003Ba/2rLPO6s4///zuwIEDnfyYEgcEIAABCEAAAvEEHnzwwe7IkSPdZz7zme5LX/pScKCLL764e+1rXxs8jwkQWJLAg3/8P7q7/8s/jyrhlKdc0D3x3Gd333TOs6LmMwkCEIAABCAAgeMEHr779u6hP/9s9+Adtx6/GPDq7Jf8y+6UZ1wcMKOeoYjQenpRpJKjR492b3nLW6L+R5cW+KxnPat7wQte0J122mmbf0488US9xRkCEIAABCAAgRECjz32WHffffdt/pE/gQ/9M/h+SPl/f3/+53++O/300/uXeQ2BJgjc8/vXdff84b+LrvUJTzqzO+Vpz+tOPuvp3b4nntadePIp0bGYCAEIQAACEFgLgccePto9+tB93SNfuqM7eudnukfuvSt66Wf8rdd3p13U7o9rI0KjW9/uxM9+9rPdL/zCLyRbgPzJvPyPsn379iWLSSAIQAACaydwwgknrB3BVqz/a1/72kZ+PvDAA8nWc9VVV23+QiNZQAJBoDCBuz70s93RP/v9JFlP3PkxpRNPESH6zUniEQQCEIAABJQA/39RJdHy+bGHH+weO3pv99ijjyRZxjd/x9/uzrr07UliLRUEEboU+YXzfuQjH+k+8IEPLFwF6SEAAQhAAAIQCCHwile8orvkkktCpjAWAlUSuPO6l3ePPnB3lbVRFAQgAAEIQAAC4wSe9tqPdCec9MTxm41cRYQ20qgcZb73ve/tfu/3fi9HaGJCAAIQgAAEIJCYwNOf/vTummuuSRyVcBBYhoD8eNId7/0HyyQnKwQgAAEIQAACwQTOuezd3Ted+7zgebVNQITW1pHC9SBDCwMnHQQgAAEIQCCCwBlnnNG9853vjJjJFAjUS+Dhv/xs98XfuLLeAqkMAhCAAAQgAIENgTN+4J91p73g5VtBowUR+v8BAAD//2yaGIkAAEAASURBVOzdC/w9VV0v/EFBuXkDxAsqmAlogJpalpp0Sq0Qr6dU0kgzn65PGnahMtO8dLO0spN1OoWV2qlzoActs4uXLFNLLVADL4GKiQkqCoqAPL/1l+G///s3s+a2ZmbN3u/9vP7svWfPrPVd7+/6nXOej/P77f2u33kUFY+zzz67OOeccyo+2X3ozDPPLI4//vjdHzhSvPOd7yxe+tKXkiBAgAABAgQyFLjPfe5TPOMZz8iwMiURSCDwpeuKT5zzY8UXPvovCQYzBAECBAgQIJBS4KYH3bq47aNfXNzstl+ZcthZxzr99NNbzR8yxJAlzvHYTxA6PvtHP/rR4mUve1nxsY99bPzJzECAAAECBAi0EnjMYx5TPPrRj251rpMILFngin9+ZfHpf3z5kpegdgIECBAgsFECB9/1QcURp75go9YUFiMI3biW9l/Q1VdfXbziFa8o3vKWt/QfxJUECBAgQIDAYIGjjjqqePzjH1/c6173GjyWAQgsReCq97+huPxvfqn40jVXLaVkdRIgQIAAgY0T2O8m+xe3esD3FLe832kbt7awIEHoRrZ12KLCnxt4+9vfXlxyySXDBnI1AQIECBAg0Eng1re+dXG/+92veOQjH1nc6la36nStkwlsgsAXL/334op/eXVx1QfesAnLsQYCBAgQILAYgf2K/YqDvvLk4hb3fmxx8zuetJi6uxYqCO0qtkXnv+Md79gTiIZQ1IMAAQIECBAYTyDc+RkC0PDv4IMPHm8iIxNYiMA1l19UXPX+N+75d83l/7GQqpVJgAABAgSWJ3Czw+66JwA9+NiTiwMOO2Z5C+hYsSC0I9g2nh7uDC1DUXeJbuMOsGYCBAgQGEMg/Pr7fe973z3h59FHHz3GFMYksBECV31gJxC98I3F53eer9/5/zwIECBAgACBYQLl3Z8h/Dx45y7QbXoIQrep2wnW+olPfKII/y699NI9z6vvr7nmmgQzGIIAAQIECGyOwM1udrPi9re//Y3/bnvb2xbh3xFHHLHneXNWaiUExhf40hc+W1z7mUt2/n2suPbT4fmG1+H5yk+OX4AZCBAgQIDAwgT2P/TIYv9b37k44NZ32nk+qtj/VncobnrLOxT77/y7yc0PXdhq0pQrCE3jaBQCBAgQIECAAAECBAgQIECAAAECBDIWEIRm3BylESBAgAABAgQIECBAgAABAgQIECCQRkAQmsbRKAQIECBAgAABAgQIECBAgAABAgQIZCwgCM24OUojQIAAAQIECBAgQIAAAQIECBAgQCCNgCA0jaNRCBAgQIAAAQIECBAgQIAAAQIECBDIWEAQmnFzlEaAAAECBAgQIECAAAECBAgQIECAQBoBQWgaR6MQIECAAAECBAgQIECAAAECBAgQIJCxgCA04+YojQABAgQIECBAgAABAgQIECBAgACBNAKC0DSORiFAgAABAgQIECBAgAABAgQIECBAIGMBQWjGzVEaAQIECBAgQIAAAQIECBAgQIAAAQJpBAShaRyNQoAAAQIECBAgQIAAAQIECBAgQIBAxgKC0IybozQCBAgQIECAAAECBAgQIECAAAECBNIICELTOBqFAAECBAgQIECAAAECBAgQIECAAIGMBQShGTdHaQQIECBAgAABAgQIECBAgAABAgQIpBEQhKZxNAoBAgQIECBAgAABAgQIECBAgAABAhkLCEIzbo7SCBAgQIAAAQIECBAgQIAAAQIECBBIIyAITeNoFAIECBAgQIAAAQIECBAgQIAAAQIEMhYQhGbcHKURIECAAAECBAgQIECAAAECBAgQIJBGQBCaxtEoBAgQIECAAAECBAgQIECAAAECBAhkLCAIzbg5SiNAgAABAgQIECBAgAABAgQIECBAII2AIDSNo1EIECBAgAABAgQIECBAgAABAgQIEMhYQBCacXOURoAAAQIECBAgQIAAAQIECBAgQIBAGgFBaBpHoxAgQIAAAQIECBAgQIAAAQIECBAgkLGAIDTj5iiNAAECBAgQIECAAAECBAgQIECAAIE0AoLQNI5GIUCAAAECBAgQIECAAAECBAgQIEAgYwFBaMbNURoBAgQIECBAgAABAgQIECBAgAABAmkEBKFpHI1CgAABAgQIECBAgAABAgQIECBAgEDGAoLQjJujNAIECBAgQIAAAQIECBAgQIAAAQIE0ggIQtM4GoUAAQIECBAgQIAAAQIECBAgQIAAgYwFBKEZN0dpBAgQIECAAAECBAgQIECAAAECBAikERCEpnE0CgECBAgQIECAAAECBAgQIECAAAECGQsIQjNujtIIECBAgAABAgQIECBAgAABAgQIEEgjIAhN42gUAgQIECBAgAABAgQIECBAgAABAgQyFhCEZtwcpREgQIAAAQIECBAgQIAAAQIECBAgkEZAEJrG0SgECBAgQIAAAQIECBAgQIAAAQIECGQsIAjNuDlKI0CAAAECBAgQIECAAAECBAgQIEAgjYAgNI2jUQgQIECAAAECBAgQIECAAAECBAgQyFhAEJpxc5RGgAABAgQIECBAgAABAgQIECBAgEAaAUFoGkejECBAgAABAgQIECBAgAABAgQIECCQsYAgNOPmKI0AAQIECBAgQIAAAQIECBAgQIAAgTQCgtA0jkYhQIAAAQIECBAgQIAAAQIECBAgQCBjAUFoxs1RGgECBAgQIECAAAECBAgQIECAAAECaQQEoWkcjUKAAAECBAgQIECAAAECBAgQIECAQMYCgtCMm6M0AgQIECBAgAABAgQIECBAgAABAgTSCAhC0zgahQABAgQIECBAgAABAgQIECBAgACBjAUEoRk3R2kECBAgQIAAAQIECBAgQIAAAQIECKQREISmcTQKAQIECBAgQIAAAQIECBAgQIAAAQIZCwhCM26O0ggQIECAAAECBAgQIECAAAECBAgQSCMgCE3jaBQCBAgQIECAAAECBAgQIECAAAECBDIWEIRm3BylESBAgAABAgQIECBAgAABAgQIECCQRkAQmsbRKAQIECBAgAABAgQIECBAgAABAgQIZCwgCM24OUojQIAAAQIECBAgQIAAAQIECBAgQCCNgCA0jaNRCBAgQIAAAQIECBAgQIAAAQIECBDIWEAQmnFzlEaAAAECBAgQIECAAAECBAgQIECAQBoBQWgaR6MQIECAAAECBAgQIECAAAECBAgQIJCxgCA04+YojQABAgQIECBAgAABAgQIECBAgACBNAKC0DSORiFAgAABAgQIECBAgAABAgQIECBAIGMBQWjGzVEaAQIECBAgQIAAAQIECBAgQIAAAQJpBAShaRyNQoAAAQIECBAgQIAAAQIECBAgQIBAxgKC0IybozQCBAgQIECAAAECBAgQIECAAAECBNIICELTOBqFAAECBAgQIECAAAECBAgQIECAAIGMBQShGTdHaQQIECBAgAABAgQIECBAgAABAgQIpBEQhKZxNAoBAgQIECBAgAABAgQIECBAgAABAhkLCEIzbo7SCBAgQIAAAQIECBAgQIAAAQIECBBIIyAITeNoFAIECBAgQIAAAQIECBAgQIAAAQIEMhYQhGbcHKURIECAAAECBAgQIECAAAECBAgQIJBGQBCaxtEoBAgQIECAAAECBAgQIECAAAECBAhkLCAIzbg5SiNAgAABAgQIECBAgAABAgQIECBAII2AIDSNo1EIECBAgAABAgQIECBAgAABAgQIEMhYQBCacXOURoAAAQIECBAgQIAAAQIECBAgQIBAGgFBaBpHoxAgQIAAAQIECBAgQIAAAQIECBAgkLGAIDTj5iiNAAECBAgQIECAAAECBAgQIECAAIE0AoLQNI5GIUCAAAECBAgQIECAAAECBAgQIEAgYwFBaMbNURoBAgQIECBAgAABAgQIECBAgAABAmkEBKFpHI1CgAABAgQIECBAgAABAgQIECBAgEDGAoLQjJujNAIECBAgQIAAAQIECBAgQIAAAQIE0ggIQtM4GoUAAQIECBAgQIAAAQIECBAgQIAAgYwFBKEZN0dpBAgQIECAAAECBAgQIECAAAECBAikERCEpnE0CgECBAgQIECAAAECBAgQIECAAAECGQsIQjNujtIIECBAgAABAgQIECBAgAABAgQIEEgjIAhN42gUAgQIECBAgAABAgQIECBAgAABAgQyFhCEZtwcpREgQIAAAQIECBAgQIAAAQIECBAgkEZAEJrG0SgECBAgQIAAAQIECBAgQIAAAQIECGQsIAjNuDlKI0CAAAECBAgQIECAAAECBAgQIEAgjYAgNI2jUQgQIECAAAECBAgQIECAAAECBAgQyFhAEJpxc5RGgAABAgQIECBAgAABAgQIECBAgEAaAUFoGkejECBAgAABAgQIECBAgAABAgQIECCQsYAgNOPmKI0AAQIECBAgQIAAAQIECBAgQIAAgTQCgtA0jkYhQIAAAQIECBAgQIAAAQIECBAgQCBjAUFoxs1RGgECBAgQIECAAAECBAgQIECAAAECaQQEoWkcjUKAAAECBAgQIECAAAECBAgQIECAQMYCgtCMm6M0AgQIECBAgAABAgQIECBAgAABAgTSCAhC0zgahQABAgQIECBAgAABAgQIECBAgACBjAUEoRk3R2kECBAgQIAAAQIECBAgQIAAAQIECKQREISmcTQKAQIECBAgQIAAAQIECBAgQIAAAQIZCwhCM26O0ggQIECAAAECBAgQIECAAAECBAgQSCMgCE3jaBQCBAgQIECAAAECBAgQIECAAAECBDIWEIRm3BylESBAgAABAgQIECBAgAABAgQIECCQRkAQmsbRKAQIECBAgAABAgQIECBAgAABAgQIZCwgCM24OUojQIAAAQIECBAgQIAAAQIECBAgQCCNgCA0jaNRCBAgQIAAAQIECBAgQIAAAQIECBDIWEAQmnFzlEaAAAECBAgQIECAAAECBAgQIECAQBoBQWgaR6MQIECAAAECBAgQIECAAAECBAgQIJCxgCA04+YojQABAgQIECBAgAABAgQIECBAgACBNAKC0DSORiFAgAABAgQIECBAgAABAgQIECBAIGMBQWjGzVEaAQIECBAgQIAAAQIECBAgQIAAAQJpBAShaRyNQoAAAQIECBAgQIAAAQIECBAgQIBAxgKC0IybozQCBAgQIECAAAECBAgQIECAAAECBNIICELTOBqFAAECBAgQIECAAAECBAgQIECAAIGMBQShGTdHaQQIECBAgAABAgQIECBAgAABAgQIpBEQhKZxNAoBAgQIECBAgAABAgQIECBAgAABAhkLCEIzbo7SCBAgQIAAAQIECBAgQIAAAQIECBBIIyAITeNoFAIECBAgQIAAAQIECBAgQIAAAQIEMhYQhGbcHKURIECAAAECBAgQIECAAAECBAgQIJBGQBCaxtEoBAgQIECAAAECBAgQIECAAAECBAhkLCAIzbg5SiNAgAABAgQIECBAgAABAgQIECBAII2AIDSNo1EIECBAgAABAgQIECBAgAABAgQIEMhYQBCacXOURoAAAQIECBAgQIAAAQIECBAgQIBAGgFBaBpHoxAgQIAAAQIECBAgQIAAAQIECBAgkLGAIDTj5iiNAAECBAgQIECAAAECBAgQIECAAIE0AoLQNI5GIUCAAAECBAgQIECAAAECBAgQIEAgYwFBaMbNURoBAgQIECBAgAABAgQIECBAgAABAmkEBKFpHI1CgAABAgQIECBAgAABAgQIECBAgEDGAoLQjJujNAIECBAgQIAAAQIECBAgQIAAAQIE0ggIQtM4GoUAAQIECBAgQIAAAQIECBAgQIAAgYwFBKEZN0dpBAgQIECAAAECBAgQIECAAAECBAikERCEpnE0CgECBAgQIECAAAECBAgQIECAAAECGQsIQjNujtIIECBAgAABAgQIECBAgAABAgQIEEgjIAhN42gUAgQIECBAgAABAgQIECBAgAABAgQyFhCEZtwcpREgQIAAAQIECBAgQIAAAQIECBAgkEZAEJrG0SgECBAgQIAAAQIECBAgQIAAAQIECGQsIAjNuDm5l/bF664vLr/qmuJTV12be6nqI0CAAAECkwscdMBNitscvH9xqwP3n3xuExLYFoGrr7mq+OwXLi+u+uIV27Jk6yRAgAABAq0FDr7ZLYtDDzysOPCAg1tfs+knCkI3vcMJ1veJz11T/P2HPrMn8Lz889cW4V8IPz/3xesSjG4IAgQIECCw2QI33W+/PYHoYQftX4R/IRw94faHFPc+6pDNXrjVEUgo8J+f/kBx4cffsRN6fmrn32U3PF9eXHPtFxLOYigCBAgQILCZAgfsf2Bxi51A9BYH3uaG58OKe9zx64sjb3n0Zi44sipBaARnmz+67kvXF2/+0BXFP/zHFcX7/uuqbaawdgIECBAgMIrAEYccUDzs7rcuvuYutyhue+gBo8xhUAJLFrj62quKf/vIG4rzP/L3xaVXXLTkpaidAAECBAhkKXCn2xxX3Psu31Qce4evKW62E5Zuw0MQug1d7rDG9156VfH2D3+2eNvFny2ucMdnBzmnEiBAgACB/gIPPPqWxf3vfGhx/51Q1IPAtgtcfNn5xXsv+cfifR97a/HFaz+/7RzWT4AAAQIERhc48IBDihPu9A3FcTuB6J0Pu8fo8805gSB0Tv3M5n7lO/+reO2/X55ZVcohQIAAAQLbI3DSHQ4pTr/fkcXtb3Gz7Vm0lRJYEfi79/1R8fYPvmbliJcECBAgQIDAlAL3Ofqbi4ef+LQpp5x0LkHopNx5Tnb1tV8qfu9tlxb/cLE/Mp9nh1RFgAABAtskcPjBBxRPvf/t/A3RbWq6tRbXXHd18bp/+93iPZe8hQYBAgQIECAws8Adb/2VxSn3/oHi8EPvOHMl6acXhKY3XdSIl372muIX3/jR4tLPfnFRdSuWAAECBAhsusCTv/rI4luOv82mL9P6COx8Ceelxf9+24uKT135cRoECBAgQIBAJgI3vckBxSPu/f17vlQpk5KSlCEITcK4zEHet/P3QJ//tx9ZZvGqJkCAAAECWyDw0J0vU/runbtDPQhsqsCHL3tv8cq3Pm9Tl2ddBAgQIEBg8QIPuNsji5Pvcdri11EuQBBaSmzZ8//5t08W//f8y7Zs1ZZLgAABAgSWJ3DiHQ4ufvIb77y8wlVMoEHg7y/40+If3v9/Gs7yMQECBAgQIDC3wF1ve6/i8V975txlJJlfEJqEcVmDvPOSzxUvftMlyypatQQIECBAYIsFHn+v2xaP/KrDtljA0jdN4D0ffUtx7rt/c9OWZT0ECBAgQGBjBU6+xxOLB9ztUYtfnyB08S3stoBPff7a4ofO/mC3i5xNgAABAgQIzC7w7G++S3H8kQfNXocCCAwV+M9Pf7A46y0/PXQY1xMgQIAAAQITC3zn1/9ccefDjp941rTTCULTemY/2pl/eVHx4U9d3bvOm+xXFHe5zYHFoTe/aXHIATctbnng/nv+9R7QhQQIECBAYEMFrr72S8Vnr76u+OwXri2u2Hn++BVXF5/74nWDVvvrj75bcfjB+w8aw8UE5hT4wjVXFr/7xh8trrz6M73LOPBmBxe3POTw4sADDi5uvvPvoJsfUtx8/wN7j+dCAgQIECCwqQJfvPbq4gtfvKoI//dveP7MlZ/c89x3vfvtt1/xA9/0m8UtDjy87xCzXycInb0F0xXwO//08eJNH+r3/+g8cP+bFPe43SHFPW9/SHH4IQdMV7SZCBAgQIDAhgh8/povFe/7+JXFey+9srj8qmt6reqrjzq0OOMhR/W61kUEchB45Vt/vvjwZe/pVcqhB92quOPhX1EcdfjdigP2v3mvMVxEgAABAgS2WSAEox+77IM7/z5UfO7z/fKhu9/ufsXj7v+sxTIKQhfbum6F//WFny7+4J8v7XbRDWd/7V1uuScAvcXO3Z8eBAgQIECAwDCB6750/Z5A9K0Xf6YI4WjXx7cce5viyfc7sutlzicwu8Drz/9fxTsven3nOm52wIHFV97xpJ0Q9G7FTfa7SefrXUCAAAECBAjsK/Cl679UfOyTHywuvORdxbXXdf8f6O9/128rvumrvmvfQRfyThC6kEYNKfPKnV/DO/O1FxWX7fx90C6PW+8Enw89/rDiDrf0v7h3cXMuAQIECBBoI3DZldcUf/f+TxX/ufMr810fP/mNdypOvMMhXS9zPoHZBD582XuLV771eZ3nP+wWtyvuefTXFgff/Badr3UBAQIECBAgEBf49Of+q3jPxW8rrvxC97tDT/v65xR3Oewe8Qky/FQQmmFTUpf0+gs+VZz1L5/oNOw9d34N/puP8+20ndCcTIAAAQIEegi89T8+U7zjI1d0uvLBx9yy+L6vv0Ona5xMYE6B15+3czfoxd3uBr3zkccW97jz/ecs29wECBAgQGArBN79wTcXn/j0Rzqt9auPeXjxsBOe0umaHE4WhObQhZFr+Nm/urj44GVfaD3L3Q4/qDjlq45ofb4TCRAgQIAAgWECH/rk54vXvPeTrQcJvxz8om87prjTrf3WRms0J84mcNUXryj+55ueVVx1dfvAP/wt0BOO+brZajYxAQIECBDYNoHwa/IXffy9rZd98M1vVTztIb9SHHyzZf3WhiC0dYuXeeLbP/zZ4qVv+Vjr4g87+IDiSfe7fevznUiAAAECBAikEfjnD19R/ONF7X8t6dR7HFY84T63TTO5UQiMKBD+Lmj4+6BtH+HX4e937De3Pd15BAgQIECAQCKB91z8T8UlO387tO3jYSd8T/HVxzy07elZnCcIzaIN4xXxq2+6pPiXSz7XaoKb3fQmxaNOPMLfBG2l5SQCBAgQIJBe4Nz3fLL4j8s+32rgww7af89doYfe/KatzncSgbkEwt8GDX8jtM3jlgcfVnzt8Q8v9vOlSG24nEOAAAECBJIKXH/99cU7P/B3xWVXfLzVuHc5/KuK077u2a3OzeUkQWgunRihjgv/6/PFc//6w61HPvlutylOOurQ1uc7kQABAgQIEEgr8InPfrF49bsubT3od933yOLhx92m9flOJDC1QNcvSfra47+luNUhh09dpvkIECBAgACBGwQ+c+Vlxdv+/XWtPZb2pUmC0NatXd6Jf/LuTxb/33sva1V4uBs0/Eq8u0pacTmJAAECBAiMJvCXO/939/s/eVWr8Y+/7UHFsx96l1bnOonAHAJvfN+rin/64J+3mvqIW92x+Oqv/MZW5zqJAAECBAgQGE/gHRf8dfGpz7X70u0H3O1Rxcn3eOJ4xSQeWRCaGDSn4V7+1o8Xb975Jto2j3sceUjx0ON9S3wbK+cQIECAAIExBbp8cdKRhx5Q/Nojv2LMcoxNYJDAn7/zpcX7PvbWVmOEL0cKX5LkQYAAAQIECMwrcPGl7ysu+Og7WxVx/B0eUDz6vs9odW4OJwlCc+jCSDX84hs+Wvzbf17ZavRT7nlEcbcjDmp1rpMIECBAgACBcQX+9N2fKP7ziqsbJzngJvsVv//4Y3f+nmLjqU4gMIvAWW/56eI/P93uSxe+6T5PKG56E3/zdpZGmZQAAQIECKwIXPela4u/fdefrBypf3m7W921eMqDX1R/QmafCEIza0jKcn78tf9RXPKZLzYOefABNy2e9nV3bDzPCQQIECBAgMA0Al2+Qf43Hn234rCD95+mMLMQ6Cjwa3/11OLqa5r/1INfi+8I63QCBAgQIDCywDs/8Ibik5/5WOMsNz/g4OKZD/9fjeflcoIgNJdOjFDH0/70/cXnr/lS48h3vs2BxWNOvG3jeU4gQIAAAQIEphH490uvLF5/weWtJnvew47e+a2OA1ud6yQCUwpc8YXLit/6mx9sNeWdb3tscY+73L/VuU4iQIAAAQIExhd434ffXnzkv97faqIf+KbfLG550BGtzp37JEHo3B0Yaf4rv3hd8fQ/+0Cr0e9z1C2KB9/t1q3OdRIBAgQIECAwvsDHPnN18Wf/2u4P1D/zwUcV97vzoeMXZQYCHQU+cvn7ij/+x+e2uurYo+5THHP7e7Y610kECBAgQIDA+AL/8fH3Fu+/5F2tJnri1z27OPrwr2p17twnCULn7sBI83/001cXP/EXF7Ua/ZuPPay45+0PaXWukwgQIECAAIHxBa68+rri997W/KtIoZLT73u74mHH+R80x++KGboK/OtH3lD85b++vNVlJ33Fg4rb3+boVuc6iQABAgQIEBhf4OOfurj4tw+9pdVE33qvpxf3uvN/a3Xu3CcJQufuwEjzv/fSq4oX/O1HWo3+uJOOLI669c1bneskAgQIECBAYBqBX39zy/97/IQjiseedPg0RZmFQAeBt1z4Z0X41+Zx/+MeWtzm0CPbnOocAgQIECBAYAKBT3320uIdF/5Nq5kefNy3Fw+8++NanTv3SYLQuTsw0vyC0JFgDUuAAAECBCYSEIROBG2a0QQEoaPRGpgAAQIECIwuIAg9vjjzzDNHd66aYL/rdx5VH5x99tnFOeecU/XRrmOh+OOPP37X8U09IAjd1M5aFwECBAhsi4AgdFs6vbnrFIRubm+tjAABAgQ2X0AQKghd1C4XhC6qXYolQIAAAQK7BAShu0gcWJiAIHRhDVMuAQIECBBYERCECkJXtkP+LwWh+fdIhQQIECBAICYgCI3p+GwJAoLQJXRJjQQIECBAoFpAECoIrd4ZmR4VhGbaGGURIECAAIGWAoLQllBOy1ZAEJptaxRGgAABAgQaBQShgtDGTZLTCYLQnLqhFgIECBAg0F1AENrdzBV5CQhC8+qHaggQIECAQBcBQaggtMt+mf1cQejsLVAAAQIECBAYJCAIHcTn4gwEBKEZNEEJBAgQIECgp4AgVBDac+vMc5kgdB53sxIgQIAAgVQCgtBUksaZS0AQOpe8eQkQIECAwHABQaggdPgumnAEQeiE2KYiQIAAAQIjCAhCR0A15KQCgtBJuU1GgAABAgSSCghCBaFJN9TYgwlCxxY2PgECBAgQGFdAEDqur9HHFxCEjm9sBgIECBAgMJaAIFQQOtbeGmVcQegorAYlQIAAAQKTCQhCJ6M20UgCgtCRYA1LgAABAgQmEBCECkIn2GbpphCEprM0EgECBAgQmENAEDqHujlTCghCU2oaiwABAgQITCsgCBWETrvjBs4mCB0I6HICBAgQIDCzgCB05gaYfrCAIHQwoQEIECBAgMBsAoJQQehsm6/PxILQPmquIUCAAAEC+QgIQvPphUr6CQhC+7m5igABAgQI5CAgCBWE5rAPW9cgCG1N5UQCBAgQIJClgCA0y7YoqoOAILQDllMJECBAgEBmAoJQQWhmWzJejiA07uNTAgQIECCQu4AgNPcOqa9JQBDaJORzAgQIECCQr4AgVBCa7+6sqEwQWoHiEAECBAgQWJCAIHRBzVJqpYAgtJLFQQIECBAgsAgBQaggdBEbtSxSEFpKeCZAgAABAssUEIQus2+q3isgCN1r4RUBAgQIEFiagCBUELqoPSsIXVS7FEuAAAECBHYJCEJ3kTiwMAFB6MIaplwCBAgQILAiIAgVhK5sh/xfCkLz75EKCRAgQIBATEAQGtPx2RIEBKFL6JIaCRAgQIBAtYAgVBBavTMyPSoIzbQxyiJAgAABAi0FBKEtoZyWrYAgNNvWKIwAAQIECDQKCEIFoY2bJKcTBKE5dUMtBAgQIECgu4AgtLuZK/ISEITm1Q/VECBAgACBLgKCUEFol/0y+7mC0NlboAACBAgQIDBIQBA6iM/FGQgIQjNoghIIECBAgEBPAUGoILTn1pnnMkHoPO5mJUCAAAECqQQEoakkjTOXgCB0LnnzEiBAgACB4QKCUEHo8F004QiC0AmxTUWAAAECBEYQEISOgGrISQUEoZNym4wAAQIECCQVEIQKQpNuqLEHE4SOLWx8AgQIECAwroAgdFxfo48vIAgd39gMBAgQIEBgLAFBqCB0rL01yriC0FFYDUqAAAECBCYTEIRORm2ikQQEoSPBGpYAAQIECEwgIAgVhE6wzdJNIQhNZ2kkAgQIECAwh4AgdA51c6YUEISm1DQWAQIECBCYVkAQKgiddscNnE0QOhDQ5QQIECBAYGYBQejMDTD9YAFB6GBCAxAgQIAAgdkEBKGC0Nk2X5+JBaF91FxDgAABAgTyERCE5tMLlfQTEIT2c3MVAQIECBDIQUAQKgjNYR+2rkEQ2prKiQQIECBAIEsBQWiWbVFUBwFBaAcspxIgQIAAgcwEBKGC0My2ZLwcQWjcx6cECBAgQCB3AUFo7h1SX5OAILRJyOcECBAgQCBfAUGoIDTf3VlRmSC0AsUhAgQIECCwIAFB6IKapdRKAUFoJYuDBAgQIEBgEQKCUEHoIjZqWaQgtJTwTIAAAQIElikgCF1m31S9V0AQutfCKwIECBAgsDQBQaggdFF7VhC6qHYplgABAgQI7BIQhO4icWBhAoLQhTVMuQQIECBAYEVAECoIXdkO+b8UhObfIxUSIECAAIGYgCA0puOzJQgIQpfQJTUSIECAAIFqAUGoILR6Z2R6VBCaaWOURYAAAQIEWgoIQltCOS1bAUFotq1RGAECBAgQaBQQhApCGzdJTicIQnPqhloIECBAgEB3AUFodzNX5CUgCM2rH6ohQIAAAQJdBAShgtAu+2X2cwWhs7dAAQQIECBAYJCAIHQQn4szEBCEZtAEJRAgQIAAgZ4CglBBaM+tM89lgtB53M1KgAABAgRSCQhCU0kaZy4BQehc8uYlQIAAAQLDBQShgtDhu2jCEQShE2KbigABAgQIjCAgCB0B1ZCTCghCJ+U2GQECBAgQSCogCBWEJt1QYw8mCB1b2PgECBAgQGBcAUHouL5GH19AEDq+sRkIECBAgMBYAoJQQehYe2uUcQWho7AalAABAgQITCYgCJ2M2kQjCQhCR4I1LAECBAgQmEBAECoInWCbpZtCEJrO0kgECBAgQGAOAUHoHOrmTCkgCE2paSwCBAgQIDCtgCBUEDrtjhs4myB0IKDLCRAgQIDAzAKC0JkbYPrBAoLQwYQGIECAAAECswkIQgWhs22+PhMLQvuouYYAAQIECOQjIAjNpxcq6ScgCO3n5ioCBAgQIJCDgCBUEJrDPmxdgyC0NZUTCRAgQIBAlgKC0CzboqgOAoLQDlhOJUCAAAECmQkIQgWhmW3JeDmC0LiPTwkQIECAQO4CgtDcO6S+JgFBaJOQzwkQIECAQL4CglBBaL67s6IyQWgFikMECBAgQGBBAoLQBTVLqZUCgtBKFgcJECBAgMAiBAShgtBFbNSySEFoKeGZAAECBAgsU6B9EHp48diTjljmIlW90QKC0I1ur8URIECAwIYLCEIFoYva4oLQRbVLsQQIECBAYJeAIHQXiQMLExCELqxhyiVAgAABAisCglBB6Mp2yP+lIDT/HqmQAAECBAjEBNoHoUfs3BF6eGwonxGYRUAQOgu7SQkQIECAQBIBQaggNMlGmmoQQehU0uYhQIAAAQLjCAhCx3E16nQCgtDprM1EgAABAgRSCwhCBaGp99So4wlCR+U1OAECBAgQGF1AEDo6sQlGFhCEjgxseAIECBAgMKKAIFQQOuL2Sj+0IDS9qREJECBAgMCUAoLQKbXNNYaAIHQMVWMSIECAAIFpBAShgtBpdlqiWQShiSANQ4AAAQIEZhIQhM4Eb9pkAoLQZJQGIkCAAAECkwsIQgWhk2+6IRMKQofouZYAAQIECMwvIAidvwcqGCYgCB3m52oCBAgQIDCngCBUEDrn/us8tyC0M5kLCBAgQIBAVgKC0KzaoZgeAoLQHmguIUCAAAECmQgIQgWhmWzFdmUIQts5OYsAAQIECOQq0D4IPbx47ElH5LoMdW2xgCB0i5tv6QQIECCweAFBqCB0UZtYELqodimWAAECBAjsEmgfhB6xE4Qevut6BwjMLSAInbsD5idAgAABAv0FBKGC0P67Z4YrBaEzoJuSAAECBAgkFBCEJsQ01CwCgtBZ2E1KgAABAgSSCAhCBaFJNtJUgwhCp5I2DwECBAgQGEdAEDqOq1GnExCETmdtJgIECBAgkFqgSxD6oOO+vXjQ3R+XuoRRxjv99NNbjXv88YLQVlC5nCQIzaUT6iBAgAABAv0EBKH93FyVj4AgNJ9eqIQAAQIECHQVEIQKQrvumVnPF4TOym9yAgQIECAwWEAQOpjQADMLCEJnboDpCRAgQIDAAAFBqCB0wPaZ/lJB6PTmZiRAgAABAikFBKEpNY01h4AgdA51cxIgQIAAgTQCglBBaJqdNNEogtCJoE1DgAABAgRGEhCEjgRr2MkEBKGTUZuIAAECBAgkFxCECkKTb6oxBxSEjqlrbAIECBAgML6AIHR8YzOMKyAIHdfX6AQIECBAYEyBLkHog3e+LOmBviwpWTv2u37nUTXa2WefXZxzzjlVH+06duaZZxbhG5+25SEI3ZZOWycBAgQIbKqAIHRTO7s96xKEbk+vrZQAAQIENk9AEOqO0EXtakHootqlWAIECBAgsEtAELqLxIGFCQhCF9Yw5RIgQIAAgRUBQaggdGU75P9SEJp/j1RIgAABAgRiAoLQmI7PliAgCF1Cl9RIgAABAgSqBboEoQ/a+dX4B/nV+GrIHkf9anwPNEFoDzSXECBAgACBjAQEoRk1Qym9BAShvdhcRIAAAQIEshAQhLojNIuN2LYIQWhbKecRyFfgQ+87r9jvpjfdt8Ab/mLyXY+7577HvSNAYOMEBKEb19KtW5AgdOtabsEECBDYJfChCz6669jqga847k6rb73OSEAQKgjNaDs2lyIIbTZyBoHcBX7w0d9QWeKjT/++4qGPOa3yMwcJENgcAUHo5vRyW1ciCN3Wzls3AQIE9gqc/84PFL/+nD/ee2Dl1XEnHVOc8YLTV454mZOAIFQQmtN+bKxFENpI5AQC2QvUBaE/8eLfLe5yt+Oyr1+BBAgMExCEDvNz9fwCgtD5e6ACAgQIzC0gCJ27A/3nF4QKQvvvnhmuFITOgL7hU77//HftWeFrX/0HN660PHbjgRte3P2E+xR3P+Hee94du/Mc3k/xePsbXx+d5mtOflj085w+/MB7/7X4tZ/64cqSXnbOmyuP536w3C9Ne6jcL1PvoVDfhee/exfj+yuOlSeVNZbvw3PY8+FRrmPPG/8h0ENAENoDzSVZCQhCs2pHkmIuOP+iJOOMOchxJxwz5vDGJkCgo4AgtCNYRqcLQgWhGW3H5lIEoc1GzmgWCMFQGVqVIVbzVdVnfNsTnrLng1NueK4+a9jRH3rMQ4rrr7/hj2iuDfWoJz+9eNjjnrR2NN+3r3317xd/sfNv/fE1D3lYcfozf2b9cLbvyz00dP+EBY69h+ruwE2Bu/o/Doz5M5CiVmPkIyAIzacXKukn0CkIPfahxW1ucWS/iVw1iUAIQV985lmTzDVkkt859zlDLnctAQKJBQShiUEnHE4QKgidcLsNn0oQOtxwm0dIGV5VOY4VaG1SEPqrZ/5Q8cH3/dsuvif/8JnFA77pW3cdz+nA2PsnrDXsodR3G48ZhFb1Z6yfg6q5HFumgCB0mX1T9V6BTkHocTtB6KGC0L16+b0ShObXExURWIKAIHQJXaquURAqCK3eGZkeFYRm2pjMy6q7C3HMskMYlOoOuU0JQj9/5eeKZ33nt1WyP/9//mlxmyNuV/lZDgdf8jM/UqS4+7PtWlIGolMHoatrFIquanhdCghCSwnPSxUQhC61c9V1C0KrXRwlQCAuIAiN++T8qSBUEJrz/txVmyB0F4kDEYEp7uCLTL/n7r4UYeimBKHvfuubit/9xWfvIjvqmLsVP/WS3b8uv+vEGQ6EPRRC0LkeKQL1OYPQVbcUa1kdz+vlCghCl9s7lX9ZQBC6WTtBEDpPP6vcTz3tIcWpTzx5noLMSqCjgCC0I1hGpwtCBaEZbcfmUgShzUbO+LLAHHeB1tk/4/kvHfQFM5sShP7Jy3+1ePNfnrOL6b898juKxz31h3Ydn/vA1HeB1q03/B3OsIf6PnIJQsv6BaKlxPY+C0K3t/ebsvJOQai/EZp926sCuRyL3rS/EVrlLgjNceepqU5AEFonk/9xQaggNP9dulKhIHQFw8taga4haAiaTnnCd9843vq3Ype/Er36zdtVX/hz4wAVL4aEoZsShD7vB7+zuPSSj+zS+f6f+cXihPt93a7jcx3ocydx1z3Udf8MCUNjQWgYt+4b4lf3e9mL8pvmy5+J8njXZ2FoV7HNOl8Quln93MbVCEI3q+tVgdzqCo878ZjVt7O9PuOFp8829xgTv/inziouOO+ifYYWhO7D4U3mAoLQzBsUKU8QKgiNbI/8PhKE5teT3CpqexdfGVyF5z6PEASFoKhLoNU3DN2EIPQTH/to8dwfOK2Cer/iJX/618UBB9ys4rPpD4W+tv1V+KF7KAT24dF2D4X5+twZGgtC++7JsjPlGkJA2iccHTp/WYfnZQm0DkJPPKJ47ImHL2txqt0KAUHoZrW5KQjdtDsxc+meIDSXTqijr4AgtK/c/NcJQgWh8+/CDhUIQjtgbeGpbULQoeFVFWvbO1D7BlmbEIT+/ev+vHj1b794F9/x97pv8cPP/bVdx+c6EAsNy5rm3EN97qSMrSl1ENn2Z6G0DM+pa1gd2+s8BVoHoSfsBKEnCULz7OJ2V9UpCPWt8dlvFkHoPC16+qnP3TWxO0J3kTiQsYAgNOPmNJQmCBWENmyRvD4WhObVj5yqaRPA9AmR2q6xzfxhrD41bEIQ+j9/6WeLd/3jGwPBPo9HPfnpxcMe96R9js31pk2Q3qd/bdfTdg91DQ6nDELLtYa1hEfbu127rqmcx/MyBQShy+ybqvcKdApC/Y3QvXCZvhKETt+YOnNB6PS9MGN/AUFof7u5rxSECkLn3oOd5heEduLampPbBEhjBlgldNtfq+4a+mxCEPpjTzqluOpzny2pbnz+8V9+eXH03e9x4/u5XrTZQ1371mctberoemfxHEFoufY26ynPncK3nMvzvAKC0Hn9zT5cQBA63DCnEepCubJGvxpfSqR7PvdVbyzOfeWbdg0oCN1F4kDGAoLQjJvTUJogVBDasEXy+lgQmlc/cqkmFvSEGqcIQUuLEIa+9tV/EP17iV2DrKUHoR/69/OLF//kD5RENz7f4la3KX7hrD+/8f1cL9qEdVOGdKnrif18TLGutv8DQdefi7n2i3mHCwhChxsaYV4BQei8/qlnF4SmFm0er+rvg4arBKHNds7IR0AQmk8vulYiCBWEdt0zs54vCJ2VP8vJm0KjKUPQEqhN8POyc95cnt74vPQg9C//5KziNa/6vV3rvN+Dv7l4yhk/u+v41AdiQWGoZY491PRr+l1Cw9j6pghCy342rWku67I+z9MJCEKnszbTOAKC0HFc5xpVEDq9fNXfBw1VTBmEhr6XjwtXvr3+2BOPKQ8Xx52w9/WNB2d+UdYdai5rHbvOcs6w9HWrsedu4i5rW62rvGZsH0FoKb28Z0GoIHRRu1YQuqh2jV5sUwgaCugSOKYsOBb6dAmxQk2xIPSRT3p68fD/nsff2Kzze8lP/7/F+9/z7l0fn/aDP1488KGP2HV8ygNNe2iOEDSsvylM77KHcglCw7pitYTPw2Oun9kvz+6/Uwi0DkJ9a/wU7TBHD4FOQagvS+ohPO0lIUh58Zln1U66hF+ND79qXvcIYVDqsKrtfMG2KqCq+rX4UP9xO7Uee+LRdUspTn3iybWfNX1QBmav2fmV/AtWgs+m60I4Gx5D5l6fo84lNk/dnxPYc81OjXX11fWqaV+EGrtYTRVid62rtC/3Vp1TeV6XZ0FoF628zu0ShD74uG8vHnj3x+W1gJpqTj/99JpP9j18/PGC0H1FMn8nCM28QROXl2uIFRjWg6wQXJ3yhO8uwnPXx5KD0C98/qrijCd+S+WSn/fyPykOv90dKj+b6mBTMDdnKLe+v/vuodgap7wjNPR0/eeiqs9zhc9VtTg2joAgdBxXo04nIAidznqKmUKwsvQgtO5XzYNfCIDOeGG7/5/jNt6xQC5cvxocN9m2mW/1nDNedHrnULdvcLY6b/k6VdgXc1lfY+zcprpi19atJbaXyvliz3Xjxq5p+ixlD8NcocamILippvC5ILSNUp7nCEIFoXnuzJqqBKE1MFt4eD0kWifIIUwJNR57wr33lNYnAC3XtOQg9F/f9vfF77zop8ul3Ph8hzsfU/zMb7zixvdzvFjCHgp3FvcN0EvTnILQUFOTezhnzgA6zO8xroAgdFxfo48vIAgd33jKGWJhUahjNdibsq6uc9X9unkYJ1U41RSCrs/TZNt1jeshYdP1TfU2XV/3+fo6686rOx5zWV1j7LzVsevqiV2/fk04t8sdoKvzr79eH3v98y7vx+phqGFonYLQLp3M61xBqCA0rx3ZUI0gtAFoiz5uClNyCEJTtWPJQej//t2XFm967f/ZRXHyKY8rvv17f2TX8SkPxALCUMemhHGxdU59R2jZ39ifjgjnzFVXWZ/ncQUEoeP6Gn18AUHo+MZTzhALi0IdSwlCm9axGrD19e0atjbV1LWOLmsYemdjU21D7rSNuayuMea9Wl9doBebZ/Wa2Hmr83R5vTp+l+tWzx0zBC3nGVKnILRUXN6zIFQQuqhdKwhdVLtGLTYW7oSJNyXECmtZchD68z/8XcXHP3JRWMY+j//np15YnPQ1D9rn2JRvmn5Fe5OC9NjPylyBY9P/kBHuoA61eWymgCB0M/u6TasShG5Wt5tCoKUEoaErseBoSHDXNHb4vMqpyTZc1+WxGhLGrhs7BC3n7msacynXGOtlOX/5XBfmxeYpr+kyTzlf2+dyLW3PXz2vT12hH+HR5W/AhvNLi/C6y0MQ2kUrr3MFoYLQvHZkQzWC0AagLfl4m0Ks0NKlBqGf/PjHiud83xMqd+WvvvqvipsfeFDlZ1McbAriBKHjdqHpZzjMvkn/Y8a4mssbXRC6vJ6peF8BQei+Hkt/FwuLwtqqAr6c1xwLAfsGPk1GsXFDoLX6uPC8i2uDqhBkxb4sqc3fdYytf7WOMNcjdv5WZNUXSZU1132p0+o4sbWvnrf6OuYZxgvrjP3d2tWxwuu6GprmCV8cVHXXaRkoBp/wWDUKY4YvwIr1cc9F4bqddfT5+7RtQ9BYD0MNZa1t+tgntBWElp1e3rMgVBC6qF0rCF1Uu0YrdptCrIC41CD0H15/bvHK3/rlXfsgh7v9mn41e5NCuBzvCA2boqkHc92tumvDOpBcQBCanNSAEwsIQicGH3m6WFgUpl5aENq0nj6BTyxcrAvh6toWC7m6jrU+R2zs8tyuc7QZs6tprEehvvBYD+9C6BdC4vUwOIy1GlSW6yyfq4LO8Fk53vo8XXza2PT5+amruVxTlxrLa5pq7RPaCkJL3eU9C0IFoYvatYLQRbVrtGKbApRNCrEC4lKD0P/1Kz9X/Mtb/m7XPnjEad9TfOt3pPv20l0TtDgQCwfD5Zu0h2JrnTNsbLordM7aWmwhpwwQEIQOwHNpFgKC0CzakKyIWCgVJukT5CQrrudAsdCna+CTcqywnNh4fQKuVaKmAK1rYFmOHfZI0xcJddknsT0XDNbvthziUmcS9sHqr5CH93V3yJYOVc+xfobzu5o3jTfEomnsrrUKQqt2xDKOCUIFocvYqTdUKQhdVLtGKzYW7IRJNynECutZahD6E991avG5Kz4TlrDP44xf+K3iK44/YZ9jU7+J7aFN+rX44Bpb65xhY1MQuml9mHqP5zyfIDTn7qitjYAgtI3Scs6JhVJhFV0CrpxWneouzrogLay1a3AUromFUWOGXEPGDnWHRyrT2J5bDyj7GH+52i//N9a/1fOG7POYy9zB++oaw+uYR9daBaHrust5LwgVhC5nt+5UKghdVLtGKzYW7GxieLLEIPSiC99b/PKPf9+uPXDILW5Z/NIfvmbX8SkPbFsAF/t5mTMIDT2P1ZbDn1CYcl9u01yC0G3q9mauVRC6WX2NhVJhpUMCormlYqFPm4BtjNByjDGDc2ytKULQMEeqvdI0TpgrPFLUHXP58izD52laT5efoVi9KTxi+08QWu6IzX8WhApCF7XLBaGLatcoxW5biBUQlxiEvu7P/rA4949+d9ce+OoHfmPxPT/23F3HpzzQ9Ddm5w4HU1vEwsa51xqrTRCaeifkM54gNJ9eqKSfgCC0n1uuV6UMcXJbY2xtTaFPLDAaEkiNMW5szNCTLkFcUw9jc7UJl8P4sb6U8zf1pzyv6TkWLIZrh/SynLtpPW1dwnixeqeotctecUdouQOW9ywIFYQuatcKQhfVrlGKFYTuy/rIJz29ePh/f9K+BzN499JnP2Pn7xu9c1clT/z+ZxUPevgjdx2f8oAgdK/23EFo7O/9CkL39mnTXglCN62j27ceQehm9bwpxAmB1FyP8OU44Zu9hzxiwV0sWIoFUl3CovXa+9azPs7q+9ivZsfWuDpGl9d1Nm3Dy6Y9F2rpEh7Gaq+rtbwmlU+sB33WEozCI3xDffkY+rNQjpOqVkFoKbq8Z0GoIHRRu1YQuqh2jVKsIHRf1hyD0C9e/YXimY9/2L6F3vDu5/7Hq4rb3uGoys+mOigI3SstCN1r4dV0AoLQ6azNNI6AIHQc17lGbRNKzVVb22Ctqb6uwc8YYWVZ4xhjx8K+IaFtWfP6c8yzzXxt9lybcdbrqnofswnnp5onZpIqbK1aX59jsVq7hLaC0D76eVwjCBWE5rETW1YhCG0JtcGnCUL3bW6OQeh57/jH4rdf8JP7Frrz7nZH3aX42Zf90a7jUx9oCkI37cu2Yr9+LgideveZLwgIQu2DpQsIQpfewX3rbxNK7XvFdO9SBaGxNa7PMUZQuSqWevzYeOtrW61jyOuYZ5sgLXZ9qCtl3bEgNGVAGQsXU84zpG/ltbFa2/SvHEcQWkos71kQKghd1K4VhC6qXaMU2xSEzh3sjLHopf2N0D/7vd8o3nDun+6i+IZve0zx+Kc/c9fxqQ8IQveKz/3zsm292Cu/3a8Eodvd/01YvSB0E7q4dw1NodTeM6d/lTIQiwWGq+FPLDhLcfdgrI4+gVnq8dp0ObZnVi3rxopdH67p41A3V6yfKeeJ9SHlPq5bZ5fjgtAuWpt5riBUELqonS0IXVS7Ris25zvcxlj00oLQF/zIdxcfu/hDuyi+9yefX9z7Ad+w6/jUB5rCdHeETtcRfyN0OuucZhKE5tQNtfQREIT2Ucv3mqZQas7KUwdIsQAohJyxMCtVaJZ6jtiaUtVctQfqAsY2czbtuTZhalVNVcfq6gznppwn1tfU+7hqnV2OxfZMFxN3hHZRz+tcQaggNK8d2VCNILQBaEs+jgWh3/aEpxSn7PzbpMeSgtDLP/Hx4tlP/45K/l955V8WBx18SOVnUx5sCkLnvksytUXs52XutQpCU3d7GeMJQpfRJ1XWCwhC622W+ElTKDXnmlIHSLG1hrkuWPlimtV1twn3Vs+PvY4FZn3miQV9fcaL1b76Wd28bXoW60OYo0sYt1pT1eu6OlPPE+trG5Oq2rseC65tHq955Ztq93oXe0FoG+08zxGECkLz3Jk1VQlCa2C27HAsPBGEzrsZ3vo3ry3+6Dd/cVcRX3nPk4pnvvA3dx2f44AgdK96zkHoJv4s75Xf7leC0O3u/yasXhC6CV3cu4amUCrFr4PvnW3+V7HAqqq61CFWbP4+wWUs6Au1j/WoC43beE2552I+Kfd2rK9tTNr2qQw7Q5gZHnV9aDve+nmC0HWRzXwvCBWELmpnC0IX1a7RihWE7qXN7cuS/uBXn1e8481/s7fAG16Fu3RDsJXLI+e7JFMb5bzWWG2C0NTw9QuQAABAAElEQVQ7IZ/xBKH59EIl/QQEof3ccr1qylAqF4PYrwav19glGFq/tup9LDBLHYRWzT/2sTah35R7bhOC0OAVu4szZU+77Hd3hKaUn3YsQaggdNodN3A2QehAwA25PBaE3v2E+xThLrdNeizpV+PP/O5HF1d8+vJd/D+6czfo3XbuCs3lEQvg5r5LMrVRzmuN1SYITb0T8hlPEJpPL1TST0AQ2s8t16umDKVyMogFZGWdfYLJ8tq6Z0Hozl2MO8Hei888q46oSHmnZqzPKeeJ9bVNOFyFMWUAWs4vCC0lNvtZECoIXdQOF4Quql2jFRv7pmlB6GjsjQNf/IF/L37pWU/fdd5Bhxxa/Mof/8Wu43Me2KYwPRY2zh365lzbnPtz0+cWhG56hzd/fYLQzerxlKFUTnKx4CrU2Te8alpjbN6uwWtT75pqGePzNm6xuttc36XuuiA09TyxvvaZq8tdy108ms4VhDYJbcbnglBB6KJ2siB0Ue0ardimv/G4ad/6vZQ7Ql//f/+4+PNXvHxX3+/9dQ8pvvcnfn7X8TkPCEK/rD9nEBr7HzRCdZv2czznfs9tbkFobh1RT1cBQWhXsbzPj4VSofKUd83lJNEmaOoSCrVdWyww24QgtM2eie25PqFhzH6JQWibvbm+5uC2/jj2xKPXD+15f+F5F9f+bdEue96vxlfyLuKgIFQQuoiNWhYpCC0ltvu5KQidM9wZozPRIPTJTy8e/rgnjTFt5zF/4zk/Wvz7v/7zruse///8aPEN3/roXcfnPNC0hzYphMv1rstYELqJd3bPud9zm1sQmltH1NNVQBDaVSzv82OhVKh8E4PQWBi53q0uwdD6tVXvY3OnDkKrwrGqmlIfO+OFp0eHjO25bQ9C64LbddDg9IjTHrLn8HEnHLP+cfR9LGjtst8FoVHmrD8UhApCs96g68UJQtdFtvd97I4+Qej0++Laa64pnvEd31xcf/31uyb/2Zf9cXG7o+686/icB5qC0E3aQ7kGobG6/H3QOX86xp9bEDq+sRnGFRCEjus79eixUCrUsmlBaNN61/1TB3Mpg9BQayw46xJqra97zPexHqT2rvNJPU+sr23nio1R9iOE5cfuhKBdw8/y+vAsCF3V2M7XglBB6KJ2viB0Ue0atdhYELppd5Mt4Y7Q9/zLPxW/9fM/vqvnR97xTsVzfuuVu47ncGBb9lAscJwr8I3dDRr2xlx15bAvt6EGQeg2dHmz1ygI3az+xkKpsNJNC0LrgrFYV7veqRkbKxZ29Zknth5BaH1Q3DacjPVy9bNYX9vOFetlmKvP/litsXwtCC0ltvdZECoIXdTuF4Quql2jFrukO/pC6HPKE57S22MJQej//f2XFX/753+ya40P/pZHFU/4vjN2Hc/hQCwIDfXl8uvxYa+HcL/vY4lBaC72fc1dFxcQhMZ9fJq/gCA0/x51qXCbgtBYWBVCplR/OzHm31TDqU88OXb5rs9i4Vmq4GzXpAMPxPZc29CwbQl1PqnnGdrX2PVhrSl7KQhtu3s29zxBqCB0UbtbELqodo1abFMQmstdoeWdb+FXfcOjTyC6hCD0Rc98avHR//jArp4/7cefV9zn60/edTyHA017KJe7Essgs++vi5fXV5nPscbyZ6KqnnCs7zrrxnM8PwFBaH49UVE3AUFoN6/cz46FUqH2TbkjNBY0lSFTzCJVcNamji57JhZqlevqMt4U507hXK6jLggNn6fc20P7Gutj6lpjJl3uIvY3QstdtrxnQaggdFG7VhC6qHaNXmzud/RVBT59AtHcg9BPffITxc887b9X9vuX/+i1xcGH3qLysxwOxvZQDmF63R7qEqjnFoTG6gl7Yo5wNoe9uE01CEK3qdubuVZB6Gb1NRZKhZWmDIvmlIuFP6trHBpoNa0x9fixAC1VeNu0pq6fx/Zc6prb9r3rGtbPH9rXWB9TBtox+7AmQeh6ZzfzvSBUELqonS0IXVS7Ri+26Y6+uYOsWODT5a633IPQf/q71xV/+Osv3NXvrzj+hOKMX/itXcdzOtC0h7r0KfW6mmprGxjG9mHbMVKtrSrYXR17Tu/VOrweV0AQOq6v0ccXEISObzzlDE3ByGpIOGVdKefqGlLFQqkuQVHVGrrWUjXG6rHYeKlDxdV5h7yO7bnUNS8lCI3VmTIIje2X0NMu+9sdoUN+Cua9VhAqCJ13B3acXRDaEWwLTo/d0ReWP3XQU5KnDHxyD0LPeskLire/8a/Kpd/4/K3fcXrxiNO+58b3ub6IBYWh5rn2UFNdbf+OZmycKdfW9DMRrAWhQWHzH4LQze/xpq9QELpZHY6FUmGlSw9CY8FPXcAUMxka1PWpJ7bjYrWG67oEW7F5Un7WVHPKPRcLGFPOM7SvsTpT9jAW8nfdL4LQlD8V044lCBWETrvjBs4mCB0IuIGXN901F5bcNjBKxdMU+HS9UzX3IPSnnvrY4jOXf3IX3zNe8OvF3b/q3ruO53agKUzv2q8U62vaQ10CwxyC0Kb1BLM5nFP0yhjdBQSh3c1ckZeAIDSvfgytZspQamitfa6PBUyxICwWGNUFqG3qGxqYVc0RW2PKEK1q7j7HptxzMZtY/7uua0hfc/EIa+6yXwShXXdJPucLQgWh+ezGFpUIQlsgbeEpOQVZbQKfLiFWaGfOQehHPnRh8Qs/+rRdu+7Agw4uXvyq1+06nuOBNmF6154NWWebPdQl3J87CG2znuA15d2pQ/rj2uECgtDhhkaYV0AQOq9/6tmnDGFS19403pBwKowdC9G6BEardQ6taXWs8nUstB16B2s5x+pz2DMXnndR0fUb7ssxptxzsR5OFYS22SuxOttcX9rGnmN7r7yuy1yC0FJtec+CUEHoonatIHRR7Zqs2DZBVihm7KClTeDTJ1DLOQj9m3NeVZz9B/9jV6/v9bUPLp5+5gt2Hc/1QJveTXHHYps6uu6huYLQ8HP52lf/QRGemx5d19Q0ns/zFhCE5t0f1TULCEKbjZZ0xpSh1JQusdCn7R2dY9ikqGvdsanOLuHW+thV71dDuxC0Hnvi0Tv/jimOO+GYqtMrj62OsX5CyoByqnlifW3jH6uzzfXrhuvvY/WtnttlLkHoqtyyXgtCBaGL2rGC0EW1a9Ji2wRIoaCxApc28/cN0nIOQl/2vB8r3vvOt+3q9Xd87zOKh5zy2F3Hcz7QdGdxqD308JQnfPee59RraTN/n/07dRDaJQANhn3WlNreeNMKCEKn9TZbegFBaHrTOUdsCtFShlJTrTPlmlLfbRkLpNoGtFWOqeusmiMcS1V/LPhLuedi83QJ/eo8yuMxlzbzxOoceldv089DuYbw3GUPCkJX5Zb1WhAqCF3UjhWELqpdkxfbJkgKRYXg5dgT7p0kzOoS+vS9IzUWhD7qyU8vHva4J01uHSb80nXXFc/4jocW11137a75n/0bryhuf+djdh3P/UAsNFytPWV4F/ZQ2LtNj75BemxNffdkVa1dfhbK6/uuqbze8zIFBKHL7Juq9woIQvdabMKrppAkZSg1lVcsFOwS9JT1xkKqruPFArMwX1/vpj4ODdNCbSlrj5n2NQg1rj9i87QJKNfHq3sfs2kzT2zPhjnbjFFVW9O+WL+myz4RhK7rLee9IFQQupzdulOpIHRR7Zql2LZhaCguhFnhccoNz3vetPxP19BnSOCUaxD6vne9vfjN5z5rl9gRt79j8dzffvWu40s40DaULNcy1R4aEhiOFYQGqwvPf/fOr76Hf82//l6alc9D1lSO4XmZAoLQZfZN1XsFBKF7LTbhVVNQkjKUmsIrFkh1DS3LepuMuoRUTWP1rTHU2hSmDRk75hrm7jp2LKBMuedi83TpW1hj7BHzaTNP077oElCWdVbVFPoUHue+8k3labue2/oLQnfRLeaAIFQQupjNGgoVhC6qXbMV2yUMLYsMoczdd+4SLR/hjtH1R9/QZ0gIGmrINQg956z/Ufz12a9aZyoe+LBTi9N+4Md2HV/Kga5haLmuMhQN76v2TzjeZw8NDQxjQWgYe/Wx+jNQHg9B5+qjT+i5en14nfKO2vWxvc9fQBCaf49UGBcQhMZ9lvZpmwAmlzWFv0UZ+4KequBntfa2Ac/qNeXrWMjYJaRq8g7z1YWK4dqmv8MZC/7KtdSNX36++hzmfM1OaHbBzpcj1T26rL8cI1bnkD6V45fPsXnaBJTlOE3Psb3Xdp7YHgvzB+dH7ASZsT0Q61fZ96Y9WJ7XtGZBaJNQvp8LQgWh+e7OisoEoRUoDlUKtPmbnZUXJjwYQqYUf08y1yD0F854WvGRD164S+ypz/q54r4P+m+7ji/tQJ9APfUah4agoZ5YEJq63jbjCUHbKG32OYLQze7vNqxOELpZXW4KRXJabVPgFgu92oY7dettcuoyflPgVdYQ1ls+QhDZtP5wblOd5XjhOYwXwuXwCF92FB7h2+C//HxxNPzcc9IN/2kb9K1eE+vVtgahbXu33rfQswvPu3gPb11gvbp32s4T9nTYF2H8qi/DEoSu7uhlvRaECkIXtWMFoYtq1+zFzhmGpgiwSsAcg9DPXH5Z8VNPfUxZ4j7Pv/iKc4tDb3mrfY4t9c2ceyhVYJhLEJrqfxhY6l5S914BQeheC6+WKSAIXWbf6qpuG4rUXT/l8dUwZ33e2B15XULK9XFX38fmCOe1DQSbxlmdc/V1bP2r503V01BP0x2Kq3WtvhaErmrsfd02JN97RbtX6+Fy13mqfoYEoe3sczxLECoIzXFf1tYkCK2l8UFEYMowa4ywJ8cg9O1vfH1x1kuev0v9rsfes3jWL/32ruNLPhD2T9+/g9ln3an30NxBaOr19DF1TV4CgtC8+qGa7gKC0O5mOV8xVWiWwqAuCGwKFtdDoCG1xAKkuvqq5ouNU3V+ONZl/LH72qWWqvUIQqtUvnysz96oGy30qSqs7ro/BKF1wss8LggVhC5q5wpCF9WurIoNYVZ4/MUNz6mLC2FP+PuKfb54qamWHIPQP/z1FxX/9Hd/uav0b/n2Jxenfuf37jq+CQfGDtTHCgznCELLn4fwt1LDaw8CqwKC0FUNr5coIAhdYtfqa+4aiNSPNP4ndeFbLFSrCnCGVNrk1WW+roFX3fpj62kKiWPXVn1WF6xVnRs7FutZyuA6Nk/bO3hj6yg/izn3mSc2Xjln03PTfmnay6vjV+1rd4SuCi3rtSBUELqoHSsIXVS7siy2/KbrUFyKUHSs8GoVL8cgtC5c+5Gff8nO39D56tXyN+51uYdS3CVahoQp/pZsHXRdr+rO73K8rL+8Zsx1lHN4Xr6AIHT5Pdz2FQhCN2sHdAlD5l55VbATC4yqwpsUa4jNGcbvEnw1jbVab9X6Vz+PvQ7zhL8jWfc3JGPXhs9SBaDlPLGAcqogNOU8sT723YdhzPCIfcP7nhPW/tO1V7Hay6Gr1iAILXWW9ywIFYQuatcKQhfVrkUUW94pGopd/Xbs1W/Grgp7wvnrx8OxMR6XfeLj0WEPP/L20c9Tf3jJRR8oXviMp1YO+7Jz3lx5fJMPVu2h1f0T1r66V8Kdw+W3yq8eH8tovZah80xR89AaXZ+3gCA07/6orllAENpstLQzQhi6lMf6N2bHal8/N+UaY/OGebrOHcYL386+/lj9MqOuY66PVb4vA7aqL9gJIVr5CHOXX6KUau5y7KmeY31KvaYx51rt2XqYXfYs/Ap8ePRdV6i//LKssj+x/l/2iU+Xp1U+H37krSuPOzi/gCBUEDr/LuxQgSC0A5ZTCYwocP3111eOvt9++1Ued5AAAQKlgCC0lPC8VAFB6FI7p24CBAgQIFAUglBB6KJ+DgShi2qXYgkQIECAwC4BQeguEgcWJiAIXVjDlEuAAAECBFYEBKGC0JXtkP9LQWj+PVIhAQIECBCICQhCYzo+W4KAIHQJXVIjAQIECBCoFhCECkKrd0amRwWhmTZGWQQIECBAoKWAILQllNOyFRCEZtsahREgQIAAgUYBQaggtHGT5HSCIDSnbqiFAAECBAh0FxCEdjdzRV4CgtC8+qEaAgQIECDQRUAQKgjtsl9mP1cQOnsLFECAAAECBAYJCEIH8bk4AwFBaAZNUAIBAgQIEOgpIAgVhPbcOvNcJgidx92sBAgQIEAglYAgNJWkceYSEITOJW9eAgQIECAwXEAQKggdvosmHEEQOiG2qQgQIECAwAgCgtARUA05qYAgdFJukxEgQIAAgaQCglBBaNINNfZggtCxhY1PgAABAgTGFRCEjutr9PEFBKHjG5uBAAECBAiMJSAIFYSOtbdGGVcQOgqrQQkQIECAwGQCgtDJqE00koAgdCRYwxIgQIAAgQkEBKGC0Am2WbopBKHpLI1EgAABAgTmEBCEzqFuzpQCgtCUmsYiQIAAAQLTCghCBaHT7riBswlCBwK6nAABAgQIzCwgCJ25AaYfLCAIHUxoAAIECBAgMJuAIFQQOtvm6zOxILSPmmsIECBAgEA+AoLQfHqhkn4CgtB+bq4iQIAAAQI5CAhCBaE57MPWNQhCW1M5kQABAgQIZCkgCM2yLYrqICAI7YDlVAIECBAgkJmAIFQQmtmWjJcjCI37+JQAAQIECOQuIAjNvUPqaxIQhDYJ+ZwAAQIECOQrIAgVhOa7OysqE4RWoDhEgAABAgQWJCAIXVCzlFopIAitZHGQAAECBAgsQkAQKghdxEYtixSElhKeCRAgQIDAMgUEocvsm6r3CghC91p4RYAAAQIEliYgCBWELmrPCkIX1S7FEiBAgACBXQKC0F0kDixMQBC6sIYplwABAgQIrAgIQgWhK9sh/5eC0Px7pEICBAgQIBATEITGdHy2BAFB6BK6pEYCBAgQIFAtIAgVhFbvjEyPCkIzbYyyCBAgQIBASwFBaEsop2UrIAjNtjUKI0CAAAECjQKCUEFo4ybJ6QRBaE7dUAsBAgQIEOguIAjtbuaKvAQEoXn1QzUECBAgQKCLgCBUENplv8x+riB09hYogAABAgQIDBIQhA7ic3EGAoLQDJqgBAIECBAg0FNAECoI7bl15rlMEDqPu1kJECBAgEAqAUFoKknjzCUgCJ1L3rwECBAgQGC4gCBUEDp8F004giB0QmxTESBAgACBEQQEoSOgGnJSAUHopNwmI0CAAAECSQUEoYLQpBtq7MEEoWMLG58AAQIECIwrIAgd19fo4wsIQsc3NgMBAgQIEBhLQBAqCB1rb40yriB0FFaDEiBAgACByQQEoZNRm2gkAUHoSLCGJUCAAAECEwgIQgWhE2yzdFMIQtNZGokAAQIECMwhIAidQ92cKQUEoSk1jUWAAAECBKYVEIQKQqfdcQNnE4QOBHQ5AQIECBCYWUAQOnMDTD9YQBA6mNAABAgQIEBgNgFBqCB0ts3XZ2JBaB811xAgQIAAgXwEBKH59EIl/QQEof3cXEWAAAECBHIQEIQKQnPYh61rEIS2pnIiAQIECBDIUkAQmmVbFNVBQBDaAcupBAgQIEAgMwFBqCA0sy0ZL0cQGvfxKQECBAgQyF1AEJp7h9TXJCAIbRLyOQECBAgQyFdAECoIzXd3VlQmCK1AcYgAAQIECCxIQBC6oGYptVJAEFrJ4iABAgQIEFiEgCBUELqIjVoWKQgtJTwTIECAAIFlCghCl9k3Ve8VEITutfCKAAECBAgsTUAQKghd1J4VhC6qXYolQIAAAQK7BAShu0gcWJiAIHRhDVMuAQIECBBYERCECkJXtkP+LwWh+fdIhQQIECBAICYgCI3p+GwJAoLQJXRJjQQIECBAoFpAECoIrd4ZmR4VhGbaGGURIECAAIGWAoLQllBOy1ZAEJptaxRGgAABAgQaBQShgtDGTZLTCYLQnLqhlm0U+Le3vyW67JO+5kHRz31IgAABQag9sHQBQejSO6h+AvMIXHD+RbUTH3fCMbWf+YAAgbQCglBBaNodNfJogtCRgQ1PoEHgFS99YfG2N7yu8qwnfv+zigc9/JGVnzlIgACBUkAQWkp4XqqAIHSpnVM3gXkFXvxTZxUXnHdRZRFnvOj0QhhaSeMggeQCglBBaPJNNeaAgtAxdY1NoFlAENps5AwCBOICgtC4j0/zFxCE5t+jMSpcvZvvwhvCrGNPPGafqQRZ+3B4syYgCF0D8ZbATAKCUEHoTFuv37SC0H5urspL4P3nv6u48Px351XUDdWc8oSnROsShEZ5fEiAQAuB1kHoCUcUjz3p8BYjOoXAtAKC0Gm955gthJ4h7LzwvItr7+Crq+u4G8LRR5z2kD2nCEfrpLbvuCB0+3puxXkKCEIFoXnuzJqqBKE1MA4vSuC1r/794i92/uX4eNk5b46WJQiN8viQAIEWAq2D0BN3gtATBaEtSJ0ysYAgdGLwiaYrw89zX/mmpDOGYDSEogLRpKyLHEwQusi2KXoDBQShgtBFbWtB6KLapdgaAUFoDYzDBAhshYAgdCvavNGLFIRuVnvPfdUb9ywodQBapRRC0TNeeHrVR45tgYAgdAuabImLEBCECkIXsVHLIgWhpYTnJQsIQpfcPbUTIDBUQBA6VND1cwsIQufuQLr5Qwg6RQC6XvGpO3eInvrEk9cPe7/hAoLQDW+w5S1GQBAqCF3MZg2FCkIX1S7F1ggIQmtgHCZAYCsEWgeh/kboVuyHJS5SELrEru2uORZK7T47/RF3h6Y3zX3E1S/cWq/Vn05YF/GewHgCglBB6Hi7a4SRBaEjoBpycgFB6OTkJiRAICMBQWhGzVBKLwFBaC+2bC4KYdRrdv4O6AU3fPN7m8LCHZzlY/2b4sPx8ouVwusu4wpDg5gHAQIEphUQhApCp91xA2cThA4EdHkWAk1B6N1PuM9sdT7j+S+Nzu3LkqI8PiRAoIWAILQFklOyFhCEZt2exuLa3gkaws8Qena9U6+8669t2CoMbWyZEwgQIJBUQBAqCE26ocYeTBA6trDxpxCIBaEhBG0KI6eosW4OQWidjOMECLQVEIS2lXJergKC0Fw701xXm78JmvLvd4ZQ9MVnntVYWMo5GydzAgECBLZcQBAqCF3Uj4AgdFHtUmyNgCC0BsZhAgS2QqB1EHriEcVjTzx8K0wsclkCgtBl9austk0oOVYg2eYu1N859zllqZ4JECBAYEQBQaggdMTtlX5oQWh6UyNOLyAInd7cjAQI5CPQOgj1ZUn5NE0l+wgIQvfhWMybpiB0rBC0BGq6G3Xs+cs6PBMgQGDbBQShgtBF/QwIQhfVLsXWCAhCa2AcJkBgKwQEoVvR5o1epCB0me1tuitzijsyn37qc6N4U9QQLcCHBAgQ2AIBQaggdFHbXBC6qHYptkZAEFoD4zABAlshIAjdijZv9CIFoctsbyyEnOoLi9wVusy9o2oCBDZLQBAqCF3UjhaELqpdiq0REITWwNQcfv/577rxkwvPf/eNr1dfHHvCvfe8DV825UGAQN4CgtC8+6O6ZgFBaLNRjmfEgtAzXnR652+H77vGqjpCEHvsiUf3+pb6NnWU32Qfzr3wvIt2XXLszvzhcdwJX37e8yaT/4Tay5rLOkNpOdaaCVllGat7oDwhB8PVuso+l/WF57Lnc9e6WudqfeXruesr6/DcTkAQKghtt1MyOUsQmkkjlDFIQBDazBfCz9e++g/2nLgahDZfWRTf9oSn7DntlBue21xTnhN68/6asPWUJ3x3kSJojc1x951At0/dZf3l86pfeax8TjVHOZ5nAl0FBKFdxZyfm4AgNLeOtKunKoAsr5wyCC2DvRDwjBmehHle88o37VniBRXhZ7n29ecylD31iSevf9T7/Wot64M84rSHVDrE7p4Nf081+JXrWx8zvK8bt+rcPsdCfReed3HlpXVz97mmcoIWB8vgLhg19T94hkfKnteV2KWu9TGWUGf58zP2z/e6jffdBAShgtBuO2bmswWhMzfA9EkEBKH1jGWA1zX8rBsxhKJdgsVYb7qOVVVTWNdLfuZHqj668djLznnzja/7vojN84znvzRJoNu3NtcREITaA0sXEIQus4OxIHSTvqioDB2bwq82XUzlEgs110Po2LllzWVdsb/7OvafO+izn2L1rjuUa+36PLT/pW3Xeduc36a3bcYJ54xV51C/9frHqnN9Hu+7CQhCBaHddszMZwtCZ26A6ZMIxMK2cMdhCKpyfbzipS8s3vaG11WW98Tvf1bxoIc/svKzpoOpA9D1+dqGf7EAMUVvYuOXNbettTy/6jmErWGuqkeKoLVqXMcItBUQhLaVcl6uAoLQXDsTr6tPcBUfMb9PY0HbkGqHhjmxAGw1AIydt1p/WU/s/DGD0Ni8oc66L72K9WfVYXWtXV7Hxu8yTji3NO56XdX5IVx88ZlnVX006FioMdWdl6kD0PWFpfRcH9v77gKCUEFo910z4xWC0BnxTZ1MQBC6L2WbcHDfK/q9axsw/uCjv6F2gqEhYiygLCdNcedp3RpShLllnZ4J9BUQhPaVc10uAoLQXDrRrY6mkKguvOo2yzxnjxU0ra5mSLAYCw7LALDLGspQqemacuzVdaR4HdtLZW1V88SuG1Jrk0NVLW2OxdbS5vpwTqz3bcdoOm9onWP5rdc9tM718bzvLyAIFYT23z0zXCkInQHdlMkFBKF7SfuEoKt/p7Purse9M+z7qk3IGOtP2zB131n3vmsThA4NK2Ombda/t1qvCIwjIAgdx9Wo0wkIQqezTjlTUyCz1JCiT4gTQs3y0eVX6PuGobEaywAwFhKWtZbPq72KXde33nKeuufY3cXleqqujdUau65qrPJY074uz+v7vGrddYyutfXdl6Guvn6xvVm13tUaw+ddfn7C+UM8w/UeaQQEoYLQNDtpolEEoRNBm2ZUgVjQNjQEG7XwncFT/2p83Z2Lq+sIJk1fVBRMw+MvbnhevX79dVOYGevPkCAxFlCu1zjkztPYPE1rX6/DewJjCAhCx1A15pQCgtAptdPN1SaUWWJIEQvlSr0Q3oQv8AmPqi9oCmFQ+Mbuc2/4cqXyuqrnPkaxsCkEWOHR5VenV2uIjT1GENq0j2J3FqcOQptqCa51vS97Hs5p6vuqdzi/zaNNbWGcsr6qfRk+D+PseW6xN/uEobGe7Jl45z9NNe6pb+Q6y1o8pxEQhApC0+ykiUYRhE4EbZpRBWJB2zYFoTGH0IA2AWhVo9qMGwLB2KMuoE0dhIY1Vt3VOiSwjN11OiRgjXn5jEAXAUFoFy3n5iggCM2xK+1qahMa9glT2s2e/qw2YVPX9YwxZiysDPVVfbN5CN/CY/2bzMNY66FZrK9d19/UpVhw1hQYxq7tWmdTn5pqWV1n01h7+rDTj/VerI6x/jrWk3Bum3BxdcwyuI2FtmHMM1745WB99dq6103r7jpeOc9Y45bjex4uIAgVhA7fRROOIAidENtUownEgrptCUJjBgF+SOAYrm8avyloHCNMrBoz9PvuJ9x7152sQ9ZfF+LmvrdC3zy2Q0AQuh193uRVCkKX292mgKJcWZcQqbxm6uc2a+karpVrCKFTVThZft41IIoFocF6PdzqWncsYOxaa7nGuudYwBe7GzSMF6uz65pjdfTdv7H6Qv1ta2zam33rCzU0jd22xjBWbL1DakxdZxjPI62AIFQQmnZHjTyaIHRkYMNPIhAL6XIPq1L9anxdWFc2IMWdi1XBYzl+k3OsR31rq1pzCGQvPP/du4LQpvrKdaw/+7X4dRHvcxQQhObYFTV1ERCEdtHK79xYgLRebZdQZf3asd/HQpwwd4raY3N0CYpiQWgIKlf/zmJTmFjl2jR+l7sEq8Yvj8VCuDYeMc8u/RpaR7me9eeYYzi3zRpjtbUdY72u9fdNc7TdQ7H/s6DtGOu1rb6PebaxXB3L67QCglBBaNodNfJogtCRgQ0/iUAsZOsbgE1S+M4kKYLQ2PrDOobcDbnqEAsFw3mxu0Jj1/apr268EKrGPltdT5vXdWOFa/sGuG3mdQ6BLgKC0C5azs1RQBCaY1fa19QUolSNFMK68Dc2138lu+rcKY7FApYwf6qQpWmetmFR0zilWZcwsLymfI6FWkPGLccPz7Egs4157Pq2NTbt37Y9WV3X6utYjW3urh27vrLWWJ1tLGN7ss06yzqanuv2ZZv90jS2z/sLCEIFof13zwxXCkJnQDdlcoFYELjtQWifkDHWoCF3hVbdwRnm6lNjVUC52uuquWJBbd2a69a7OlfdtY4TmEpAEDqVtHnGEhCEjiU73bhNYU2skhCShEfsy4f2nDDif2L1pw5YYnO1CZwCQyx0KpmGhk+xYGzo2GWNdaFW+LxNABmrsa1lrB8pet/Uq6Y6Y0Yp6it7EZ7r5mrT79g6U9YZ+hUex97wf27k8j+m7Clqi/8jCBWELmr7C0IX1S7F1ghsexBaFfqVVH1CxvLaqueqAHL1vNhdkrE+xa5bHb98XRVQroaTVXP1saiz7ROqlrV7JpBaQBCaWtR4UwsIQqcWH2e+WKDUdcYyHD32xKP3BB5jhx11AVCoO2WIUzrUzdcmcApjxEKnco6mgK08r+45NkfbOuvGDsdj+6Wt+dAgNLbGUGObMDac1/ToW2fMKMyZqr6y/th8TXPFLFPsl7JGz3kKCEIFoXnuzJqqBKE1MA4vSqAq9CoXsBqOlcdyeh76q/FDgsm+DnXhYBgvFhDG+tQ1CK2qYXXuqrm67oWY7epcfR1dRyCVgCA0laRx5hIQhM4ln37eEIbEvhRoyIxlOJr6V+pjAU6otykA6rOmumCsbWDUVHOquuvqDOMPDVpjY08VhMaCv7a9aNP/ME94lHcx7nmz85+mgD+FUTlXm+fYvmrT77qAP8zd5vo2NTonTwFBqCA0z51ZU5UgtAbG4UUJVIVe5QK6hl/ldVM9Dw1C51h71d2YpVdTQFgVYIZru9ytWRdQroapbc4pa657rrPNfU/VrcfxzRVoH4QeXjz2pCM2F8LKFisgCF1s62oLHzMQLScNQVWKUDQWhrUN5Mqa2j4PDZxi14caUoV4MZuhwVYsNGsbPseCwjb1xa4fq/dt90g4L2bUZn1d5irPrZuzzZ6Keba5vqzB8/IEBKGC0EXtWkHootql2BqBusCq5vTJDjeFgqGQMYPQLuFiF5RYENo0Z921Tdet1lfV76pwsip0bdOTcq66WqvmKq/xTGAOgfZB6BE7Qejhc5RoTgJRAUFolGfRH04RiAagIaFVLOwbMm6scbEgs03AFbs+zNtmjFh95WexeYYEW6nMY8FbG4O60C+sf6zel7ZtnmP1tQ2L28yzek6daZt+111bjt9mjPJcz8sSEIQKQhe1YwWhi2qXYmsEqoKxmlMnPdwmdBsahNaFdWGhXcLFLjAx76aQsO7aputW66tac9X1Ved1MakKUkMdbfq6Wq/XBMYWEISOLWz8sQUEoWML5zF+GYqGai4476LkRYWQpc8dorHwZqwwLBYwtgnwYtcH2DZjtG1AzKfvPLExuwR8sXGaapvSsK316nmxsDic18Vpddym1zHTpjmbTMu5x/q5Ksf3PL2AIFQQOv2uGzCjIHQAnkuzEagL1+YusE1gNjQIrQvrwtrbzN/HqO7XzsNYVYHk6hyxa1d/tX31mvXXVWuuWmvVvmiqr5wrRZ3lWJ4JjC0gCB1b2PhjCwhCxxbOc/wQmoTHhTuh6IXnXbzndYqAtGvIErvrrilM21N0j//EAqM29ceuD+U0BVZdSo7N1ccnNl6bta/WHgvtmmqL1RHmaLp+tY4xXseC0DHvrIyZttlXsevXnUK/w99NbfpbqevXeZ+fgCBUEJrfroxUJAiN4PhoMQJVgVcOxVeFc+t1jRmEtg0W12tqeh8LCcO1TfNWBZnhujZ3a9bNXTVnl3PD/KuPuj3VNkhdHctrAmMLtA9C/Y3QsXth/H4CgtB+bpt6VQiowiN86VJ49AlHuwRqsSA0BE5jPerW1Sbkagrx2gRWXdZVZ9Sm1vV5YgFfl76FcWOhW1OQGasjjJ3aMIzZ5dFU31h7s25fhtqbTMM5TXsznFP1CL0PD8FolU7+xwShGQah55xzTnH22We32j1nnnlmcfzxx7c6dxNOEoRuQhetoS60mltGEFrdgbp+tQlCq37dPRZOVoWubfpSNU9YTZtrq1ftKIHxBASh49kaeRoBQeg0zkueJYQrXb+Nvm2QVRfyzeXVJlxsCpvarr3tGocEjutzxLy71j2krqagsWst6+sc+r6pvqHj97m+TRAaxm3an23mDj8Hx554tGC0DVYG5whCBaEZbMP2JQhC21s5M1+BumBt7orbhGZD7gitu+OxXHfVXZLlZ0Oeh85b169YoFnWWxVQxq6rOr9N4FoVoIYa2vS0rNUzgakEBKFTSZtnLAFB6Fiymzlu24AoRaA4h+DQuttc33VdsWCrbTgW5oyN0/Vu0DDekCA0VksYe+4gNLa2UN8cj1S97lN7ecfoqU88uc/lrhlZQBAqCB15i6UdXhCa1tNo8wjUBWuhmlhINk+1+866jUFoEKgLGpvC26rrYuFk1d5o2hN1QW/Tdft21jsC0wkIQqezNtM4AoLQcVw3edQQYrW5Q7QpXGsKw+YwbBNkxupuc32fddXdydllvliI3dSrqppjYWFTaBczDHMJQneLN5nuvqIoYj2vOr/NsT57pc24zukvIAgVhPbfPTNcKQidAd2UyQWqwq5yktzDq20NQqvu1Aw9i4WadQFlLDztc03dfsp9L5V73vP2CQhCt6/nm7ZiQeimdXS69cSCsFBFU2DSFIZNt5K9M7UJFmN1t7l+72ztX8Ws2wZkdWFqqKJP8Dikpphh33raazafGVtb89XjnNG2z1Wzh0A0PM694W//7nkz8D9NP98Dh3d5BwFBqCC0w3aZ/1RB6Pw9UMFwgbrgKoyce3i1rUFoXc9iv7ZeFZ626W/Xu0ir5gl7KRbShs89CMwlIAidS968qQQEoakkt3OcWLgWRGIBW1MYFkLFqR/h7yI2/fpvrO6xgtDYnG0Cstj1fQOtWFjYVFOsntDz2L6ZYk/E1hbmn2NvPmLnC41SfMN7GYpeeN7Fvb4MbdW/795ZHcPr4QKCUEHo8F004QiC0AmxTTWaQF2oFiZsE5SNVliLgYcEoWH4qpCvnDZ2p2R5Tp/nurssy7HazFs3RqxfVQFl7PyynqrrYoFrnWmbdZVzeiYwpYAgdEptc40hIAgdQ3V7xmz61dtYUNIUhjWFaXMpx+oeKwgNa60L59rMGetT39Cxrp5Qa5vexUL0vjWFuVM8Ymtr452ihqnGCPv5wvMu2jNdnztG2/R6qrVs6zyCUEHoova+IHRR7VJsjYAgtBpmrOCuLsQsq2g7b5fAsW7ONndpVu2PugC1bp6688s1eyYwp4AgdE59c6cQEISmUNzuMWKBliA03d6IhXNNYVRdj2L9aap8SD1h7Nj1gtAm/fE+L4PRtqHopgXD48mON7IgVBA63u4aYWRB6AiohpxcoCroKovIPcAa847QNiFh6dTlOeYdxmkbhNaNU1V3XUDZZq66eaqurbp7NKypqqZw3INADgKC0By6oIYhAoLQIXquDQKxQKspaKsL6MK4TeFeOGeOx1x3hMbmjVnFrmvqT8w31vdYPeWYQ68vxxnjOXYH7TYFfzGHVfc2/V493+u0AoJQQWjaHTXyaILQkYENP4lAXdAVJt/0ILQuuAtrHyu8S+VdN07Vr61XrbNLb6vuPq3yqZpnTMswtgeBoQKC0KGCrp9bQBA6dweWP38s0GoKjQSh3fpfZx1zjoVZQ+68rKslrKhNMDb0+m5y3c6OhcdhpCFu3SrJ4+xYr0KFsf2Xxwo2uwpBqCB0UTtcELqodim2RqAuUAundwnLaoYf9fDQO0LrgrtQdFWgmGIxMe+uc1YFlFVjVJ3XpbdVTmPMk8LXGAS6CghCu4o5PzcBQWhuHeleTwhtwiPFF6nsGajjf2IhSVNAMuTajmUmOz0WkjWtd2gRsbnrwrm6sHnI3aBhHbHetQlCY2tpc/1Qy9j1sdrCdXXWsTGX/lms32Ftc/ds6b5D6heECkKH7J/JrxWETk5uwhEEYsFcl7BshNIahxwahNb9yniYeKy1V4WK5UKrwsXys6rnurFWf229bo1Vd3RWzRGOVe2RdZ+6edbPq5vDcQJzCQhC55I3byoBQWgqyWnGCQFN+cUmq9/6PDTUGlJ9LCBpCgZjdys2XTuk5iHXxkKyKWquCzargqhYrUP3TKzvVbWsm8dqm8JxvZ7193XO4bw261sfb+nvY/3aVpNceioIFYTmshdb1SEIbcXkpMwFqkKusuTcQ6wxg9BgsBooliZDn6vuzizH7BJOhmvqerdad11AuXpOOX/dc5t56kLZrmuqq8FxAmMJCELHkjXuVAKC0Kmkh88TCw3D6HPdpRYLxJoCraZwZa41xboVq7lpvbFx235W5101d2zPDLWtqyOso21QWDdG1Vra+qyfV/YrjFk+jj3x6PJlceoTT77x9eqLutrCOSnrW50z99cxk7Y9z32NS6xPECoIXdS+FYQuql2KrRGoC7nC6ZsehIY1pgwmw3ixR8w6XNclnAzn14Wcq3eWVgWUffpa5bQaclbN02dN4RoPAlMKCEKn1DbXGAKC0DFUxxkzFmqFGYfe4den6jJkqru2KTBquj7HcCVWc9N665y6HI/Nvx5u1t3VmGKvpAjFUozRZBf7uYk5xGqbos9N65rj89jei1nOUes2zSkIFYQuar8LQhfVLsXWCMTCuT6BWc00oxweekdoKKouwAufpV5/zHo1vAxzt31UBZSrY1V93mddVU5jzNN23c4jkEpAEJpK0jhzCQhC55LvN29dsFWOth6ElcfHeo6FRWHONkFmbIwxAqcQjIXHsTt3CPb5u6qxMGiMevcUu/afun2w6h0LAFPsk1jfVutYK32ft1NYxuqMhXex2sIi2q5xnwU3vCn3Zt1dqnWXh1rDI/zZjPAnM8LjEac9pNf+3nNxzX9ieypmWTOcw4kEBKGC0ERbaZphBKHTOJtlXIFYONcnMBu32n1HTxGE1t1VWc7U9S7N8rqq56pQsjxvNVQsj7V5rutfqLtubat3craZI5xTNU+5P1LO07Ye5xFIJSAITSVpnLkEBKFzyfebNxZEhBGnCuLCXE21hHPaBG5TB07rIWIIcMKjbfgUq3cq/7pwb3X+uv6snrNn4T3/U1dDGK5LSBgbp83+aSp/vd+r5zfVGastlWNZz3q/wvjhV/ibAvu6GlPXF+pcr7GsPTwLQlc1pn0tCBWETrvjBs4mCB0I6PIsBKoCrrKwMugq3+f2nCIIDWuqutuxXGsqg5hzmKtv4Fo3bhgv9lm5vrbPsbHq/PoErm3rcR6BVAKC0FSSxplLQBA6l3z/eWPBThg1BCBj3A22WnEsECnP6xKM1IU55XrOeOHp5bCDnmN1t603FoSG4lKEd02LjNVQzl+3T9qus6mGWM+aAsbVsWM9GRrmDR075hzWkMoyjFXXr/BZ2dPwev2Rqg/r41a9j9XYpedVYzvWX0AQKgjtv3tmuFIQOgO6KZML1AVcYaJUIWDyom8YMFUQWndHY1l337s1///27gV4rqrOE/hJQgjkAQl5AAEhIIGIyEvlsciguzKCOrLFrqJb7Og46rrWsJY644po6bgzWO6iNSUzWq4uo5SDI/galRlZRxELUURFHovhJVFCYmICIYGEPIDtG23TJp3uc7vPvffcfz5d9af7f/vc3/ndzzkp4Jt+dM8fZFyMGbd+v1eaFjXvvfOn218V2u2juB9nTfvNU4Sd1/7jp5PO09uvxwSqFhCEVi2sftUCgtCqhdPXHxTu9M6WMqTprRs7/6Dwprde8XhY4DRuIFbMMazv2H6H9Rpbp+hpnNvuArAikCreIv21q27oWz5Vf7ubv5i0bCg2KGAbdR8PW+/YuoOus7jW2DrF2H63YftpWP1h55ddi349FseGeabaV7ub3/HdCwhCBaG73x0ZPiMIzXBRtFRaYFBIN05oVrqREU5IFYQWU+/uVY3dtkYNKwf5FrVHrdvtq7jv13tR95//8e97h21/PM6a9gtCi3pFkLzzbZx5dq7ldwJVCghCq9RVuw4BQWgdyunnGBZK9M5YBCnD3l7bO353j8vOGftW8+58VQZOw3ofFjZ1eyzuhwVPdQVCu/MqQuPiLdX9gtAy19l7zf0e727+YmzZ8C3l+hTzD6tXjIldp2HrXdQa1XVY7di6g9ZinP6Kc4vbMM/YPn9TzT9TCwhCBaGp91Sl9QShlfIqXpPAoKAu9zArZRA67FWhxXIUHouPOzG8rBMyDrsV9fq9UnLn80Z9S3xvnUFr2DuueDzO29Xrmmfnnv1OoEoBQWiVumrXISAIrUO5mjmGhR87z9oNyMqEokUAUtz6hWrbn+jzj3FCkUGvDOxOVaZ+0X/x5TF3d14hubtbmXpFjWHhVWzAtrt+Yo8P66NfnbLX2q9G99ig/Vc2CC1qDqpXPN/dv4MC9sLk651Xwg5a76JWWYdhQWBsf8W44pa6z9i9UPa6Y/usa8//Rs8/dxYQhApCd94TWf8uCM16eTQXKTAo3NqTgtCCa5DFzpzdULQ4fnQnHL2n8zb04tbv7ejbn+jzjxSvBv3NnLduf1Vonyl2OTRO8FrGZ5x5dmnaAQIVCghCK8RVuhYBQWgtzJVNMiw8GjZxES71uw0LkvqdUxwrG7TsXCc20CnO6wZjO9fofmt2zDUUNcp+/uiwHusMhcquf8reBs09ShA6zLV3nfvt25j1LmqMukdjwtBujyn2Ztk+x+mv+MuR7q33m+djTMv22Z3HfToBQaggNN1uqqGSILQGZFNULjAo3NrTgtACe5BHysUY55WZ/fro97b1ncelWM+65tm5d78TqEpAEFqVrLp1CQhC65Kubp4yAUh1XYweMO3cU5lAbOdzy/w+Sgha1B/WX8qwcdj1DOul9/zUgVXqIDTGtvd6Rnk8rkFdf9ZGCZILj7r669qP69mt4348AUGoIHS8HVTz2YLQmsFNV4nAoOAvRXBWSdO/LZryrfG9fQ4y6R03yuPC9GWvft32t9mPcv7uzonpOcV6xgShqUPe3V2z4wRSCAhCUyiq0aSAILRJ/XRzF4FYzFuC0824o1IVYUjV1zNOz8PCxzqD0GIVYj5OoBiXuq8qgtCiz2G+xZhRbuOsee98VYeNo4ag3R6r7q87z7h9duu4H19AECoIHX8X1VhBEFojtqkqExgUoKUIziprvFO4qiC02/Mgm+6YMvep3grfb86YXlMElDHzeFt8vxVyLFcBQWiuK6OvWAFBaKxUO8ZVHSD2KqQKlnpr7vw4dahTvAr05Z0vjzrmuEU7TxX9+7CgLnXgOKyxQYFk99xRX/3aPb/f/aB5U4RkqdY+xZr3u/5U/XVrp16j1P319jnun6FuLfdpBAShgtA0O6mmKoLQmqBNU6nAoGBrTw9Cu/CDjLpjdndf1StA+8037NWaKQLKYRa575l+bo7t2QKC0D17/SfC1QtCJ8Iq9r+GbihaPBvzWX/9q/z+0SL8LG6DvrDm989I81sR6gz70qNBM6UMwwYFoanDrEHX1H1uUD/dMVWE1lUHoUXvxbpvv+98AVLZW8o1393c4/RX1Kyrx3H+7HSvvY5eu3O5LycgCBWEltsxDY8WhDa8AKbf4wW2btk80GDq3tMGPj/Kk0UQWNyKL0Xq3opviC8CwO6t+Gb54guUeo91n3NPgEBeAoLQvNZDN+UFBKHlzdp4RhGWFbfeL0Ipfu8XkBaBR3E7+jmHb7//zeNFY72K8neFEjzohk9Fqd4vRur2XRwveu9+Acw4r/4sarnlIRCz7kWnTb1asfgzVvz5Km7dfVk8Lv6Mdfdm989UU3uzazgsGO3tt+jVn6FiJfO9CUIFofnuzj6dCUL7oDhEgAABAgRaJCAIbdFiabWvgCC0L4uDBAgQIECgFQKCUEFoKzZqt0lBaFfCPQECBAgQaKeAILSd66brHQKC0B0WHhEgQIAAgbYJCEIFoa3as4LQVi2XZgkQIECAwC4CgtBdSBxomYAgtGULpl0CBAgQINAjIAgVhPZsh/wfCkLzXyMdEiBAgACBQQKC0EE6nmuDgCC0DaukRwIECBAg0F9AECoI7b8zMj0qCM10YbRFgAABAgQiBQShkVCGZSsgCM12aTRGgAABAgSGCghCBaFDN0lOAwShOa2GXggQIECAQHkBQWh5M2fkJSAIzWs9dEOAAAECBMoICEKzDEK/HL785a9ErePFF18clixZEjV2IgwShE6EVXQNBAgQILAnCwhC9+TVnxjXLgidGOvoKggQIEBgzxQQhOYYhH65E4R+RRDa74+kILSfimMECBAgQKA9AoLQ9qyVTvsLCEL7uzhKgAABAgTaICAIFYS2YZ/+rkdB6O8oPCBAgAABAq0UEIS2ctk03SMgCO3B8JAAAQIECLRMQBAqCG3VlhWEtmq5NEuAAAECBHYREITuQuJAywQEoS1bMO0SIECAAIEeAUGoILRnO+T/UBCa/xrpkAABAgQIDBIQhA7S8VwbBAShbVglPRIgQIAAgf4CglBBaP+dkelRQWimC6MtAgQIECAQKSAIjYQyLFsBQWi2S6MxAgQIECAwVEAQKggduklyGiAIzWk19EKAAAECBMoLCELLmzkjLwFBaF7roRsCBAgQIFBGQBAqCC2zXxofKwhtfAk0QIAAAQIExhIQhI7F5+QMBAShGSyCFggQIECAwIgCglBB6Ihbp5nTBKHNuJuVAAECBAikEhCEppJUpykBQWhT8uYlQIAAAQLjCwhCBaHj76IaKwhCa8Q2FQECBAgQqEBAEFoBqpK1CghCa+U2GQECBAgQSCogCBWEJt1QVRcThFYtrD4BAgQIEKhWQBBara/q1QsIQqs3NgMBAgQIEKhKQBAqCK1qb1VSVxBaCauiBAgQIECgNgFBaG3UJqpIQBBaEayyBAgQIECgBgFBqCC0hm2WbgpBaDpLlQgQIECAQBMCgtAm1M2ZUkAQmlJTLQIECBAgUK+AIFQQWu+OG3M2QeiYgE4nQIAAAQINCwhCG14A048tIAgdm1ABAgQIECDQmIAgVBDa2OYbZWJB6ChqziFAgAABAvkICELzWQudjCYgCB3NzVkECBAgQCAHAUGoIDSHfRjdgyA0mspAAgQIECCQpYAgNMtl0VQJAUFoCSxDCRAgQIBAZgKCUEFoZltycDuC0ME+niVAgAABArkLCEJzXyH9DRMQhA4T8jwBAgQIEMhXQBAqCM13d/bpTBDaB8UhAgQIECDQIgFBaIsWS6t9BQShfVkcJECAAAECrRAQhApCW7FRu00KQrsS7gkQIECAQDsFBKHtXDdd7xAQhO6w8IgAAQIECLRNQBAqCG3VnhWEtmq5NEuAAAECBHYREITuQuJAywQEoS1bMO0SIECAAIEeAUGoILRnO+T/UBCa/xrpkAABAgQIDBIQhA7S8VwbBAShbVglPRIgQIAAgf4CglBBaP+dkelRQWimC6MtAgQIECAQKSAIjYQyLFsBQWi2S6MxAgQIECAwVEAQKggduklyGiAIzWk19EKAAAECBMoLCELLmzkjLwFBaF7roRsCBAgQIFBGQBAqCC2zXxofKwhtfAk0QIAAAQIExhIQhI7F5+QMBAShGSyCFggQIECAwIgCglBB6Ihbp5nTBKHNuJuVAAECBAikEhCEppJUpykBQWhT8uYlQIAAAQLjCwhCBaHj76IaKwhCa8Q2FQECBAgQqEBAEFoBqpK1CghCa+U2GQECBAgQSCogCBWEJt1QVRcThFYtrD4BAgQIEKhWQBBara/q1QsIQqs3NgMBAgQIEKhKQBAqCK1qb1VSVxBaCauiPxv2ZQAAI7pJREFUBAgQIECgNgFBaG3UJqpIQBBaEayyBAgQIECgBgFBqCC0hm2WbgpBaDpLlQgQIECAQBMCgtAm1M2ZUkAQmlJTLQIECBAgUK+AIFQQWu+OG3M2QeiYgE4nQIAAAQINCwhCG14A048tIAgdm1ABAgQIECDQmIAgVBDa2OYbZWJB6ChqziFAgAABAvkICELzWQudjCYgCB3NzVkECBAgQCAHAUGoIDSHfRjdgyA0mspAAgQIECCQpYAgNMtl0VQJAUFoCSxDCRAgQIBAZgKCUEFoZltycDuC0ME+niVAgAABArkLCEJzXyH9DRMQhA4T8jwBAgQIEMhXQBAqCM13d/bpTBDaB8UhAgQIECDQIgFBaIsWS6t9BQShfVkcJECAAAECrRAQhApCW7FRu00KQrsS7gkQIECAQDsFBKHtXDdd7xAQhO6w8IgAAQIECLRNQBAqCG3VnhWEtmq5NEuAAAECBHYREITuQuJAywQEoS1bMO0SIECAAIEeAUGoILRnO+T/UBCa/xrpkAABAgQIDBIQhA7S8VwbBAShbVglPRIgQIAAgf4CglBBaP+dkelRQWimC6MtAgQIECAQKSAIjYQyLFsBQWi2S6MxAgQIECAwVEAQKggduklyGiAIzWk19EKAAAECBMoLCELLmzkjLwFBaF7roRsCBAgQIFBGQBAqCC2zXxofKwhtfAk0QIAAAQIExhIQhI7F5+QMBAShGSyCFggQIECAwIgCglBB6Ihbp5nTBKHNuJuVAAECBAikEhCEppJUpykBQWhT8uYlQIAAAQLjCwhCBaHj76IaKwhCa8Q2FQECBAgQqEBAEFoBqpK1CghCa+U2GQECBAgQSCogCBWEJt1QVRcThFYtrD4BAgQIEKhWQBBara/q1QsIQqs3NgMBAgQIEKhKQBAqCK1qb1VSVxBaCauiBAgQIECgNgFBaG3UJqpIQBBaEayyBAgQIECgBgFBqCC0hm2WbgpBaDpLlQgQIECAQBMCgtAm1M2ZUkAQmlJTLQIECBAgUK+AIFQQWu+OG3M2QeiYgE4nQIAAAQINCwhCG14A048tIAgdm1ABAgQIECDQmIAgVBDa2OYbZWJB6ChqziFAgAABAvkICELzWQudjCYgCB3NzVkECBAgQCAHAUGoIDSHfRjdgyA0mspAAgQIECCQpYAgNMtl0VQJAUFoCSxDCRAgQIBAZgKCUEFoZltycDuC0ME+niVAgAABArkLCEJzXyH9DRMQhA4T8jwBAgQIEMhXQBAqCM13d/bpTBDaB8UhAgQIECDQIgFBaIsWS6t9BQShfVkcJECAAAECrRAQhApCW7FRu00KQrsS7gkQIECAQDsFBKHtXDdd7xAQhO6w8IgAAQIECLRNQBAqCG3VnhWEtmq5NEuAAAECBHYREITuQuJAywQEoS1bMO0SIECAAIEeAUGoILRnO+T/UBCa/xrpkAABAgQIDBIQhA7S8VwbBAShbVglPRIgQIAAgf4CglBBaP+dkelRQWimC6MtAgQIECAQKSAIjYQyLFsBQWi2S6MxAgQIECAwVEAQKggduklyGiAIzWk19EKAAAECBMoLCELLmzkjLwFBaF7roRsCBAgQIFBGQBAqCC2zXxofKwhtfAk0QIAAAQIExhIQhI7F5+QMBAShGSyCFggQIECAwIgCglBB6Ihbp5nTBKHNuJuVAAECBAikEhCEppJUpykBQWhT8uYlQIAAAQLjCwhCBaHj76IaKwhCa8Q2FQECBAgQqEBAEFoBqpK1CghCa+U2GQECBAgQSCogCBWEJt1QVRcThFYtrD4BAgQIEKhWQBBara/q1QsIQqs3NgMBAgQIEKhKQBAqCK1qb1VSVxBaCauiBAgQIECgNgFBaG3UJqpIQBBaEayyBAgQIECgBgFBqCC0hm2WbgpBaDpLlQgQIECAQBMCgtAm1M2ZUkAQmlJTLQIECBAgUK+AIFQQWu+OG3M2QeiYgE4nQIAAAQINCwhCG14A048tIAgdm1ABAgQIECDQmIAgVBDa2OYbZWJB6ChqziFAgAABAvkICELzWQudjCYgCB3NzVkECBAgQCAHAUGoIDSHfRjdgyA0mspAAgQIECCQpYAgNMtl0VQJAUFoCSxDCRAgQIBAZgKCUEFoZltycDuC0ME+niVAgAABArkLCEJzXyH9DRMQhA4T8jwBAgQIEMhXQBAqCM13d/bpTBDaB8UhAgQIECDQIgFBaIsWS6t9BQShfVkcJECAAAECrRAQhApCW7FRu00KQrsS7gkQIECAQDsFBKHtXDdd7xAQhO6w8IgAAQIECLRNQBAqCG3VnhWEtmq5NEuAAAECBHYREITuQuJAywQEoS1bMO0SIECAAIEeAUGoILRnO+T/UBCa/xrpkAABAgQIDBIQhA7S8VwbBAShbVglPRIgQIAAgf4CglBBaP+dkelRQWimC6MtAgQIECAQKSAIjYQyLFsBQWi2S6MxAgQIECAwVEAQKggduklyGiAIzWk19EKAAAECBMoLCELLmzkjLwFBaF7roRsCBAgQIFBGQBAqCC2zXxofKwhtfAk0QIAAAQIExhIQhI7F5+QMBAShGSyCFggQIECAwIgCglBB6Ihbp5nTBKHNuJuVAAECBAikEhCEppJUpykBQWhT8uYlQIAAAQLjCwhCBaHj76IaKwhCa8Q2FQECBAgQqEBAEFoBqpK1CghCa+U2GQECBAgQSCogCBWEJt1QVRcThFYtrD4BAgQIEKhWQBBara/q1QsIQqs3NgMBAgQIEKhKQBAqCK1qb1VSVxBaCauiBAgQIECgNgFBaG3UJqpIQBBaEayyBAgQIECgBgFBqCC0hm2WbgpBaDpLlQgQIECAQBMCgtAm1M2ZUkAQmlJTLQIECBAgUK+AIFQQWu+OG3M2QeiYgE4nQIAAAQINCwhCG14A048tIAgdm1ABAgQIECDQmIAgVBDa2OYbZWJB6ChqziFAgAABAvkICELzWQudjCYgCB3NzVkECBAgQCAHAUGoIDSHfRjdgyA0mspAAgQIECCQpYAgNMtl0VQJAUFoCSxDCRAgQIBAZgKCUEFoZltycDuC0ME+niVAgAABArkLCEJzXyH9DRMQhA4T8jwBAgQIEMhXQBAqCM13d/bpTBDaB8UhAgQIECDQIgFBaIsWS6t9BQShfVkcJECAAAECrRAQhApCW7FRu02u2rAlvP1rD3R/HXj/wqPmhOMXzhw4xpMECBAgQIBAfQLrn9gWPv3DlVETvuGUA8OLjpodNdYgAnUK3LXie+GrP7k8asrnHPFvwsEHHBE11iACBAgQIECgeoEVax8Idy67KWqiPzrxz8KzD31B1NimB732ta+NamHJEkFoFFQugzZveyq8/up7o9o5/uCZ4YWL50SNNYgAAQIECBCoXmD5us3hS7evjproL846NJx4yIyosQYRqFNg5br7w2duvCRqyqMOOSEcedBxUWMNIkCAAAECBKoX+PnKO8N9K26LmuiPX/A/wsLZi6PGNj1IENr0ClQ4/3/9wn1h/ZYnh85w6Oxp4fzjFwwdZwABAgQIECBQj8DPfvV4+OY9D0dNdum5i8Lhc6ZFjTWIQJ0CG7esDx/9v2+KmvLQ+YvDsYedEjXWIAIECBAgQKB6gbt+eXNY/uv7oib6b3/4v8P0vfeLGtv0IEFo0ytQ4fyX/MuysOyRzUNn2Hfq5PDG0w8ZOs4AAgQIECBAoB6BH/1yfbhp2aNRk338/KPCfvtMiRprEIG6BS7/5pvD45vXDZ123v4Lw8lHvWjoOAMIECBAgACBegR+ct/1Yc2jK4ZONmPa/uGisz8xdFwuAwShuaxEBX18+DsPhZ+seCyq8rnPmhsWz58eNdYgAgQIECBAoFqBz9+6KhSf9z3sVvxl5qde2Y63IQ27Fs9PTIF/uOkvw4MP/yzq4v7tia8Ke02ZGjXWIAIECBAgQKA6ga3btoTrb7smaoJD5xwTLjzjL6PG5jBIEJrDKlTUw/+5eVX49v3D/wa+mH7xvOnh3GPnVtSJsgQIECBAgECswN2rN4brlq6NGn7I/nuH//kyXzAThWVQIwLX/vTj4Y7lN0TN/azOW+Of0XmLvBsBAgQIECDQrMD9K+8I96+4PaqJ4w79g/DyE98SNTaHQYLQHFahoh6+dPva8MU710RXv/C5B4UDZvhb+GgwAwkQIECAQAUCX7nj1+GXjzwRVfmkhTPDn7/Qx9tEYRnUiMCN93whFD8xt9kz54VTjnlJzFBjCBAgQIAAgQoFvv+zfw4bNj4SNcOZx7wynLH4P0SNzWGQIDSHVaioh1UbtoaLO58TWnyDfMzt1MP2C6cu2j9mqDEECBAgQIBABQI/X7MpfP2u+L/EvOiMheG0w2dV0ImSBNIIrHlsefjUd/48utgJR54ZDpxzWPR4AwkQIECAAIG0AqvXPRh+ev93o4pOmjQp/OlZl4V5M9vzF/OC0Kilbe+gMm+PL67y3y0+IDz74BntvWCdEyBAgACBlgps2vpk+Pytq8P6J7ZFXcERB+wT/uqcw6PGGkSgSYGv/PhvwtKVP4hqYcrkvcLJi18U5sxcEDXeIAIECBAgQCCdwONPrA83L70ubHty+GfVF7M+a+Hp4byT35qugRoqCUJrQG5yirtXbwof+NdfRrcweVLY/g3y0/aaHH2OgQQIECBAgMD4Al+989dh2cNxb4kvZrvw5AXh3CVzxp9YBQIVCxQhaBGGxt6mTd03nHX8+bHDjSNAgAABAgQSCdx451fDxs0boqv9++e+LSw5+NTo8TkMFITmsAoV9/DhGzrfHv9Q3LfHF63st89e4XWnHFxxV8oTIECAAAECXYEbf74u/GR5/H90zun8u/qDL1sUZk2b0i3hnkDWAp+64S/Cmg0PRvc4Y5/9whnP/qPo8QYSIECAAAEC4wkUrwR99PH4j2iaP+sZnbfF/6/xJm3gbEFoA+h1T3nzLzaEj35vRalpi//B+o8nHRj2neqVoaXgDCZAgAABAiUFvnjb6vDQo5tLnfXyZx0QXnPS/FLnGEygSYEyX5rU7XO/GXM7X570h2HyJP892jVxT4AAAQIEUgs8+dS2cNNd14ZNm+NfQFf00LYvSeq6CUK7EhP8/r3X/SL8fG382+26HK84bn5Y1PkMMjcCBAgQIEAgrcBD6zaHb9/zcHgk8jNBu7N3PsUmXPrSReGw2dO6h9wTyF5g+5cmdV4VGp5+ulSv+06bEU488qwwa7qPgSgFZzABAgQIEIgQWPPoinDnspvClm3l/lK+jV+S1OUQhHYlJvj9rZ23xl/WeYv8KLfi2+SfOX96mDdj6iinO4cAAQIECBDoEdi09alw7683hpseWBe2PFkuFCrK/OfOZ4Oe47NBe0Q9bIvAzfd/LVz/s38o3e6UKXuFow85KRw0Z1GYutfepc93AgECBAgQIPD7Atue3BpWPrws3L38x+Gpp578/Scjfnvxca8Nz1t0bsTI/IYIQvNbk8o6uvqna8I/3bV25PrFK0OPPXBmOGr+viPXcCIBAgQIENhTBZZ3XgF6XycAvXfNxlCEoaPcXnzU7PAnpxw4yqnOIZCFwFd/cnm4a8X3RuplrylTw4LZzwjPmL847D9j3kg1nESAAAECBPZkgQ0bHwkr1v48PNT5if1m+J29Tjr87PCS5/zpzodb87sgtDVLlabRv/7XB8NdqzeOVWzKpEnbv5xhVudzRIsvafBFDWNxOpkAAQIEJqhA8WrPDZ23vW/Y8mTn/smwcWv5v23vpTmg8+/dj5x3ZJg6pXhzvBuB9gp88jvvCGsfG+2dSt2rLkLRffaeEfbt/BT3e0/1UU5dG/cECBAgQKArsGXrE+GJLY+HTZ2f4r54Jeg4t1n7zg1vftHfhCmT2/uOYUHoODughec+1XkH3p98/p6wrXjgRoAAAQIECLRG4IPndj4XdI7PBW3Ngml0twLrN60JH/vWn+32eU8QIECAAAECeQq8/g8+FBbsd3iezUV2JQiNhJpIw+5atTH89bcenEiX5FoIECBAgMCEFvjj5y4ILznGl8VM6EXewy7u3lU/Cl+85bI97KpdLgECBAgQaK/A2ce9Ljx30TntvYDfdi4Ibf0SjnYBX7pjbfjiHWtGO9lZBAgQIECAQG0Cxx88I/z3Fx1a23wmIlCXwI33fCEUP24ECBAgQIBA3gJHLjgxvOqUd+XdZGR3gtBIqIk4bNkjm8Ml/7JsIl6aayJAgAABAhNC4Lxnzw2vOsGXwkyIxXQRfQVWrV8W/v67E+N/rPpeoIMECBAgQKDlAi981mvCac88r+VXsaN9QegOiz3y0cYtT4W/+96K8NOVj++R1++iCRAgQIBAjgL77jU5/JfTDwrPf8asHNvTE4GkAk9sfTx87da/DfevvjVpXcUIECBAgACB0QX2nz4/vOKki8Ihc44evUiGZwpCM1yUJlq65rY14Sv/b20TU5uTAAECBAgQ6BE4dsH07SHovBnt/TbOnsvxkEC0wHfvvjrcdO+XoscbSIAAAQIECFQjcOzCM8IrTr6omuINVxWENrwAOU3/nfsfDf/UCUNXP7Y1p7b0QoAAAQIE9giBaZ1Xgb74qNnhP508f4+4XhdJoJ/A7Q9eH77XCUMf3fjrfk87RoAAAQIECFQosP/0BeGUI186Ib4UaXdMgtDdyeyhx7c++XS45cEN4Ye/fCzcsnzDHqrgsgkQIECAQH0Cz5y7Tzi18xb4Uw+fFbwKtD53M+UrsPXJzWHpih+EpSt/4O3y+S6TzggQIEBgAgk8c8FJYcnBp4UlC08LU6dMm0BXtuulCEJ3NXHktwIPPbpleyhaBKPFFyu5ESBAgAABAmkEild/bg8/D5sVTjxkRpqiqhCYgAIr190flv6qE4p2glGvEp2AC+ySCBAgQKAxgeIzQIvgc8lBp4WDZz+zsT7qnlgQWrd4S+e781cbw6oNWzo/Wztvne/cd94+X/xs3vZUS69I2wQIECBAoB6B4lWeB83s/MzaO8zv3Bc/R3ZeBTrfZ4DWswBmmRACxatEf7HmzvDIxlVh3eOrfu/+6af99+iEWGQXQYAAAQKVCEyaNDkcMOPg7T+zZxwYZncC0OIt8IfPffaEf/VnP1BBaD8Vx6IFHt64bXtAGn2CgQQIECBAYA8RmDltSljQCT2LV3+6ESBQjcDTTz/dCUV/FR574pFqJlCVAAECBAi0WGDWvnPD7H0XhEmTJrX4KtK2LghN66kaAQIECBAgQIAAAQIECBAgQIAAAQIZCghCM1wULREgQIAAAQIECBAgQIAAAQIECBAgkFZAEJrWUzUCBAgQIECAAAECBAgQIECAAAECBDIUEIRmuChaIkCAAAECBAgQIECAAAECBAgQIEAgrYAgNK2nagQIECBAgAABAgQIECBAgAABAgQIZCggCM1wUbREgAABAgQIECBAgAABAgQIECBAgEBaAUFoWk/VCBAgQIAAAQIECBAgQIAAAQIECBDIUEAQmuGiaIkAAQIECBAgQIAAAQIECBAgQIAAgbQCgtC0nqoRIECAAAECBAgQIECAAAECBAgQIJChgCA0w0XREgECBAgQIECAAAECBAgQIECAAAECaQUEoWk9VSNAgAABAgQIECBAgAABAgQIECBAIEMBQWiGi6IlAgQIECBAgAABAgQIECBAgAABAgTSCghC03qqRoAAAQIECBAgQIAAAQIECBAgQIBAhgKC0AwXRUsECBAgQIAAAQIECBAgQIAAAQIECKQVEISm9VSNAAECBAgQIECAAAECBAgQIECAAIEMBQShGS6KlggQIECAAAECBAgQIECAAAECBAgQSCsgCE3rqRoBAgQIECBAgAABAgQIECBAgAABAhkKCEIzXBQtESBAgAABAgQIECBAgAABAgQIECCQVkAQmtZTNQIECBAgQIAAAQIECBAgQIAAAQIEMhQQhGa4KFoiQIAAAQIECBAgQIAAAQIECBAgQCCtgCA0radqBAgQIECAAAECBAgQIECAAAECBAhkKCAIzXBRtESAAAECBAgQIECAAAECBAgQIECAQFoBQWhaT9UIECBAgAABAgQIECBAgAABAgQIEMhQQBCa4aJoiQABAgQIECBAgAABAgQIECBAgACBtAKC0LSeqhEgQIAAAQIECBAgQIAAAQIECBAgkKGAIDTDRdESAQIECBAgQIAAAQIECBAgQIAAAQJpBQShaT1VI0CAAAECBAgQIECAAAECBAgQIEAgQwFBaIaLoiUCBAgQIECAAAECBAgQIECAAAECBNIKCELTeqpGgAABAgQIECBAgAABAgQIECBAgECGAoLQDBdFSwQIECBAgAABAgQIECBAgAABAgQIpBUQhKb1VI0AAQIECBAgQIAAAQIECBAgQIAAgQwFBKEZLoqWCBAgQIAAAQIECBAgQIAAAQIECBBIKyAITeupGgECBAgQIECAAAECBAgQIECAAAECGQoIQjNcFC0RIECAAAECBAgQIECAAAECBAgQIJBWQBCa1lM1AgQIECBAgAABAgQIECBAgAABAgQyFBCEZrgoWiJAgAABAgQIECBAgAABAgQIECBAIK2AIDStp2oECBAgQIAAAQIECBAgQIAAAQIECGQoIAjNcFG0RIAAAQIECBAgQIAAAQIECBAgQIBAWgFBaFpP1QgQIECAAAECBAgQIECAAAECBAgQyFBAEJrhomiJAAECBAgQIECAAAECBAgQIECAAIG0AoLQtJ6qESBAgAABAgQIECBAgAABAgQIECCQoYAgNMNF0RIBAgQIECBAgAABAgQIECBAgAABAmkFBKFpPVUjQIAAAQIECBAgQIAAAQIECBAgQCBDAUFohouiJQIECBAgQIAAAQIECBAgQIAAAQIE0gq0Ogi94YYbwhVXXBEl8pa3vCWceuqpUWMNIkCAAAECBAgQIECAAAECBAgQIEBg4gisX78+XHTRRVEXdPrpp4c3v/nNUWNTD5r0dOfWr+jdd98dLr300n5P7XLs1a9+dTj33HN3Oe4AAQIECBAgQIAAAQIECBAgQIAAAQITW+CBBx4I73//+6Mu8rzzzgvnn39+1NjUg3YbhD788MPhbW97W9R8Z599drjwwgujxhpEgAABAgQIECBAgAABAgQIECBAgMDEEfjRj34ULr/88qgLeuMb3xhe8IIXRI1NPWi3QWgxUfEy1U2bNg2d8+STTw5vfetbh44zgAABAgQIECBAgAABAgQIECBAgACBiSVw3XXXhauuuirqot7znveExYsXR41NPWhgEFq8pLV4aeuw2/Tp08PHP/7xYcM8T4AAAQIECBAgQIAAAQIECBAgQIDABBP48Ic/HG6//faoq/roRz8a9t9//6ixqQcNDEI/9rGPhZtvvjlqzuIDUZ/3vOdFjTWIAAECBAgQIECAAAECBAgQIECAAIH2C6xatSq8853vjLqQIgAtgtCmbgOD0Kuvvjpce+21Ub15e3wUk0EECBAgQIAAAQIECBAgQIAAAQIEJozANddcE77+9a9HXc/RRx8dLrnkkqixVQwaGIQuXbo0fPCDH4yet3gr/RFHHBE93kACBAgQIECAAAECBAgQIECAAAECBNor8K53vSusXLky6gIuuOCC8NKXvjRqbBWDBgahxYRFEFoEojG3RYsWhfe+971hr732ihluDAECBAgQIECAAAECBAgQIECAAAECLRX43Oc+F77xjW9EdT9t2rRw6aWXhnnz5kWNr2LQ0CD0W9/6Vrjyyiuj516yZEm4+OKLo8cbSIAAAQIECBAgQIAAAQIECBAgQIBAuwRuuOGGcMUVV0Q3feaZZ4Y3vOEN0eOrGDg0CN2wYUN497vfHdavXx89/xlnnBHe9KY3RY83kAABAgQIECBAgAABAgQIECBAgACBdgjccccd4bLLLivV7Nvf/vZwwgknlDon9eChQWgxYfGK0OKVoWVuxfv9i/f9uxEgQIAAAQIECBAgQIAAAQIECBAgMDEEyr57vLjqI488Mrzvfe9rHCAqCC37pUndqype8vr6178+TJ48uXvIPQECBAgQIECAAAECBAgQIECAAAECLRT49Kc/Ha6//vrSnTf9JUndhqOC0GLwqBd67LHHhle+8pXbk9/upO4JECBAgAABAgQIECBAgAABAgQIEGiHwNq1a8M111wTvv/975duuMgGi7fFT506tfS5qU+IDkKLiYuXsC5btmykHoqLPu2008JZZ5010vlOIkCAAAECBAgQIECAAAECBAgQIECgPoF77rkn3HTTTeHGG28MW7duLT1xEX5+4AMfCAsXLix9bhUnlApCly9fHi655JKx+thnn31CEYrOPeCAcMDcuWFu52e//fYbq6aTCRAgQIAAAQIECBAgQIAAAQIECBAYXWDTpk2heOVn9+fBBx8MK1euHL1g58x3vOMd4fjjjx+rRsqTSwWhxcRFAvzJT34yZQ9qESBAgAABAgQIECBAgAABAgQIECAwgQRe85rXhHPOOSerKyodhBbdf/aznw3f/OY3s7oQzRAgQIAAAQIECBAgQIAAAQIECBAg0LzA0UcfPfa7yqu4ipGC0KKRj3zkI+G2226roic1CRAgQIAAAQIECBAgQIAAAQIECBBooUDxsZif+MQnsux85CC0uJpvf/vb4TOf+UyWF6YpAgQIECBAgAABAgQIECBAgAABAgTqEzim80rQd4/5/UJVdjtWEFo0dt9994UPfehDYcuWLVX2qTYBAgQIECBAgAABAgQIECBAgAABApkKnH322eHCCy/MtLvftDV2EFqUWbduXbjyyivDj3/846wvVnMECBAgQIAAAQIECBAgQIAAAQIECKQTmDVrVrjgggvCmWeema5oRZWSBKHd3q666qpw3XXXdX91T4AAAQIECBAgQIAAAQIECBAgQIDABBU47rjjtoeghx12WCuuMGkQWlzx0qVLww9/+MNwyy23hPXr17cCQZMECBAgQIAAAQIECBAgQIAAAQIECMQJnHLKKaH4ef7znx93Qiajkgeh3evasGHD9kC0CEWLcNSNAAECBAgQIECAAAECBAgQIECAAIF2ChxyyCG/Cz+Lx228VRaE9mIUQejtt98eVq9evf1n1apV4Yknnugd4jEBAgQIECBAgAABAgQIECBAgAABAhkITJkyJRx00EFhwYIFYf78+eHozrfBt+3Vn/0YawlC+028du3aUASiRTi67pFH+g1xjAABAgQIECBAoC0Ckya1pVN9EiBAgAABAgQI9BGYOXNmOPDAA7eHn/PmzQtFGDrRbo0FoRMN0vUQIECAAAECBAgQIECAAAECBAgQIJCvgCA037XRGQECBAgQIECAAAECBAgQIECAAAECiQQEoYkglSFAgAABAgQIECBAgAABAgQIECBAIF8BQWi+a6MzAgQIECBAgAABAgQIECBAgAABAgQSCQhCE0EqQ4AAAQIECBAgQIAAAQIECBAgQIBAvgKC0HzXRmcECBAgQIAAAQIECBAgQIAAAQIECCQSEIQmglSGAAECBAgQIECAAAECBAgQIECAAIF8BQSh+a6NzggQIECAAAECBAgQIECAAAECBAgQSCQgCE0EqQwBAgQIECBAgAABAgQIECBAgAABAvkKCELzXRudESBAgAABAgQIECBAgAABAgQIECCQSEAQmghSGQIECBAgQIAAAQIECBAgQIAAAQIE8hUQhOa7NjojQIAAAQIECBAgQIAAAQIECBAgQCCRgCA0EaQyBAgQIECAAAECBAgQIECAAAECBAjkKyAIzXdtdEaAAAECBAgQIECAAAECBAgQIECAQCIBQWgiSGUIECBAgAABAgQIECBAgAABAgQIEMhXQBCa79rojAABAgQIECBAgAABAgQIECBAgACBRAKC0ESQyhAgQIAAAQIECBAgQIAAAQIECBAgkK+AIDTftdEZAQIECBAgQIAAAQIECBAgQIAAAQKJBAShiSCVIUCAAAECBAgQIECAAAECBAgQIEAgXwFBaL5rozMCBAgQIECAAAECBAgQIECAAAECBBIJCEITQSpDgAABAgQIECBAgAABAgQIECBAgEC+AoLQfNdGZwQIECBAgAABAgQIECBAgAABAgQIJBIQhCaCVIYAAQIECBAgQIAAAQIECBAgQIAAgXwFBKH5ro3OCBAgQIAAAQIECBAgQIAAAQIECBBIJCAITQSpDAECBAgQIECAAAECBAgQIECAAAEC+Qr8f57DyaqWAvtSAAAAAElFTkSuQmCC;" vertex="1" parent="1">
          <mxGeometry x="122" y="610" width="206.88" height="185" as="geometry" />
        </mxCell>
      </root>
    </mxGraphModel>
  </diagram>
</mxfile>
